<?xml version="1.0" encoding="UTF-8" standalone="no"?>
<!-- Created with Inkscape (http://www.inkscape.org/) -->

<svg
   width="317.5192mm"
   height="138.13425mm"
   viewBox="0 0 317.5192 138.13425"
   version="1.1"
   id="svg5"
   xmlns="http://www.w3.org/2000/svg"
   xmlns:svg="http://www.w3.org/2000/svg">
  <defs
     id="defs2" />
  <path
     style="fill:#c400f2;fill-opacity:1;stroke-width:1"
     d="M 2.06012,136.1874 0,134.27678 l 0.0757,-16.63033 0.0757,-16.63034 2.74818,2.54128 c 1.51151,1.3977 2.85005,2.54127 2.97455,2.54127 0.1245,0 0.25703,-7.35211 0.29452,-16.33802 0.0597,-14.31601 0.11729,-16.33802 0.46504,-16.33802 0.34776,0 0.40531,2.02201 0.46504,16.33802 0.0375,8.98591 0.16805,16.33802 0.29013,16.33802 0.12207,0 1.38682,-1.06902 2.81053,-2.37559 1.42372,-1.30657 2.69215,-2.31157 2.81874,-2.23334 0.12658,0.0782 0.23015,7.45756 0.23015,16.3985 0,8.94094 0.0918,16.25626 0.20408,16.25626 0.11225,0 1.36354,-1.07156 2.78064,-2.38125 1.4171,-1.30969 2.69448,-2.38125 2.83862,-2.38125 0.16245,0 0.26207,1.65947 0.26207,4.36562 v 4.36563 h -3.04271 -3.0427 v -1.71979 c 0,-0.94589 -0.0758,-1.71979 -0.16853,-1.71979 -0.0927,0 -1.03323,0.7739 -2.09009,1.71979 -1.60999,1.44094 -2.07569,1.71979 -2.87208,1.71979 H 7.16706 l -0.0683,-15.67656 c -0.0598,-13.728 -0.11757,-15.67657 -0.46512,-15.67657 -0.34754,0 -0.40535,1.94857 -0.46512,15.67657 l -0.0682,15.67656 -0.99009,-0.008 c -0.85759,-0.007 -1.26578,-0.2633 -3.05021,-1.91823 z m 18.332,-2.43979 c 0,-2.69323 0.1,-4.36562 0.26092,-4.36562 0.14351,0 1.41879,1.06306 2.83395,2.36237 1.41516,1.2993 2.66696,2.3043 2.78178,2.23334 0.11482,-0.071 0.20876,-7.37778 0.20876,-16.23738 0,-8.85959 0.10202,-16.1714 0.2267,-16.24845 0.12468,-0.0771 1.40233,0.92794 2.83923,2.23334 1.43689,1.3054 2.70319,2.37345 2.81399,2.37345 0.11081,0 0.23214,-7.35211 0.26963,-16.33802 0.0597,-14.31601 0.11728,-16.33802 0.46504,-16.33802 0.34775,0 0.40531,2.02201 0.46504,16.33802 0.0375,8.98591 0.16804,16.33802 0.29012,16.33802 0.12208,0 1.38682,-1.06902 2.81054,-2.37559 1.42372,-1.30657 2.69215,-2.31157 2.81873,-2.23334 0.12658,0.0782 0.23015,7.45756 0.23015,16.3985 0,8.94094 0.0893,16.25477 0.19844,16.25295 0.10914,-0.002 1.36094,-1.07338 2.78178,-2.38125 1.42084,-1.30787 2.70076,-2.37794 2.84427,-2.37794 0.16097,0 0.26093,1.67239 0.26093,4.36562 v 4.36563 H 42.74941 39.7067 v -1.74184 c 0,-0.99517 -0.10864,-1.70404 -0.25344,-1.65365 -0.13939,0.0485 -1.08346,0.83234 -2.09792,1.74184 -1.53411,1.37539 -2.00346,1.65365 -2.78927,1.65365 h -0.94479 v -15.76211 c 0,-14.8691 -0.0262,-15.75706 -0.46302,-15.67296 -0.43383,0.0835 -0.46732,1.07702 -0.53126,15.76211 l -0.0683,15.67296 h -0.95051 c -0.7964,0 -1.2621,-0.27885 -2.87209,-1.71979 -1.05686,-0.94589 -1.9974,-1.71979 -2.09009,-1.71979 -0.0927,0 -0.16853,0.7739 -0.16853,1.71979 v 1.71979 h -3.04271 -3.0427 z m 26.45833,0 c 0,-2.69323 0.1,-4.36562 0.26093,-4.36562 0.14351,0 1.42343,1.07007 2.84427,2.37794 1.42084,1.30787 2.67264,2.37943 2.78178,2.38125 0.10914,0.002 0.19844,-7.31201 0.19844,-16.25295 0,-9.45203 0.10054,-16.3184 0.2402,-16.40471 0.13211,-0.0817 1.40605,0.92335 2.83098,2.23334 1.42493,1.30999 2.68516,2.3818 2.80049,2.3818 0.11534,0 0.24038,-7.35211 0.27787,-16.33802 0.0597,-14.31601 0.11728,-16.33802 0.46504,-16.33802 0.34776,0 0.40531,2.02201 0.46504,16.33802 0.0375,8.98591 0.16804,16.33802 0.29012,16.33802 0.12208,0 1.38682,-1.06902 2.81054,-2.37559 1.42372,-1.30657 2.69215,-2.31157 2.81873,-2.23334 0.12658,0.0782 0.23015,7.45756 0.23015,16.3985 0,8.94094 0.0893,16.25477 0.19844,16.25295 0.10914,-0.002 1.36094,-1.07338 2.78178,-2.38125 1.42084,-1.30787 2.70076,-2.37794 2.84427,-2.37794 0.16097,0 0.26093,1.67239 0.26093,4.36562 v 4.36563 h -3.04271 -3.04271 v -1.71979 c 0,-0.94589 -0.0758,-1.71979 -0.16852,-1.71979 -0.0927,0 -1.03323,0.7739 -2.09009,1.71979 -1.61,1.44094 -2.07569,1.71979 -2.87209,1.71979 h -0.95052 l -0.0682,-15.67656 c -0.0598,-13.728 -0.11758,-15.67657 -0.46512,-15.67657 -0.34754,0 -0.40536,1.94857 -0.46512,15.67657 l -0.0682,15.67656 h -0.95052 c -0.79619,0 -1.26185,-0.27864 -2.86794,-1.71608 -1.05458,-0.94384 -1.99512,-1.63837 -2.09009,-1.5434 -0.095,0.095 -0.17267,0.8672 -0.17267,1.71608 v 1.5434 h -3.04271 -3.04271 z m 26.45833,0 c 0,-2.70615 0.0996,-4.36562 0.26208,-4.36562 0.14414,0 1.42152,1.07156 2.83862,2.38125 1.4171,1.30969 2.66838,2.38125 2.78063,2.38125 0.11225,0 0.20409,-7.31532 0.20409,-16.25626 0,-8.94094 0.10201,-16.31931 0.22669,-16.39636 0.12468,-0.0771 1.40234,0.92794 2.83923,2.23334 1.4369,1.3054 2.7032,2.37345 2.814,2.37345 0.1108,0 0.23213,-7.35211 0.26962,-16.33802 0.0597,-14.31601 0.11729,-16.33802 0.46504,-16.33802 0.34776,0 0.40531,2.02201 0.46504,16.33802 0.0375,8.98591 0.16805,16.33802 0.29013,16.33802 0.12207,0 1.38682,-1.06902 2.81054,-2.37559 1.42371,-1.30657 2.69214,-2.31157 2.81873,-2.23334 0.12658,0.0782 0.23015,7.45756 0.23015,16.3985 0,8.94094 0.0893,16.25477 0.19843,16.25295 0.10914,-0.002 1.36095,-1.07338 2.78179,-2.38125 1.42083,-1.30787 2.70076,-2.37794 2.84427,-2.37794 0.16097,0 0.26092,1.67239 0.26092,4.36562 v 4.36563 h -3.04271 -3.0427 v -1.71979 c 0,-0.94589 -0.0758,-1.71979 -0.16853,-1.71979 -0.0927,0 -1.03323,0.7739 -2.09009,1.71979 -1.61166,1.44242 -2.0752,1.71979 -2.87418,1.71979 h -0.95262 v -15.76211 c 0,-14.8691 -0.0263,-15.75706 -0.46302,-15.67296 -0.43384,0.0835 -0.46732,1.07702 -0.53127,15.76211 l -0.0682,15.67296 h -0.95052 c -0.7964,0 -1.26209,-0.27885 -2.87208,-1.71979 -1.05686,-0.94589 -1.9974,-1.71979 -2.09009,-1.71979 -0.0927,0 -0.16853,0.7739 -0.16853,1.71979 v 1.71979 h -3.04271 -3.04271 z m 26.45834,0 c 0,-2.69323 0.1,-4.36562 0.26092,-4.36562 0.14351,0 1.42344,1.07007 2.84427,2.37794 1.42084,1.30787 2.67265,2.37943 2.78179,2.38125 0.10914,0.002 0.19843,-7.31201 0.19843,-16.25295 0,-9.62048 0.0995,-16.31773 0.24364,-16.40684 0.134,-0.0828 1.3988,0.92219 2.81066,2.23335 1.41185,1.31115 2.67053,2.38392 2.79705,2.38392 0.1271,0 0.26053,-7.3104 0.2982,-16.33802 0.0597,-14.31601 0.11728,-16.33802 0.46504,-16.33802 0.34775,0 0.40531,2.02201 0.46504,16.33802 0.0375,8.98591 0.16804,16.33802 0.29012,16.33802 0.12208,0 1.38682,-1.06902 2.81054,-2.37559 1.42372,-1.30657 2.69215,-2.31157 2.81873,-2.23334 0.12658,0.0782 0.23015,7.45756 0.23015,16.3985 0,8.94094 0.0918,16.25626 0.20409,16.25626 0.11225,0 1.36353,-1.07156 2.78063,-2.38125 1.4171,-1.30969 2.69448,-2.38125 2.83862,-2.38125 0.16246,0 0.26208,1.65947 0.26208,4.36562 v 4.36563 h -3.04271 -3.04271 v -1.71979 c 0,-0.94589 -0.0758,-1.71979 -0.16853,-1.71979 -0.0927,0 -1.03323,0.7739 -2.09009,1.71979 -1.60999,1.44094 -2.07568,1.71979 -2.87208,1.71979 h -0.95052 l -0.0682,-15.67656 c -0.0598,-13.728 -0.11758,-15.67657 -0.46512,-15.67657 -0.34755,0 -0.40536,1.94857 -0.46512,15.67657 l -0.0683,15.67656 h -0.95051 c -0.7964,0 -1.2621,-0.27885 -2.87209,-1.71979 -1.05686,-0.94589 -1.9974,-1.71979 -2.09009,-1.71979 -0.0927,0 -0.16853,0.7739 -0.16853,1.71979 v 1.71979 h -3.04271 -3.0427 z m 26.45833,0 c 0,-2.69323 0.1,-4.36562 0.26093,-4.36562 0.14351,0 1.41879,1.06306 2.83395,2.36237 1.41516,1.2993 2.66696,2.3043 2.78179,2.23334 0.11481,-0.071 0.20876,-7.37778 0.20876,-16.23738 0,-8.85959 0.10201,-16.1714 0.22669,-16.24845 0.12468,-0.0771 1.40234,0.92794 2.83923,2.23334 1.4369,1.3054 2.70319,2.37345 2.814,2.37345 0.1108,0 0.23213,-7.35211 0.26962,-16.33802 0.0597,-14.31601 0.11728,-16.33802 0.46504,-16.33802 0.34776,0 0.40531,2.02201 0.46504,16.33802 0.0375,8.98591 0.16804,16.33802 0.29012,16.33802 0.12208,0 1.38682,-1.06902 2.81054,-2.37559 1.42372,-1.30657 2.69215,-2.31157 2.81873,-2.23334 0.12658,0.0782 0.23015,7.45756 0.23015,16.3985 0,8.94094 0.0893,16.25477 0.19844,16.25295 0.10914,-0.002 1.36094,-1.07338 2.78178,-2.38125 1.42084,-1.30787 2.70076,-2.37794 2.84427,-2.37794 0.16097,0 0.26093,1.67239 0.26093,4.36562 v 4.36563 h -3.04271 -3.04271 v -1.74184 c 0,-0.99517 -0.10864,-1.70404 -0.25344,-1.65365 -0.13939,0.0485 -1.08346,0.83234 -2.09792,1.74184 -1.5341,1.37539 -2.00346,1.65365 -2.78927,1.65365 h -0.94478 v -15.76211 c 0,-14.8691 -0.0263,-15.75706 -0.46302,-15.67296 -0.43384,0.0835 -0.46733,1.07702 -0.53127,15.76211 l -0.0682,15.67296 h -0.95052 c -0.7964,0 -1.26209,-0.27885 -2.87209,-1.71979 -1.05686,-0.94589 -1.9974,-1.71979 -2.09009,-1.71979 -0.0927,0 -0.16852,0.7739 -0.16852,1.71979 v 1.71979 h -3.04271 -3.04272 z m 26.45834,0 c 0,-2.69323 0.1,-4.36562 0.26093,-4.36562 0.14351,0 1.42343,1.07007 2.84427,2.37794 1.42084,1.30787 2.67264,2.37943 2.78178,2.38125 0.10914,0.002 0.19844,-7.31201 0.19844,-16.25295 0,-9.45203 0.10054,-16.3184 0.2402,-16.40471 0.13211,-0.0817 1.40606,0.92335 2.83099,2.23334 1.42493,1.30999 2.68515,2.3818 2.80049,2.3818 0.11533,0 0.24037,-7.35211 0.27786,-16.33802 0.0597,-14.31601 0.11729,-16.33802 0.46504,-16.33802 0.34776,0 0.40531,2.02201 0.46504,16.33802 0.0375,8.98591 0.16805,16.33802 0.29013,16.33802 0.12207,0 1.38682,-1.06902 2.81054,-2.37559 1.42371,-1.30657 2.69214,-2.31157 2.81873,-2.23334 0.12658,0.0782 0.23015,7.45756 0.23015,16.3985 0,8.94094 0.0893,16.25477 0.19843,16.25295 0.10914,-0.002 1.36095,-1.07338 2.78179,-2.38125 1.42083,-1.30787 2.70076,-2.37794 2.84427,-2.37794 0.16097,0 0.26092,1.67239 0.26092,4.36562 v 4.36563 h -3.04271 -3.0427 v -1.71979 c 0,-0.94589 -0.0758,-1.71979 -0.16853,-1.71979 -0.0927,0 -1.03323,0.7739 -2.09009,1.71979 -1.60999,1.44094 -2.07569,1.71979 -2.87209,1.71979 h -0.95051 l -0.0682,-15.67656 c -0.0598,-13.728 -0.11757,-15.67657 -0.46512,-15.67657 -0.34754,0 -0.40535,1.94857 -0.46512,15.67657 l -0.0682,15.67656 H 163.9 c -0.79618,0 -1.26184,-0.27864 -2.86793,-1.71608 -1.05458,-0.94384 -1.99512,-1.63837 -2.09009,-1.5434 -0.095,0.095 -0.17268,0.8672 -0.17268,1.71608 v 1.5434 h -3.04271 -3.04271 z m 26.45834,0 c 0,-2.70615 0.0996,-4.36562 0.26207,-4.36562 0.14414,0 1.42152,1.07156 2.83862,2.38125 1.4171,1.30969 2.66839,2.38125 2.78064,2.38125 0.11224,0 0.20408,-7.31532 0.20408,-16.25626 0,-8.94094 0.10202,-16.31931 0.2267,-16.39636 0.12468,-0.0771 1.40233,0.92794 2.83923,2.23334 1.43689,1.3054 2.70319,2.37345 2.81399,2.37345 0.11081,0 0.23214,-7.35211 0.26963,-16.33802 0.0597,-14.31601 0.11728,-16.33802 0.46504,-16.33802 0.34775,0 0.40531,2.02201 0.46504,16.33802 0.0375,8.98591 0.16804,16.33802 0.29012,16.33802 0.12208,0 1.38682,-1.06902 2.81054,-2.37559 1.42372,-1.30657 2.69215,-2.31157 2.81873,-2.23334 0.12658,0.0782 0.23015,7.45756 0.23015,16.3985 0,8.94094 0.0893,16.25477 0.19844,16.25295 0.10914,-0.002 1.36094,-1.07338 2.78178,-2.38125 1.42084,-1.30787 2.70076,-2.37794 2.84427,-2.37794 0.16097,0 0.26093,1.67239 0.26093,4.36562 v 4.36563 h -3.04271 -3.04271 v -1.71979 c 0,-0.94589 -0.0758,-1.71979 -0.16853,-1.71979 -0.0927,0 -1.03323,0.7739 -2.09009,1.71979 -1.61165,1.44242 -2.0752,1.71979 -2.87418,1.71979 h -0.95262 v -15.76211 c 0,-14.8691 -0.0262,-15.75706 -0.46302,-15.67296 -0.43383,0.0835 -0.46732,1.07702 -0.53126,15.76211 l -0.0683,15.67296 h -0.95051 c -0.7964,0 -1.2621,-0.27885 -2.87209,-1.71979 -1.05686,-0.94589 -1.9974,-1.71979 -2.09009,-1.71979 -0.0927,0 -0.16853,0.7739 -0.16853,1.71979 v 1.71979 h -3.04271 -3.0427 z m 26.45833,0 c 0,-2.69323 0.1,-4.36562 0.26093,-4.36562 0.14351,0 1.42343,1.07007 2.84427,2.37794 1.42084,1.30787 2.67264,2.37943 2.78178,2.38125 0.10914,0.002 0.19844,-7.31201 0.19844,-16.25295 0,-9.62048 0.0995,-16.31773 0.24364,-16.40684 0.134,-0.0828 1.39879,0.92219 2.81065,2.23335 1.41186,1.31115 2.67053,2.38392 2.79705,2.38392 0.12711,0 0.26054,-7.3104 0.2982,-16.33802 0.0597,-14.31601 0.11728,-16.33802 0.46504,-16.33802 0.34776,0 0.40531,2.02201 0.46504,16.33802 0.0375,8.98591 0.16804,16.33802 0.29012,16.33802 0.12208,0 1.38682,-1.06902 2.81054,-2.37559 1.42372,-1.30657 2.69215,-2.31157 2.81873,-2.23334 0.12658,0.0782 0.23015,7.45756 0.23015,16.3985 0,8.94094 0.0918,16.25626 0.20409,16.25626 0.11225,0 1.36354,-1.07156 2.78064,-2.38125 1.4171,-1.30969 2.69448,-2.38125 2.83862,-2.38125 0.16245,0 0.26207,1.65947 0.26207,4.36562 v 4.36563 h -3.04271 -3.04271 v -1.71979 c 0,-0.94589 -0.0758,-1.71979 -0.16852,-1.71979 -0.0927,0 -1.03323,0.7739 -2.09009,1.71979 -1.61,1.44094 -2.07569,1.71979 -2.87209,1.71979 h -0.95052 l -0.0682,-15.67656 c -0.0598,-13.728 -0.11758,-15.67657 -0.46512,-15.67657 -0.34754,0 -0.40536,1.94857 -0.46512,15.67657 l -0.0682,15.67656 h -0.95052 c -0.7964,0 -1.26209,-0.27885 -2.87209,-1.71979 -1.05686,-0.94589 -1.9974,-1.71979 -2.09009,-1.71979 -0.0927,0 -0.16852,0.7739 -0.16852,1.71979 v 1.71979 h -3.04271 -3.04271 z m 26.45833,0 c 0,-2.69323 0.1,-4.36562 0.26093,-4.36562 0.14351,0 1.41879,1.06306 2.83394,2.36237 1.41517,1.2993 2.66697,2.3043 2.78179,2.23334 0.11482,-0.071 0.20876,-7.37778 0.20876,-16.23738 0,-8.85959 0.10201,-16.1714 0.22669,-16.24845 0.12468,-0.0771 1.40234,0.92794 2.83923,2.23334 1.4369,1.3054 2.7032,2.37345 2.814,2.37345 0.1108,0 0.23213,-7.35211 0.26962,-16.33802 0.0597,-14.31601 0.11729,-16.33802 0.46504,-16.33802 0.34776,0 0.40531,2.02201 0.46504,16.33802 0.0375,8.98591 0.16805,16.33802 0.29013,16.33802 0.12207,0 1.38682,-1.06902 2.81054,-2.37559 1.42371,-1.30657 2.69214,-2.31157 2.81873,-2.23334 0.12658,0.0782 0.23015,7.45756 0.23015,16.3985 0,8.94094 0.0893,16.25477 0.19843,16.25295 0.10914,-0.002 1.36095,-1.07338 2.78179,-2.38125 1.42083,-1.30787 2.70076,-2.37794 2.84427,-2.37794 0.16097,0 0.26092,1.67239 0.26092,4.36562 v 4.36563 h -3.04271 -3.0427 v -1.74184 c 0,-0.99517 -0.10865,-1.70404 -0.25345,-1.65365 -0.13939,0.0485 -1.08345,0.83234 -2.09792,1.74184 -1.5341,1.37539 -2.00346,1.65365 -2.78926,1.65365 h -0.94479 v -15.76211 c 0,-14.8691 -0.0263,-15.75706 -0.46302,-15.67296 -0.43384,0.0835 -0.46732,1.07702 -0.53127,15.76211 l -0.0682,15.67296 h -0.95052 c -0.7964,0 -1.26209,-0.27885 -2.87208,-1.71979 -1.05686,-0.94589 -1.9974,-1.71979 -2.09009,-1.71979 -0.0927,0 -0.16853,0.7739 -0.16853,1.71979 v 1.71979 h -3.04271 -3.04271 z m 26.45834,0 c 0,-2.69323 0.1,-4.36562 0.26092,-4.36562 0.14351,0 1.42344,1.07007 2.84427,2.37794 1.42084,1.30787 2.67265,2.37943 2.78179,2.38125 0.10914,0.002 0.19843,-7.31201 0.19843,-16.25295 0,-9.45203 0.10055,-16.3184 0.24019,-16.40471 0.13213,-0.0817 1.40608,0.92335 2.83099,2.23334 1.42494,1.30999 2.68515,2.3818 2.80051,2.3818 0.11533,0 0.24037,-7.35211 0.27786,-16.33802 0.0597,-14.31601 0.11727,-16.33802 0.46504,-16.33802 0.34777,0 0.40531,2.02201 0.46503,16.33802 0.0375,8.98591 0.16806,16.33802 0.29014,16.33802 0.12205,0 1.38681,-1.06902 2.81054,-2.37559 1.42372,-1.30657 2.69213,-2.31157 2.81871,-2.23334 0.1266,0.0782 0.23016,7.45756 0.23016,16.3985 0,8.94094 0.0893,16.25477 0.19844,16.25295 0.10914,-0.002 1.36093,-1.07338 2.78177,-2.38125 1.42084,-1.30787 2.70076,-2.37794 2.84427,-2.37794 0.16098,0 0.26094,1.67239 0.26094,4.36562 v 4.36563 h -3.04271 -3.04271 v -1.71979 c 0,-0.94589 -0.0758,-1.71979 -0.16851,-1.71979 -0.0927,0 -1.03325,0.7739 -2.09011,1.71979 -1.60999,1.44094 -2.07568,1.71979 -2.87207,1.71979 h -0.95052 l -0.0683,-15.67656 c -0.0598,-13.728 -0.11756,-15.67657 -0.46511,-15.67657 -0.34756,0 -0.40537,1.94857 -0.46511,15.67657 l -0.0683,15.67656 h -0.95051 c -0.79619,0 -1.26183,-0.27864 -2.86793,-1.71608 -1.05457,-0.94384 -1.99511,-1.63837 -2.0901,-1.5434 -0.095,0.095 -0.17267,0.8672 -0.17267,1.71608 v 1.5434 h -3.04271 -3.0427 z m 26.45833,0 c 0,-2.70615 0.0996,-4.36562 0.26207,-4.36562 0.14414,0 1.42153,1.07156 2.83863,2.38125 1.41709,1.30969 2.66838,2.38125 2.78062,2.38125 0.11226,0 0.2041,-7.31532 0.2041,-16.25626 0,-8.94094 0.10202,-16.31931 0.22669,-16.39636 0.12467,-0.0771 1.40235,0.92794 2.83922,2.23334 1.4369,1.3054 2.70319,2.37345 2.814,2.37345 0.11081,0 0.23215,-7.35211 0.26964,-16.33802 0.0597,-14.31601 0.11726,-16.33802 0.46503,-16.33802 0.34777,0 0.40532,2.02201 0.46503,16.33802 0.0375,8.98591 0.16806,16.33802 0.29014,16.33802 0.12206,0 1.38682,-1.06902 2.81054,-2.37559 1.42372,-1.30657 2.69214,-2.31157 2.81871,-2.23334 0.12661,0.0782 0.23016,7.45756 0.23016,16.3985 0,8.94094 0.0893,16.25477 0.19844,16.25295 0.10914,-0.002 1.36094,-1.07338 2.78178,-2.38125 1.42084,-1.30787 2.70076,-2.37794 2.84427,-2.37794 0.16097,0 0.26093,1.67239 0.26093,4.36562 v 4.36563 h -3.04271 -3.04271 v -1.71979 c 0,-0.94589 -0.0758,-1.71979 -0.16851,-1.71979 -0.0927,0 -1.03325,0.7739 -2.0901,1.71979 -1.61166,1.44242 -2.07521,1.71979 -2.8742,1.71979 h -0.9526 v -15.76211 c 0,-14.8691 -0.0262,-15.75706 -0.46302,-15.67296 -0.43384,0.0835 -0.46734,1.07702 -0.53126,15.76211 l -0.0683,15.67296 h -0.95052 c -0.79639,0 -1.26209,-0.27885 -2.87208,-1.71979 -1.05685,-0.94589 -1.99739,-1.71979 -2.0901,-1.71979 -0.0927,0 -0.16851,0.7739 -0.16851,1.71979 v 1.71979 h -3.04271 -3.04271 z m 26.45833,0 c 0,-2.68791 0.1001,-4.36562 0.26046,-4.36562 0.14324,0 1.51246,1.14888 3.04271,2.55307 l 2.78225,2.55306 v 1.81256 1.81256 h -3.04271 -3.04271 z M 19.51568,128.15278 c -0.10004,-0.10005 -0.1819,-7.4844 -0.1819,-16.40968 0,-8.92528 -0.0916,-16.22778 -0.20347,-16.22778 -0.11192,0 -1.37912,1.06805 -2.81602,2.37345 -1.4369,1.3054 -2.71455,2.3104 -2.83923,2.23334 -0.12468,-0.077 -0.22669,-7.45542 -0.22669,-16.39636 0,-8.94094 -0.0905,-16.25626 -0.20108,-16.25626 -0.11059,0 -1.35036,1.07156 -2.75505,2.38125 -1.40468,1.30969 -2.68342,2.38125 -2.84163,2.38125 -0.20407,0 -0.28766,-4.77261 -0.28766,-16.42357 C 7.16295,40.30936 7.13685,39.38987 6.69993,39.474 6.2658,39.5576 6.23265,40.58249 6.16874,55.89757 6.12534,66.30534 6.00681,72.23199 5.84214,72.23199 5.7,72.23199 4.33169,71.08311 2.80145,69.67892 L 0.0192,67.12586 V 50.45051 33.77516 l 0.72191,0.64144 c 0.39705,0.35279 1.65709,1.50463 2.80008,2.55966 1.14299,1.05503 2.18644,1.91823 2.31878,1.91823 0.14109,0 0.2688,-6.75756 0.30877,-16.33802 0.0597,-14.316 0.11729,-16.33802 0.46504,-16.33802 0.34776,0 0.40531,2.02202 0.46504,16.33802 0.0375,8.98591 0.15882,16.33802 0.26963,16.33802 0.1108,0 1.3771,-1.06805 2.81399,-2.37345 1.4369,-1.30539 2.71455,-2.3104 2.83923,-2.23334 0.12468,0.0771 0.2267,7.45542 0.2267,16.39636 0,8.94095 0.0893,16.25477 0.19843,16.25296 0.10914,-0.002 1.36095,-1.07339 2.78179,-2.38125 1.42084,-1.30787 2.69985,-2.37795 2.84225,-2.37795 0.16529,0 0.28355,5.90759 0.32707,16.33802 0.0597,14.31601 0.11728,16.33802 0.46504,16.33802 0.34776,0 0.40531,-2.02201 0.46504,-16.33802 0.0435,-10.43043 0.16178,-16.33802 0.32707,-16.33802 0.1424,0 1.42141,1.07008 2.84225,2.37795 1.42084,1.30786 2.67265,2.37943 2.78179,2.38125 0.10914,0.002 0.19843,-7.31201 0.19843,-16.25296 0,-8.94094 0.10202,-16.3193 0.2267,-16.39636 0.12468,-0.0771 1.40233,0.92795 2.83923,2.23334 1.43689,1.3054 2.70319,2.37345 2.81399,2.37345 0.11081,0 0.23214,-7.35211 0.26963,-16.33802 0.0597,-14.316 0.11728,-16.33802 0.46504,-16.33802 0.34775,0 0.40531,2.02202 0.46504,16.33802 0.0375,8.98591 0.15882,16.33802 0.26962,16.33802 0.1108,0 1.3771,-1.06805 2.814,-2.37345 1.43689,-1.30539 2.71455,-2.3104 2.83923,-2.23334 0.12468,0.0771 0.22669,7.38886 0.22669,16.24846 0,8.85959 0.0973,16.16851 0.21632,16.24204 0.11898,0.0735 1.35875,-0.93147 2.75505,-2.23334 1.3963,-1.30187 2.66727,-2.36704 2.82437,-2.36704 0.20064,0 0.30592,4.86155 0.3538,16.33802 0.0597,14.31601 0.11729,16.33802 0.46504,16.33802 0.34776,0 0.40531,-2.02201 0.46504,-16.33802 0.0435,-10.43043 0.16179,-16.33802 0.32708,-16.33802 0.14239,0 1.42141,1.07008 2.84225,2.37795 1.42084,1.30786 2.67264,2.37943 2.78178,2.38125 0.10914,0.002 0.19844,-7.31201 0.19844,-16.25296 0,-9.62048 0.0994,-16.31772 0.24364,-16.40683 0.134,-0.0828 1.39879,0.92218 2.81065,2.23334 1.41186,1.31116 2.67053,2.38392 2.79705,2.38392 0.12711,0 0.26054,-7.3104 0.2982,-16.33802 0.0597,-14.316 0.11728,-16.33802 0.46504,-16.33802 0.34776,0 0.40531,2.02202 0.46504,16.33802 0.0375,8.98591 0.15882,16.33802 0.26962,16.33802 0.11081,0 1.3771,-1.06805 2.814,-2.37345 1.43689,-1.30539 2.71455,-2.3104 2.83923,-2.23334 0.12468,0.0771 0.22669,7.45542 0.22669,16.39636 0,8.94095 0.0918,16.25626 0.20409,16.25626 0.11225,0 1.36354,-1.07156 2.78064,-2.38125 1.4171,-1.30968 2.69357,-2.38125 2.8366,-2.38125 0.16681,0 0.28449,5.8583 0.32822,16.33802 0.0597,14.31601 0.11728,16.33802 0.46504,16.33802 0.34775,0 0.40531,-2.02201 0.46504,-16.33802 0.0479,-11.47647 0.15316,-16.33802 0.3538,-16.33802 0.1571,0 1.43493,1.07157 2.83961,2.38125 1.40469,1.30969 2.64446,2.38125 2.75505,2.38125 0.1106,0 0.20108,-7.31531 0.20108,-16.25626 0,-8.94094 0.10201,-16.3193 0.22669,-16.39636 0.12468,-0.0771 1.40234,0.92795 2.83923,2.23334 1.4369,1.3054 2.7032,2.37345 2.814,2.37345 0.1108,0 0.23213,-7.35211 0.26962,-16.33802 0.0597,-14.316 0.11729,-16.33802 0.46504,-16.33802 0.34776,0 0.40531,2.02202 0.46504,16.33802 0.0375,8.98591 0.15882,16.33802 0.26963,16.33802 0.1108,0 1.3771,-1.06805 2.81399,-2.37345 1.4369,-1.30539 2.71455,-2.3104 2.83923,-2.23334 0.12468,0.0771 0.2267,7.45542 0.2267,16.39636 0,8.94095 0.0893,16.25477 0.19843,16.25296 0.10914,-0.002 1.36095,-1.07339 2.78179,-2.38125 1.42083,-1.30787 2.69985,-2.37795 2.84225,-2.37795 0.16529,0 0.28355,5.90759 0.32707,16.33802 0.0597,14.31601 0.11728,16.33802 0.46504,16.33802 0.34776,0 0.40531,-2.02201 0.46504,-16.33802 0.0435,-10.43043 0.16178,-16.33802 0.32707,-16.33802 0.1424,0 1.42142,1.07008 2.84225,2.37795 1.42084,1.30786 2.67265,2.37943 2.78179,2.38125 0.10914,0.002 0.19843,-7.31201 0.19843,-16.25296 0,-8.94094 0.10357,-16.32027 0.23015,-16.3985 0.12659,-0.0782 1.39502,0.92677 2.81873,2.23334 1.42372,1.30658 2.68847,2.37559 2.81054,2.37559 0.12208,0 0.25264,-7.35211 0.29013,-16.33802 0.0597,-14.316 0.11728,-16.33802 0.46504,-16.33802 0.34775,0 0.40531,2.02202 0.46504,16.33802 0.0375,8.98591 0.15882,16.33802 0.26962,16.33802 0.1108,0 1.3771,-1.06805 2.814,-2.37345 1.43689,-1.30539 2.71455,-2.3104 2.83923,-2.23334 0.12468,0.0771 0.22669,7.45542 0.22669,16.39636 0,8.94095 0.0893,16.25477 0.19844,16.25296 0.10914,-0.002 1.36094,-1.07339 2.78178,-2.38125 1.42084,-1.30787 2.69985,-2.37795 2.84225,-2.37795 0.16529,0 0.28356,5.90759 0.32707,16.33802 0.0597,14.31601 0.11729,16.33802 0.46504,16.33802 0.34776,0 0.40531,-2.02201 0.46504,-16.33802 0.0435,-10.43043 0.16179,-16.33802 0.32708,-16.33802 0.14239,0 1.42142,1.07008 2.84226,2.37795 1.42084,1.30786 2.67264,2.37943 2.78178,2.38125 0.10914,0.002 0.19844,-7.31201 0.19844,-16.25296 0,-8.94094 0.10201,-16.3193 0.22669,-16.39636 0.12468,-0.0771 1.40234,0.92795 2.83923,2.23334 1.4369,1.3054 2.70319,2.37345 2.814,2.37345 0.1108,0 0.23213,-7.35211 0.26962,-16.33802 0.0597,-14.316 0.11728,-16.33802 0.46504,-16.33802 0.34776,0 0.40531,2.02202 0.46504,16.33802 0.0375,8.98591 0.15882,16.33802 0.26962,16.33802 0.11081,0 1.3771,-1.06805 2.814,-2.37345 1.43689,-1.30539 2.71455,-2.3104 2.83923,-2.23334 0.12468,0.0771 0.22669,7.38886 0.22669,16.24846 0,8.85959 0.0974,16.16851 0.21632,16.24204 0.11898,0.0735 1.35875,-0.93147 2.75505,-2.23334 1.3963,-1.30187 2.66727,-2.36704 2.82437,-2.36704 0.20065,0 0.30593,4.86155 0.35381,16.33802 0.0597,14.31601 0.11728,16.33802 0.46504,16.33802 0.34775,0 0.40531,-2.02201 0.46504,-16.33802 0.0435,-10.43043 0.16178,-16.33802 0.32707,-16.33802 0.1424,0 1.42141,1.07008 2.84225,2.37795 1.42084,1.30786 2.67264,2.37943 2.78178,2.38125 0.10914,0.002 0.19844,-7.31201 0.19844,-16.25296 0,-9.62048 0.0994,-16.31772 0.24364,-16.40683 0.134,-0.0828 1.3988,0.92218 2.81065,2.23334 1.41186,1.31116 2.67053,2.38392 2.79705,2.38392 0.12711,0 0.26054,-7.3104 0.2982,-16.33802 0.0597,-14.316 0.11729,-16.33802 0.46504,-16.33802 0.34776,0 0.40531,2.02202 0.46504,16.33802 0.0375,8.98591 0.15882,16.33802 0.26963,16.33802 0.1108,0 1.3771,-1.06805 2.81399,-2.37345 1.4369,-1.30539 2.71455,-2.3104 2.83923,-2.23334 0.12468,0.0771 0.2267,7.45542 0.2267,16.39636 0,8.94095 0.0918,16.25626 0.20408,16.25626 0.11225,0 1.36354,-1.07156 2.78064,-2.38125 1.4171,-1.30968 2.69357,-2.38125 2.8366,-2.38125 0.16681,0 0.2845,5.8583 0.32822,16.33802 0.0597,14.31601 0.11728,16.33802 0.46504,16.33802 0.34776,0 0.40531,-2.02201 0.46504,-16.33802 0.0479,-11.47647 0.15316,-16.33802 0.3538,-16.33802 0.1571,0 1.43493,1.07157 2.83962,2.38125 1.40468,1.30969 2.64446,2.38125 2.75505,2.38125 0.11059,0 0.20107,-7.31531 0.20107,-16.25626 0,-8.94094 0.10202,-16.3193 0.2267,-16.39636 0.12468,-0.0771 1.40233,0.92795 2.83923,2.23334 1.43689,1.3054 2.70319,2.37345 2.81399,2.37345 0.11081,0 0.23214,-7.35211 0.26963,-16.33802 0.0597,-14.316 0.11728,-16.33802 0.46504,-16.33802 0.34775,0 0.40531,2.02202 0.46504,16.33802 0.0375,8.98591 0.15882,16.33802 0.26962,16.33802 0.1108,0 1.3771,-1.06805 2.814,-2.37345 1.43689,-1.30539 2.71455,-2.3104 2.83923,-2.23334 0.12468,0.0771 0.22669,7.45542 0.22669,16.39636 0,8.94095 0.0893,16.25477 0.19844,16.25296 0.10914,-0.002 1.36094,-1.07339 2.78178,-2.38125 1.42084,-1.30787 2.69985,-2.37795 2.84225,-2.37795 0.16529,0 0.28356,5.90759 0.32707,16.33802 0.0597,14.31601 0.11729,16.33802 0.46504,16.33802 0.34776,0 0.40531,-2.02201 0.46504,-16.33802 0.0435,-10.43043 0.16179,-16.33802 0.32708,-16.33802 0.14239,0 1.42141,1.07008 2.84225,2.37795 1.42084,1.30786 2.67264,2.37943 2.78178,2.38125 0.10914,0.002 0.19844,-7.31201 0.19844,-16.25296 0,-8.94094 0.10357,-16.32027 0.23015,-16.3985 0.12658,-0.0782 1.39501,0.92677 2.81873,2.23334 1.42372,1.30658 2.68846,2.37559 2.81054,2.37559 0.12208,0 0.25263,-7.35211 0.29012,-16.33802 0.0597,-14.316 0.11728,-16.33802 0.46504,-16.33802 0.34776,0 0.40531,2.02202 0.46504,16.33802 0.0375,8.98591 0.15882,16.33802 0.26962,16.33802 0.11081,0 1.3771,-1.06805 2.814,-2.37345 1.43689,-1.30539 2.71455,-2.3104 2.83923,-2.23334 0.12468,0.0771 0.22669,7.45542 0.22669,16.39636 0,8.94095 0.0893,16.25477 0.19844,16.25296 0.10914,-0.002 1.36094,-1.07339 2.78178,-2.38125 1.42084,-1.30787 2.69986,-2.37795 2.84225,-2.37795 0.16529,0 0.28356,5.90759 0.32708,16.33802 0.0597,14.31601 0.11728,16.33802 0.46504,16.33802 0.34775,0 0.40531,-2.02201 0.46504,-16.33802 0.0435,-10.43043 0.16178,-16.33802 0.32707,-16.33802 0.1424,0 1.42141,1.07008 2.84225,2.37795 1.42084,1.30786 2.67264,2.37943 2.78178,2.38125 0.10914,0.002 0.19844,-7.31201 0.19844,-16.25296 0,-8.94094 0.10201,-16.3193 0.22669,-16.39636 0.12468,-0.0771 1.40234,0.92795 2.83923,2.23334 1.4369,1.3054 2.7032,2.37345 2.814,2.37345 0.1108,0 0.23213,-7.35211 0.26962,-16.33802 0.0597,-14.316 0.11729,-16.33802 0.46504,-16.33802 0.34776,0 0.40531,2.02202 0.46504,16.33802 0.0375,8.98591 0.15882,16.33802 0.26963,16.33802 0.1108,0 1.3771,-1.06805 2.81399,-2.37345 1.4369,-1.30539 2.71455,-2.3104 2.83923,-2.23334 0.12468,0.0771 0.2267,7.38886 0.2267,16.24846 0,8.85959 0.0973,16.16851 0.21632,16.24204 0.11897,0.0735 1.35874,-0.93147 2.75505,-2.23334 1.3963,-1.30187 2.66727,-2.36704 2.82437,-2.36704 0.20064,0 0.30592,4.86155 0.3538,16.33802 0.0597,14.31601 0.11728,16.33802 0.46504,16.33802 0.34776,0 0.40531,-2.02201 0.46504,-16.33802 0.0435,-10.43043 0.16178,-16.33802 0.32707,-16.33802 0.1424,0 1.42142,1.07008 2.84225,2.37795 1.42084,1.30786 2.67265,2.37943 2.78179,2.38125 0.10914,0.002 0.19843,-7.31201 0.19843,-16.25296 0,-9.62048 0.0995,-16.31772 0.24363,-16.40683 0.13401,-0.0828 1.3988,0.92218 2.81067,2.23334 1.41184,1.31116 2.67052,2.38392 2.79704,2.38392 0.12711,0 0.26054,-7.3104 0.29821,-16.33802 0.0597,-14.316 0.11727,-16.33802 0.46504,-16.33802 0.34777,0 0.40531,2.02202 0.46503,16.33802 0.0375,8.98591 0.15883,16.33802 0.26964,16.33802 0.1108,0 1.3771,-1.06805 2.814,-2.37345 1.43687,-1.30539 2.71454,-2.3104 2.83922,-2.23334 0.12467,0.0771 0.22669,7.45542 0.22669,16.39636 0,8.94095 0.0918,16.25626 0.2041,16.25626 0.11224,0 1.36353,-1.07156 2.78061,-2.38125 1.41711,-1.30968 2.69359,-2.38125 2.83663,-2.38125 0.16679,0 0.28448,5.8583 0.32821,16.33802 0.0597,14.31601 0.11727,16.33802 0.46503,16.33802 0.34777,0 0.40532,-2.02201 0.46503,-16.33802 0.0479,-11.47647 0.15317,-16.33802 0.35381,-16.33802 0.15711,0 1.43494,1.07157 2.83961,2.38125 1.4047,1.30969 2.64446,2.38125 2.75505,2.38125 0.1106,0 0.20109,-7.31531 0.20109,-16.25626 0,-8.94094 0.10202,-16.3193 0.22669,-16.39636 0.12467,-0.0771 1.40235,0.92795 2.83922,2.23334 1.4369,1.3054 2.70319,2.37345 2.814,2.37345 0.11081,0 0.23215,-7.35211 0.26964,-16.33802 0.0597,-14.316 0.11726,-16.33802 0.46503,-16.33802 0.34777,0 0.40532,2.02202 0.46503,16.33802 0.0375,8.98591 0.15883,16.33802 0.26964,16.33802 0.11081,0 1.3771,-1.06805 2.814,-2.37345 1.43687,-1.30539 2.71455,-2.3104 2.83922,-2.23334 0.12467,0.0771 0.22669,7.45542 0.22669,16.39636 0,8.94095 0.0893,16.25477 0.19844,16.25296 0.10914,-0.002 1.36094,-1.07339 2.78178,-2.38125 1.42084,-1.30787 2.69986,-2.37795 2.84226,-2.37795 0.16528,0 0.28355,5.90759 0.32707,16.33802 0.0597,14.31601 0.11727,16.33802 0.46504,16.33802 0.34777,0 0.40531,-2.02201 0.46503,-16.33802 0.0434,-10.41011 0.16195,-16.33802 0.3266,-16.33802 0.14216,0 1.51045,1.14888 3.0407,2.55307 l 2.78225,2.55307 v 16.67534 16.67535 l -0.59531,-0.52491 c -0.32742,-0.28871 -1.59737,-1.44055 -2.82213,-2.55967 -1.22473,-1.11911 -2.32516,-2.03475 -2.44538,-2.03475 -0.1202,0 -0.24924,7.35211 -0.28673,16.33802 -0.0597,14.31601 -0.11726,16.33802 -0.46503,16.33802 -0.34777,0 -0.40532,-2.02201 -0.46504,-16.33802 -0.0375,-8.98591 -0.16806,-16.33802 -0.29014,-16.33802 -0.12205,0 -1.38681,1.06902 -2.81053,2.37559 -1.42373,1.30657 -2.69214,2.31157 -2.81872,2.23334 -0.1266,-0.0782 -0.23016,-7.45756 -0.23016,-16.3985 0,-8.94094 -0.0893,-16.25477 -0.19843,-16.25295 -0.10914,0.002 -1.36486,1.07697 -2.79049,2.38923 -1.42562,1.31226 -2.70554,2.31577 -2.84427,2.23004 -0.15549,-0.0961 -0.25222,-6.39071 -0.25222,-16.41215 0,-16.07987 -0.006,-16.25626 -0.52917,-16.25626 -0.52348,0 -0.52917,0.17639 -0.52917,16.40416 0,10.65498 -0.0918,16.40417 -0.26207,16.40417 -0.14414,0 -1.42152,-1.07156 -2.83863,-2.38125 -1.41708,-1.30969 -2.66838,-2.38125 -2.78061,-2.38125 -0.11227,0 -0.2041,7.31532 -0.2041,16.25626 0,8.94094 -0.10203,16.31931 -0.2267,16.39636 -0.12467,0.0771 -1.40234,-0.92794 -2.83922,-2.23334 -1.43689,-1.3054 -2.70319,-2.37345 -2.814,-2.37345 -0.11081,0 -0.23214,7.35211 -0.26964,16.33802 -0.0597,14.31601 -0.11726,16.33803 -0.46503,16.33803 -0.34776,0 -0.40531,-2.02202 -0.46503,-16.33803 -0.0375,-8.98591 -0.15883,-16.33802 -0.26964,-16.33802 -0.1108,0 -1.3771,1.06805 -2.814,2.37345 -1.43687,1.3054 -2.71454,2.3104 -2.83921,2.23334 -0.12468,-0.077 -0.2267,-7.45542 -0.2267,-16.39636 0,-8.94094 -0.0893,-16.25477 -0.19844,-16.25295 -0.10914,0.002 -1.36093,1.07338 -2.78177,2.38125 -1.42084,1.30787 -2.69986,2.37794 -2.84226,2.37794 -0.16529,0 -0.28356,-5.90758 -0.32708,-16.33802 -0.0597,-14.316 -0.11726,-16.33802 -0.46503,-16.33802 -0.34769,0 -0.40534,1.99875 -0.46509,16.12842 -0.0375,8.87064 -0.17314,16.23336 -0.30138,16.3616 -0.13452,0.13451 -1.33716,-0.78299 -2.84221,-2.16834 -1.43497,-1.32084 -2.69833,-2.40301 -2.80747,-2.40483 -0.10914,-0.002 -0.19844,7.31201 -0.19844,16.25295 0,8.94094 -0.10201,16.31931 -0.22669,16.39636 -0.12468,0.0771 -1.40234,-0.92794 -2.83923,-2.23334 -1.4369,-1.3054 -2.70319,-2.37345 -2.814,-2.37345 -0.1108,0 -0.23213,7.35211 -0.26962,16.33802 -0.0597,14.31601 -0.11728,16.33803 -0.46504,16.33803 -0.34776,0 -0.40531,-2.02202 -0.46504,-16.33803 -0.0375,-8.98591 -0.15882,-16.33802 -0.26962,-16.33802 -0.11081,0 -1.3771,1.06805 -2.814,2.37345 -1.43689,1.3054 -2.71455,2.3104 -2.83923,2.23334 -0.12468,-0.077 -0.22669,-7.45542 -0.22669,-16.39636 0,-8.94094 -0.0893,-16.25477 -0.19844,-16.25295 -0.10914,0.002 -1.36486,1.07697 -2.79048,2.38923 -1.42562,1.31226 -2.70554,2.31577 -2.84427,2.23004 -0.15549,-0.0961 -0.25223,-6.39071 -0.25223,-16.41215 0,-16.07987 -0.006,-16.25626 -0.52917,-16.25626 -0.52347,0 -0.52916,0.17639 -0.52916,16.40416 0,11.63699 -0.0836,16.40417 -0.28766,16.40417 -0.15821,0 -1.43695,-1.07156 -2.84163,-2.38125 -1.40469,-1.30969 -2.64446,-2.38125 -2.75505,-2.38125 -0.1106,0 -0.20108,7.31532 -0.20108,16.25626 0,8.94094 -0.10201,16.31931 -0.22669,16.39636 -0.12468,0.0771 -1.40234,-0.92794 -2.83923,-2.23334 -1.4369,-1.3054 -2.7032,-2.37345 -2.814,-2.37345 -0.1108,0 -0.23213,7.35211 -0.26962,16.33802 -0.0597,14.31601 -0.11729,16.33803 -0.46504,16.33803 -0.34776,0 -0.40531,-2.02202 -0.46504,-16.33803 -0.0375,-8.98591 -0.15882,-16.33802 -0.26963,-16.33802 -0.1108,0 -1.3771,1.06805 -2.81399,2.37345 -1.4369,1.3054 -2.71455,2.3104 -2.83923,2.23334 -0.12468,-0.077 -0.2267,-7.45542 -0.2267,-16.39636 0,-8.94094 -0.0905,-16.25626 -0.20107,-16.25626 -0.11059,0 -1.35037,1.07156 -2.75505,2.38125 -1.40469,1.30969 -2.68342,2.38125 -2.84164,2.38125 -0.20406,0 -0.28765,-4.77261 -0.28765,-16.42357 0,-15.49906 -0.0261,-16.41855 -0.46302,-16.33442 -0.43413,0.0836 -0.46728,1.10849 -0.53119,16.42357 -0.0435,10.42809 -0.16178,16.33442 -0.32707,16.33442 -0.1424,0 -1.42142,-1.07007 -2.84225,-2.37794 -1.42084,-1.30787 -2.67265,-2.37943 -2.78179,-2.38125 -0.10914,-0.002 -0.19843,7.31201 -0.19843,16.25295 0,8.94094 -0.10202,16.31931 -0.2267,16.39636 -0.12468,0.0771 -1.40233,-0.92794 -2.83923,-2.23334 -1.43689,-1.3054 -2.70319,-2.37345 -2.81399,-2.37345 -0.11081,0 -0.23214,7.35211 -0.26963,16.33802 -0.0597,14.31601 -0.11728,16.33803 -0.46504,16.33803 -0.34775,0 -0.40531,-2.02202 -0.46504,-16.33803 -0.0375,-8.98591 -0.16804,-16.33802 -0.29012,-16.33802 -0.12208,0 -1.38682,1.06902 -2.81054,2.37559 -1.42372,1.30657 -2.69215,2.31157 -2.81873,2.23334 -0.12658,-0.0782 -0.23015,-7.45756 -0.23015,-16.3985 0,-8.94094 -0.0893,-16.25477 -0.19844,-16.25295 -0.10914,0.002 -1.36485,1.07697 -2.79047,2.38923 -1.42562,1.31226 -2.70555,2.31577 -2.84427,2.23004 -0.1555,-0.0961 -0.25224,-6.39071 -0.25224,-16.41215 0,-16.07987 -0.006,-16.25626 -0.52916,-16.25626 -0.52348,0 -0.52917,0.17639 -0.52917,16.40416 0,10.65498 -0.0919,16.40417 -0.26207,16.40417 -0.14414,0 -1.42152,-1.07156 -2.83862,-2.38125 -1.4171,-1.30969 -2.66839,-2.38125 -2.78064,-2.38125 -0.11225,0 -0.20409,7.31532 -0.20409,16.25626 0,8.94094 -0.10201,16.31931 -0.22669,16.39636 -0.12468,0.0771 -1.40234,-0.92794 -2.83923,-2.23334 -1.4369,-1.3054 -2.70319,-2.37345 -2.814,-2.37345 -0.1108,0 -0.23213,7.35211 -0.26962,16.33802 -0.0597,14.31601 -0.11728,16.33803 -0.46504,16.33803 -0.34776,0 -0.40531,-2.02202 -0.46504,-16.33803 -0.0375,-8.98591 -0.15882,-16.33802 -0.26962,-16.33802 -0.11081,0 -1.3771,1.06805 -2.814,2.37345 -1.43689,1.3054 -2.71455,2.3104 -2.83923,2.23334 -0.12468,-0.077 -0.22669,-7.45542 -0.22669,-16.39636 0,-8.94094 -0.0893,-16.25477 -0.19844,-16.25295 -0.10914,0.002 -1.36094,1.07338 -2.78178,2.38125 -1.42084,1.30787 -2.69986,2.37794 -2.84225,2.37794 -0.16529,0 -0.28356,-5.90758 -0.32708,-16.33802 -0.0597,-14.316 -0.11728,-16.33802 -0.46504,-16.33802 -0.34769,0 -0.40533,1.99875 -0.46509,16.12842 -0.0375,8.87064 -0.17314,16.23336 -0.30139,16.3616 -0.13451,0.13451 -1.33714,-0.78299 -2.8422,-2.16834 -1.43496,-1.32084 -2.69832,-2.40301 -2.80746,-2.40483 -0.10914,-0.002 -0.19844,7.31201 -0.19844,16.25295 0,8.94094 -0.10201,16.31931 -0.22669,16.39636 -0.12468,0.0771 -1.40234,-0.92794 -2.83923,-2.23334 -1.4369,-1.3054 -2.7032,-2.37345 -2.814,-2.37345 -0.1108,0 -0.23213,7.35211 -0.26962,16.33802 -0.0597,14.31601 -0.11729,16.33803 -0.46504,16.33803 -0.34776,0 -0.40531,-2.02202 -0.46504,-16.33803 -0.0375,-8.98591 -0.15882,-16.33802 -0.26963,-16.33802 -0.1108,0 -1.3771,1.06805 -2.81399,2.37345 -1.4369,1.3054 -2.71455,2.3104 -2.83923,2.23334 -0.12468,-0.077 -0.2267,-7.45542 -0.2267,-16.39636 0,-8.94094 -0.0893,-16.25477 -0.19843,-16.25295 -0.10914,0.002 -1.36486,1.07697 -2.79048,2.38923 -1.42562,1.31226 -2.70554,2.31577 -2.84427,2.23004 -0.15549,-0.0961 -0.25223,-6.39071 -0.25223,-16.41215 0,-16.07987 -0.006,-16.25626 -0.52917,-16.25626 -0.52348,0 -0.52917,0.17639 -0.52917,16.40416 0,11.63699 -0.0836,16.40417 -0.28765,16.40417 -0.15822,0 -1.43695,-1.07156 -2.84164,-2.38125 -1.40468,-1.30969 -2.64446,-2.38125 -2.75505,-2.38125 -0.11059,0 -0.20107,7.31532 -0.20107,16.25626 0,8.94094 -0.10202,16.31931 -0.2267,16.39636 -0.12468,0.0771 -1.40233,-0.92794 -2.83923,-2.23334 -1.4369,-1.3054 -2.7032,-2.37345 -2.814,-2.37345 -0.11081,0 -0.23214,7.35211 -0.26963,16.33802 -0.0597,14.31601 -0.11728,16.33803 -0.46504,16.33803 -0.34775,0 -0.40531,-2.02202 -0.46504,-16.33803 -0.0375,-8.98591 -0.15882,-16.33802 -0.26962,-16.33802 -0.1108,0 -1.3771,1.06805 -2.814,2.37345 -1.43689,1.3054 -2.71455,2.3104 -2.83923,2.23334 -0.12468,-0.077 -0.22669,-7.45542 -0.22669,-16.39636 0,-8.94094 -0.0905,-16.25626 -0.20108,-16.25626 -0.11059,0 -1.35036,1.07156 -2.75505,2.38125 -1.40468,1.30969 -2.68342,2.38125 -2.84163,2.38125 -0.20406,0 -0.28766,-4.77261 -0.28766,-16.42357 0,-15.49906 -0.0261,-16.41855 -0.46302,-16.33442 -0.43412,0.0836 -0.46727,1.10849 -0.53118,16.42357 -0.0435,10.42809 -0.16179,16.33442 -0.32708,16.33442 -0.14239,0 -1.42141,-1.07007 -2.84225,-2.37794 -1.42084,-1.30787 -2.67264,-2.37943 -2.78178,-2.38125 -0.10914,-0.002 -0.19844,7.31201 -0.19844,16.25295 0,8.94094 -0.10201,16.31931 -0.22669,16.39636 -0.12468,0.0771 -1.40234,-0.92794 -2.83923,-2.23334 -1.4369,-1.3054 -2.70319,-2.37345 -2.814,-2.37345 -0.1108,0 -0.23213,7.35211 -0.26962,16.33802 -0.0597,14.31601 -0.11728,16.33803 -0.46504,16.33803 -0.34776,0 -0.40531,-2.02202 -0.46504,-16.33803 -0.0375,-8.98591 -0.16804,-16.33802 -0.29012,-16.33802 -0.12208,0 -1.38682,1.06902 -2.81054,2.37559 -1.42372,1.30657 -2.69215,2.31157 -2.81873,2.23334 -0.12658,-0.0782 -0.23015,-7.45756 -0.23015,-16.3985 0,-8.94094 -0.0893,-16.25477 -0.19844,-16.25295 -0.10914,0.002 -1.36486,1.07697 -2.79048,2.38923 -1.42562,1.31226 -2.70554,2.31577 -2.84427,2.23004 -0.15549,-0.0961 -0.25223,-6.39071 -0.25223,-16.41215 0,-16.07987 -0.006,-16.25626 -0.52917,-16.25626 -0.52347,0 -0.52916,0.17639 -0.52916,16.40416 0,10.65498 -0.0918,16.40417 -0.26208,16.40417 -0.14414,0 -1.42152,-1.07156 -2.83862,-2.38125 -1.4171,-1.30969 -2.66838,-2.38125 -2.78063,-2.38125 -0.11225,0 -0.20409,7.31532 -0.20409,16.25626 0,8.94094 -0.10201,16.31931 -0.22669,16.39636 -0.12468,0.0771 -1.40234,-0.92794 -2.83923,-2.23334 -1.4369,-1.3054 -2.7032,-2.37345 -2.814,-2.37345 -0.1108,0 -0.23213,7.35211 -0.26962,16.33802 -0.0597,14.31601 -0.11729,16.33803 -0.46504,16.33803 -0.34776,0 -0.40531,-2.02202 -0.46504,-16.33803 -0.0375,-8.98591 -0.15882,-16.33802 -0.26963,-16.33802 -0.1108,0 -1.3771,1.06805 -2.81399,2.37345 -1.4369,1.3054 -2.71455,2.3104 -2.83923,2.23334 -0.12468,-0.077 -0.2267,-7.45542 -0.2267,-16.39636 0,-8.94094 -0.0893,-16.25477 -0.19843,-16.25295 -0.10914,0.002 -1.36095,1.07338 -2.78179,2.38125 -1.42083,1.30787 -2.69985,2.37794 -2.84225,2.37794 -0.16529,0 -0.28355,-5.90758 -0.32707,-16.33802 -0.0597,-14.316 -0.11728,-16.33802 -0.46504,-16.33802 -0.34769,0 -0.40533,1.99875 -0.46509,16.12842 -0.0375,8.87064 -0.17315,16.23336 -0.30139,16.3616 -0.13451,0.13451 -1.33715,-0.78299 -2.8422,-2.16834 -1.43497,-1.32084 -2.69833,-2.40301 -2.80747,-2.40483 -0.10914,-0.002 -0.19843,7.31201 -0.19843,16.25295 0,8.94094 -0.10202,16.31931 -0.2267,16.39636 -0.12468,0.0771 -1.40233,-0.92794 -2.83923,-2.23334 -1.43689,-1.3054 -2.70319,-2.37345 -2.81399,-2.37345 -0.11081,0 -0.23214,7.35211 -0.26963,16.33802 -0.0597,14.31601 -0.11728,16.33803 -0.46504,16.33803 -0.34775,0 -0.40531,-2.02202 -0.46504,-16.33803 -0.0375,-8.98591 -0.15882,-16.33802 -0.26962,-16.33802 -0.1108,0 -1.3771,1.06805 -2.814,2.37345 -1.43689,1.3054 -2.71455,2.3104 -2.83923,2.23334 -0.12468,-0.077 -0.22669,-7.45542 -0.22669,-16.39636 0,-8.94094 -0.0893,-16.25477 -0.19844,-16.25295 -0.10914,0.002 -1.36485,1.07697 -2.79047,2.38923 -1.42562,1.31226 -2.70555,2.31577 -2.84427,2.23004 -0.1555,-0.0961 -0.25224,-6.39071 -0.25224,-16.41215 0,-16.07987 -0.006,-16.25626 -0.52916,-16.25626 -0.52348,0 -0.52917,0.17639 -0.52917,16.40416 0,11.63699 -0.0836,16.40417 -0.28766,16.40417 -0.15821,0 -1.43694,-1.07156 -2.84163,-2.38125 -1.40469,-1.30969 -2.64446,-2.38125 -2.75505,-2.38125 -0.11059,0 -0.20108,7.31532 -0.20108,16.25626 0,8.94094 -0.10201,16.31931 -0.22669,16.39636 -0.12468,0.0771 -1.40233,-0.92794 -2.83923,-2.23334 -1.4369,-1.3054 -2.7032,-2.37345 -2.814,-2.37345 -0.1108,0 -0.23213,7.3422 -0.26962,16.316 -0.0656,15.70899 -0.13007,17.0037 -0.81231,16.32146 z m 0,-67.20417 c -0.10004,-0.10004 -0.1819,-7.4844 -0.1819,-16.40968 0,-8.92527 -0.10079,-16.22777 -0.22397,-16.22777 -0.12319,0 -1.38884,1.06901 -2.81256,2.37558 -1.42372,1.30657 -2.69215,2.31158 -2.81873,2.23334 C 13.35193,32.84188 13.24837,25.403 13.24837,16.38929 V 7.4e-4 h 3.04035 3.04034 l 0.0685,13.82448 c 0.0599,12.08159 0.11854,13.82448 0.46538,13.82448 0.34684,0 0.40551,-1.74289 0.46538,-13.82448 L 20.39682,7.4e-4 h 3.04034 3.04035 v 16.38855 c 0,9.01371 -0.10201,16.4516 -0.22669,16.52866 -0.12468,0.0771 -1.40233,-0.92795 -2.83923,-2.23335 -1.4369,-1.30539 -2.7032,-2.37344 -2.814,-2.37344 -0.1108,0 -0.23213,7.34219 -0.26962,16.31599 -0.0656,15.709 -0.13007,17.0037 -0.81231,16.32146 z m 26.45834,0 c -0.10005,-0.10004 -0.1819,-7.4844 -0.1819,-16.40968 0,-8.92527 -0.0916,-16.22777 -0.20348,-16.22777 -0.11191,0 -1.37912,1.06805 -2.81602,2.37344 C 41.33573,31.99 40.05807,32.995 39.93339,32.91795 39.80871,32.84085 39.7067,25.403 39.7067,16.38929 V 7.4e-4 h 3.04035 3.04035 l 0.0685,13.82448 c 0.0599,12.08159 0.11854,13.82448 0.46538,13.82448 0.34684,0 0.40551,-1.74289 0.46538,-13.82448 L 46.85516,7.4e-4 h 3.04035 3.04035 v 16.38855 c 0,9.01371 -0.10202,16.4516 -0.2267,16.52866 -0.12468,0.0771 -1.40233,-0.92795 -2.83923,-2.23335 -1.43689,-1.30539 -2.70319,-2.37344 -2.81399,-2.37344 -0.11081,0 -0.23214,7.34219 -0.26963,16.31599 -0.0656,15.709 -0.13006,17.0037 -0.8123,16.32146 z m 26.45833,0 c -0.10005,-0.10004 -0.1819,-7.4844 -0.1819,-16.40968 0,-8.92527 -0.10079,-16.22777 -0.22398,-16.22777 -0.12319,0 -1.38884,1.06901 -2.81256,2.37558 -1.42371,1.30657 -2.69214,2.31158 -2.81873,2.23334 C 66.2686,32.84188 66.16503,25.403 66.16503,16.38929 V 7.4e-4 h 3.04035 3.04035 l 0.0685,13.82089 c 0.064,12.92105 0.0986,13.82669 0.53152,13.91002 0.43623,0.084 0.46302,-0.71567 0.46302,-13.82088 V 7.4e-4 h 3.04271 3.04271 v 16.38855 c 0,9.01371 -0.10201,16.4516 -0.22669,16.52866 -0.12468,0.0771 -1.40234,-0.92795 -2.83923,-2.23335 -1.4369,-1.30539 -2.7032,-2.37344 -2.814,-2.37344 -0.1108,0 -0.23213,7.34219 -0.26962,16.31599 -0.0656,15.709 -0.13007,17.0037 -0.81231,16.32146 z m 26.45833,0 c -0.10004,-0.10004 -0.1819,-7.4844 -0.1819,-16.40968 0,-8.92527 -0.10079,-16.22777 -0.22397,-16.22777 -0.12319,0 -1.38884,1.06901 -2.81256,2.37558 -1.42372,1.30657 -2.69215,2.31158 -2.81873,2.23334 C 92.72694,32.84188 92.62337,25.403 92.62337,16.38929 V 7.4e-4 h 3.0427 3.04271 v 13.91003 c 0,13.10521 0.0268,13.90486 0.46302,13.82088 0.43288,-0.0833 0.46749,-0.98897 0.53153,-13.91002 L 99.77183,7.4e-4 h 3.04035 3.04034 v 16.38855 c 0,9.53127 -0.1005,16.45067 -0.2402,16.53701 -0.13211,0.0816 -1.40605,-0.92336 -2.83098,-2.23335 -1.42493,-1.30998 -2.68516,-2.38179 -2.80049,-2.38179 -0.11534,0 -0.24038,7.34219 -0.27787,16.31599 -0.0656,15.709 -0.13006,17.0037 -0.81231,16.32146 z m 26.45834,0 c -0.10005,-0.10004 -0.1819,-7.4844 -0.1819,-16.40968 0,-8.92527 -0.10079,-16.22777 -0.22398,-16.22777 -0.12319,0 -1.38884,1.06901 -2.81256,2.37558 -1.42372,1.30657 -2.69215,2.31158 -2.81873,2.23334 -0.12658,-0.0782 -0.23015,-7.51708 -0.23015,-16.53079 V 7.4e-4 h 3.04035 3.04035 l 0.0685,13.82448 c 0.0599,12.08159 0.11854,13.82448 0.46538,13.82448 0.34684,0 0.40551,-1.74289 0.46538,-13.82448 l 0.0685,-13.82448 h 3.04036 3.04035 v 16.38855 c 0,9.01371 -0.10202,16.4516 -0.2267,16.52866 -0.12468,0.0771 -1.40233,-0.92795 -2.83923,-2.23335 -1.4369,-1.30539 -2.7032,-2.37344 -2.814,-2.37344 -0.11081,0 -0.23214,7.34219 -0.26963,16.31599 -0.0656,15.709 -0.13006,17.0037 -0.8123,16.32146 z m 26.45834,0 c -0.10004,-0.10004 -0.1819,-7.4844 -0.1819,-16.40968 0,-8.92527 -0.0916,-16.22777 -0.20348,-16.22777 -0.11191,0 -1.37912,1.06805 -2.81601,2.37344 -1.4369,1.3054 -2.71455,2.3104 -2.83923,2.23335 -0.12468,-0.0771 -0.2267,-7.51495 -0.2267,-16.52866 V 7.4e-4 h 3.04035 3.04035 l 0.0685,13.82448 c 0.0599,12.08159 0.11854,13.82448 0.46538,13.82448 0.34684,0 0.40551,-1.74289 0.46538,-13.82448 L 152.6885,7.4e-4 h 3.04035 3.04035 v 16.38855 c 0,9.01371 -0.10201,16.4516 -0.22669,16.52866 -0.12468,0.0771 -1.40234,-0.92795 -2.83923,-2.23335 -1.4369,-1.30539 -2.7032,-2.37344 -2.814,-2.37344 -0.1108,0 -0.23213,7.34219 -0.26962,16.31599 -0.0656,15.709 -0.13007,17.0037 -0.81231,16.32146 z m 26.45833,0 c -0.10004,-0.10004 -0.1819,-7.4844 -0.1819,-16.40968 0,-8.92527 -0.10079,-16.22777 -0.22397,-16.22777 -0.12319,0 -1.38884,1.06901 -2.81256,2.37558 -1.42372,1.30657 -2.69215,2.31158 -2.81873,2.23334 -0.12658,-0.0782 -0.23015,-7.51708 -0.23015,-16.53079 V 7.4e-4 h 3.04034 3.04035 l 0.0685,13.82089 c 0.064,12.92105 0.0987,13.82669 0.53153,13.91002 0.43623,0.084 0.46302,-0.71567 0.46302,-13.82088 V 7.4e-4 h 3.0427 3.04271 v 16.38855 c 0,9.01371 -0.10201,16.4516 -0.22669,16.52866 -0.12468,0.0771 -1.40234,-0.92795 -2.83923,-2.23335 -1.4369,-1.30539 -2.70319,-2.37344 -2.814,-2.37344 -0.1108,0 -0.23213,7.34219 -0.26962,16.31599 -0.0656,15.709 -0.13006,17.0037 -0.81231,16.32146 z m 26.45834,0 c -0.10005,-0.10004 -0.1819,-7.4844 -0.1819,-16.40968 0,-8.92527 -0.10079,-16.22777 -0.22398,-16.22777 -0.12319,0 -1.38884,1.06901 -2.81256,2.37558 -1.42372,1.30657 -2.69215,2.31158 -2.81873,2.23334 -0.12658,-0.0782 -0.23015,-7.51708 -0.23015,-16.53079 V 7.4e-4 h 3.04271 3.04271 v 13.91003 c 0,13.10521 0.0268,13.90486 0.46302,13.82088 0.43287,-0.0833 0.46748,-0.98897 0.53152,-13.91002 l 0.0685,-13.82089 h 3.04035 3.04035 v 16.38855 c 0,9.53127 -0.10051,16.45067 -0.24021,16.53701 -0.1321,0.0816 -1.40605,-0.92336 -2.83098,-2.23335 -1.42493,-1.30998 -2.68515,-2.38179 -2.80049,-2.38179 -0.11534,0 -0.24038,7.34219 -0.27787,16.31599 -0.0656,15.709 -0.13006,17.0037 -0.8123,16.32146 z m 26.45833,0 c -0.10004,-0.10004 -0.1819,-7.4844 -0.1819,-16.40968 0,-8.92527 -0.10079,-16.22777 -0.22398,-16.22777 -0.12319,0 -1.38884,1.06901 -2.81256,2.37558 -1.42371,1.30657 -2.69214,2.31158 -2.81873,2.23334 -0.12658,-0.0782 -0.23015,-7.51708 -0.23015,-16.53079 V 7.4e-4 h 3.04035 3.04035 l 0.0685,13.82448 c 0.0599,12.08159 0.11854,13.82448 0.46538,13.82448 0.34684,0 0.40551,-1.74289 0.46538,-13.82448 L 232.0635,7.4e-4 h 3.04035 3.04035 v 16.38855 c 0,9.01371 -0.10201,16.4516 -0.22669,16.52866 -0.12468,0.0771 -1.40234,-0.92795 -2.83923,-2.23335 -1.4369,-1.30539 -2.7032,-2.37344 -2.814,-2.37344 -0.1108,0 -0.23213,7.34219 -0.26962,16.31599 -0.0656,15.709 -0.13007,17.0037 -0.81231,16.32146 z m 26.45833,0 c -0.10004,-0.10004 -0.1819,-7.4844 -0.1819,-16.40968 0,-8.92527 -0.0916,-16.22777 -0.20347,-16.22777 -0.11192,0 -1.37912,1.06805 -2.81602,2.37344 -1.43689,1.3054 -2.71455,2.3104 -2.83923,2.23335 -0.12468,-0.0771 -0.22669,-7.51495 -0.22669,-16.52866 V 7.4e-4 h 3.04034 3.04035 l 0.0685,13.82448 c 0.0599,12.08159 0.11854,13.82448 0.46538,13.82448 0.34684,0 0.40551,-1.74289 0.46538,-13.82448 l 0.0685,-13.82448 h 3.04035 3.04034 v 16.38855 c 0,9.01371 -0.10201,16.4516 -0.22669,16.52866 -0.12468,0.0771 -1.40234,-0.92795 -2.83923,-2.23335 -1.4369,-1.30539 -2.70319,-2.37344 -2.814,-2.37344 -0.1108,0 -0.23213,7.34219 -0.26962,16.31599 -0.0656,15.709 -0.13006,17.0037 -0.81231,16.32146 z m 26.45834,0 c -0.10004,-0.10004 -0.1819,-7.4844 -0.1819,-16.40968 0,-8.92527 -0.10078,-16.22777 -0.22397,-16.22777 -0.12319,0 -1.38885,1.06901 -2.81258,2.37558 -1.42372,1.30657 -2.69213,2.31158 -2.81871,2.23334 -0.1266,-0.0782 -0.23016,-7.51708 -0.23016,-16.53079 V 7.4e-4 h 3.04035 3.04036 l 0.0685,13.82089 c 0.064,12.92105 0.0986,13.82669 0.53152,13.91002 0.43622,0.084 0.46302,-0.71567 0.46302,-13.82088 V 7.4e-4 h 3.04271 3.04271 v 16.38855 c 0,9.01371 -0.10203,16.4516 -0.2267,16.52866 -0.12467,0.0771 -1.40234,-0.92795 -2.83922,-2.23335 -1.43689,-1.30539 -2.70319,-2.37344 -2.814,-2.37344 -0.11081,0 -0.23214,7.34219 -0.26964,16.31599 -0.0656,15.709 -0.13006,17.0037 -0.81229,16.32146 z m 26.45833,0 c -0.10004,-0.10004 -0.1819,-7.4844 -0.1819,-16.40968 0,-8.92527 -0.10078,-16.22777 -0.22397,-16.22777 -0.12319,0 -1.38885,1.06901 -2.81257,2.37558 -1.42373,1.30657 -2.69214,2.31158 -2.81872,2.23334 -0.1266,-0.0782 -0.23016,-7.51708 -0.23016,-16.53079 V 7.4e-4 h 3.04271 3.04271 v 13.91003 c 0,13.10521 0.0268,13.90486 0.46302,13.82088 0.43289,-0.0833 0.46749,-0.98897 0.53152,-13.91002 L 311.4385,7.4e-4 h 3.04036 3.04035 V 16.7105 33.42026 l -0.59177,-0.50403 c -0.32549,-0.27722 -1.59313,-1.42677 -2.81702,-2.55455 -1.22388,-1.12779 -2.32589,-2.05052 -2.44893,-2.05052 -0.123,0 -0.25434,7.34219 -0.29183,16.31599 -0.0656,15.709 -0.13007,17.0037 -0.8123,16.32146 z M 2.79732,2.50286 0.15149,0.004 3.12805,0.002 6.10462,0 v 2.51354 c 0,1.84141 -0.0884,2.51005 -0.33073,2.50049 C 5.59199,5.00703 4.25253,3.87649 2.79732,2.50212 Z m 4.36563,0.0114 V 7.2e-4 l 2.97656,0.002 2.97656,0.002 -2.64583,2.49886 C 9.01503,3.87795 7.67558,5.00831 7.49368,5.01549 7.25139,5.02549 7.16295,4.35641 7.16295,2.515 Z m 22.23133,0.0861 C 27.93559,1.26527 26.74212,0.13418 26.74212,0.08681 c 0,-0.0474 1.30968,-0.0861 2.91041,-0.0861 h 2.91042 v 2.51354 c 0,1.45821 -0.10843,2.51354 -0.25825,2.51354 -0.14204,0 -1.45173,-1.09234 -2.91042,-2.42742 z m 4.227,-0.0861 V 7.2e-4 h 2.91042 c 1.60073,0 2.91042,0.0387 2.91042,0.0861 0,0.20656 -5.33004,4.94097 -5.56259,4.94097 -0.14982,0 -0.25825,-1.05533 -0.25825,-2.51354 z M 55.72247,2.50106 53.08513,7.3e-4 h 2.96807 2.96808 v 2.51354 c 0,1.84149 -0.0884,2.51001 -0.33073,2.50033 -0.1819,-0.007 -1.51753,-1.13836 -2.96808,-2.51354 z m 4.35715,0.0132 V 7.2e-4 l 2.97656,0.002 2.97656,0.002 -2.64583,2.49886 C 61.9317,3.87795 60.59225,5.00831 60.41035,5.01549 60.16806,5.02549 60.07962,4.35641 60.07962,2.515 Z M 82.17233,2.50286 79.52649,0.004 82.50305,0.002 85.47962,0 v 2.51354 c 0,1.84141 -0.0884,2.51005 -0.33073,2.50049 -0.1819,-0.007 -1.52136,-1.13754 -2.97656,-2.51191 z m 4.36562,0.0114 V 7.2e-4 h 2.91042 c 1.60073,0 2.91041,0.0387 2.91041,0.0861 0,0.20656 -5.33004,4.94097 -5.56258,4.94097 -0.14982,0 -0.25825,-1.05533 -0.25825,-2.51354 z M 108.63066,2.50286 105.98483,0.004 108.96139,0.002 111.93795,0 v 2.51354 c 0,1.84141 -0.0884,2.51005 -0.33073,2.50049 -0.1819,-0.007 -1.52135,-1.13754 -2.97656,-2.51191 z m 4.36562,0.0114 V 7.2e-4 l 2.97657,0.002 2.97656,0.002 -2.64584,2.49886 c -1.4552,1.37437 -2.79466,2.50473 -2.97656,2.51191 -0.24229,0.01 -0.33073,-0.65908 -0.33073,-2.50049 z m 22.23135,0.0861 c -1.4587,-1.33509 -2.65217,-2.46618 -2.65217,-2.51355 0,-0.0474 1.30969,-0.0861 2.91042,-0.0861 h 2.91041 v 2.51354 c 0,1.45821 -0.10843,2.51354 -0.25825,2.51354 -0.14203,0 -1.45172,-1.09234 -2.91041,-2.42742 z m 4.227,-0.0861 V 7.2e-4 h 2.91041 c 1.60073,0 2.91042,0.0387 2.91042,0.0861 0,0.20656 -5.33004,4.94097 -5.56258,4.94097 -0.14982,0 -0.25825,-1.05533 -0.25825,-2.51354 z m 22.10119,-0.0132 -2.63735,-2.50033 h 2.96808 2.96808 v 2.51354 c 0,1.84149 -0.0884,2.51001 -0.33073,2.50033 -0.1819,-0.007 -1.51754,-1.13836 -2.96808,-2.51354 z m 4.35714,0.0132 V 7.2e-4 l 2.97656,0.002 2.97657,0.002 -2.64584,2.49886 c -1.45521,1.37437 -2.79466,2.50473 -2.97656,2.51191 -0.24229,0.01 -0.33073,-0.65908 -0.33073,-2.50049 z M 188.00567,2.50286 185.35984,0.004 188.3364,0.002 191.31296,0 v 2.51354 c 0,1.84141 -0.0884,2.51005 -0.33073,2.50049 -0.1819,-0.007 -1.52135,-1.13754 -2.97656,-2.51191 z m 4.36562,0.0114 V 7.2e-4 h 2.91042 c 1.60073,0 2.91042,0.0387 2.91042,0.0861 0,0.20656 -5.33004,4.94097 -5.56259,4.94097 -0.14982,0 -0.25825,-1.05533 -0.25825,-2.51354 z M 214.464,2.50286 211.81817,0.004 214.79473,0.002 217.77129,0 v 2.51354 c 0,1.84141 -0.0884,2.51005 -0.33073,2.50049 -0.1819,-0.007 -1.52135,-1.13754 -2.97656,-2.51191 z m 4.36563,0.0114 V 7.2e-4 l 2.97656,0.002 2.97656,0.002 -2.64583,2.49886 c -1.45521,1.37437 -2.79466,2.50473 -2.97656,2.51191 -0.24229,0.01 -0.33073,-0.65908 -0.33073,-2.50049 z m 22.23133,0.0861 c -1.45869,-1.33509 -2.65217,-2.46618 -2.65217,-2.51355 0,-0.0474 1.30969,-0.0861 2.91042,-0.0861 h 2.91042 v 2.51354 c 0,1.45821 -0.10843,2.51354 -0.25825,2.51354 -0.14204,0 -1.45173,-1.09234 -2.91042,-2.42742 z m 4.227,-0.0861 V 7.2e-4 h 2.91042 c 1.60073,0 2.91041,0.0387 2.91041,0.0861 0,0.20656 -5.33004,4.94097 -5.56258,4.94097 -0.14982,0 -0.25825,-1.05533 -0.25825,-2.51354 z m 22.1012,-0.0132 -2.63737,-2.50033 h 2.9681 2.96807 v 2.51354 c 0,1.84149 -0.0884,2.51001 -0.33073,2.50033 -0.1819,-0.007 -1.51754,-1.13836 -2.96807,-2.51354 z m 4.35713,0.0132 V 7.2e-4 l 2.97657,0.002 2.97656,0.002 -2.64583,2.49886 c -1.45521,1.37437 -2.79467,2.50473 -2.97657,2.51191 -0.24228,0.01 -0.33073,-0.65908 -0.33073,-2.50049 z M 293.839,2.50286 291.19317,0.004 294.16973,0.002 297.14629,0 v 2.51354 c 0,1.84141 -0.0885,2.51005 -0.33073,2.50049 -0.1819,-0.007 -1.52135,-1.13754 -2.97656,-2.51191 z m 4.36563,0.0114 V 7.2e-4 h 2.91041 c 1.60073,0 2.91042,0.0387 2.91042,0.0861 0,0.20656 -5.33003,4.94097 -5.56257,4.94097 -0.14984,0 -0.25826,-1.05533 -0.25826,-2.51354 z"
     id="path2234" />
</svg>
