<?xml version="1.0" encoding="UTF-8" standalone="no"?>
<!-- Created with Inkscape (http://www.inkscape.org/) -->

<svg
   width="317.5192mm"
   height="138.13425mm"
   viewBox="0 0 317.5192 138.13425"
   version="1.1"
   id="svg5"
   xmlns="http://www.w3.org/2000/svg"
   xmlns:svg="http://www.w3.org/2000/svg">
  <defs
     id="defs2" />
  <path
     style="fill:#e10000;fill-opacity:1;stroke:none;stroke-width:1"
     d="M 18.63253,3.3333333e-6 25.77628,12.964583 h 0.26459 V 3.3333333e-6 h -7.40834 m 8.46667,0 V 12.964583 h 0.26458 L 34.50753,3.3333333e-6 H 27.0992 m 44.45,0 L 78.69295,12.964583 h 0.26458 V 3.3333333e-6 H 71.5492 m 8.46667,0 V 12.964583 h 0.26458 L 87.4242,3.3333333e-6 h -7.40833 m 44.45,0 L 131.60962,12.964583 h 0.26458 V 3.3333333e-6 h -7.40833 m 8.46666,0 V 12.964583 h 0.26459 L 140.34088,3.3333333e-6 h -7.40835 m 44.45001,0 L 184.52629,12.964583 h 0.26459 V 3.3333333e-6 h -7.40834 m 8.46667,0 V 12.964583 h 0.26458 L 193.25754,3.3333333e-6 h -7.40833 m 44.45,0 L 237.44296,12.964583 h 0.26458 V 3.3333333e-6 h -7.40833 m 8.46667,0 V 12.964583 h 0.26458 L 246.17421,3.3333333e-6 h -7.40833 m 44.45,0 L 290.35963,12.964583 h 0.26458 V 3.3333333e-6 h -7.40833 m 8.46666,0 V 12.964583 h 0.26459 L 299.09088,3.3333333e-6 h -7.40834 M 2.49295,0.52917333 v 0.26458 L 24.71795,13.493753 19.42914,3.9687533 17.20651,0.68881333 12.8117,0.52917333 H 2.49295 M 28.42212,13.493753 50.64712,0.79375333 c -2.90513,-1.21905 -7.95232,-0.26458 -11.1125,-0.26458 -1.04855,0 -2.89693,-0.35186 -3.80101,0.27193 -1.04748,0.72289997 -1.70603,2.61363997 -2.3241,3.69681997 -1.66026,2.90835 -3.84095,5.8464697 -4.98739,8.9958297 M 55.40962,0.52917333 v 0.26458 L 77.63462,13.493753 72.34295,3.9687533 70.1231,0.68881333 65.72837,0.52917333 H 55.40962 M 81.33878,13.493753 95.62628,5.3659933 103.2992,0.52917333 H 93.24503 l -4.39473,0.15964 -2.21985,3.27993997 -5.29167,9.5249997 m 26.9875,-12.96457967 v 0.26458 l 22.225,12.69999967 -5.28875,-9.5249997 -2.22277,-3.27993997 -4.39473,-0.15964 h -10.31875 m 25.92918,12.96457967 22.225,-12.69999967 c -2.90513,-1.21905 -7.95232,-0.26458 -11.1125,-0.26458 -1.04854,0 -2.89692,-0.35184 -3.801,0.27193 -1.04749,0.72291997 -1.70604,2.61360997 -2.3241,3.69681997 -1.66026,2.90835 -3.84096,5.8464897 -4.9874,8.9958297 m 26.9875,-12.96457967 v 0.26458 l 22.225,12.69999967 -5.29167,-9.5249997 -2.21985,-3.27993997 -4.39473,-0.15964 h -10.31875 m 25.92917,12.96457967 14.2875,-8.1277597 7.67291,-4.83681997 h -10.05416 l -4.39473,0.15964 -2.21986,3.27993997 -5.29166,9.5249997 m 26.9875,-12.96457967 v 0.26458 l 22.225,12.69999967 -5.28876,-9.5249997 -2.22276,-3.27993997 -4.39473,-0.15964 h -10.31875 m 25.92916,12.96457967 22.225,-12.69999967 c -2.90512,-1.21905 -7.95231,-0.26458 -11.1125,-0.26458 -1.04854,0 -2.89718,-0.35184 -3.801,0.27193 -1.04749,0.72289997 -1.70603,2.61360997 -2.3241,3.69681997 -1.66026,2.90835 -3.84096,5.8464897 -4.9874,8.9958297 m 26.9875,-12.96457967 v 0.26458 l 22.225,12.69999967 -5.29166,-9.5249997 -2.21986,-3.27993997 -4.39473,-0.15964 h -10.31875 m 25.92917,12.96457967 14.2875,-8.1277597 7.67292,-4.83681997 h -10.05417 l -4.39473,0.15964 -2.21985,3.27993997 -5.29167,9.5249997 M 1.96378,1.8520833 l 5.13938,9.2604197 2.32531,3.43223 4.44156,0.27194 h 10.31875 v -0.26459 C 17.12271,10.226653 9.60455,5.0500533 1.96378,1.8520833 m 48.94792,0 -21.96042,12.6999997 v 0.26459 h 10.31875 c 1.25836,0 3.32185,0.38774 4.44156,-0.27194 1.98623,-1.17007 3.46525,-5.4235397 4.59396,-7.4009797 0.84244,-1.47579 2.62308,-3.56679 2.60615,-5.29167 m 3.96875,0 5.13927,9.2604197 2.32542,3.43223 4.44156,0.27194 h 10.31875 v -0.26459 C 70.03393,10.223373 62.5285,5.0531233 54.88045,1.8520833 m 48.94792,0 -21.96042,12.6999997 v 0.26459 H 92.1867 c 1.25836,0 3.32184,0.38774 4.44156,-0.27194 1.90394,-1.12157 3.35439,-5.2380397 4.44288,-7.1363997 0.84164,-1.46806 2.91968,-3.84251 2.75723,-5.55625 m 3.96875,0 5.13926,9.2604197 2.32543,3.43223 4.44156,0.27194 h 10.31875 v -0.26459 c -7.06597,-4.32546 -14.58437,-9.5020297 -22.225,-12.6999997 m 48.94792,0 -21.96041,12.6999997 v 0.26459 h 10.31875 c 1.25836,0 3.32184,0.38774 4.44156,-0.27194 1.98622,-1.17007 3.46525,-5.4235397 4.59396,-7.4009797 0.84243,-1.47582 2.62308,-3.56679 2.60614,-5.29167 m 3.96875,0 5.13927,9.2604197 2.32542,3.43223 4.44156,0.27194 h 10.31875 v -0.26459 c -7.07152,-4.32874 -14.57695,-9.4989397 -22.225,-12.6999997 m 48.94792,0 -21.96042,12.6999997 v 0.26459 h 10.31875 c 1.25836,0 3.32185,0.38774 4.44156,-0.27194 1.90395,-1.1216 3.35439,-5.2380397 4.44289,-7.1363997 0.84164,-1.46806 2.91967,-3.84251 2.75722,-5.55625 m 3.96875,0 5.13927,9.2604197 2.32542,3.43223 4.44156,0.27194 h 10.31875 v -0.26459 C 228.7895,10.226603 221.2711,5.0500833 213.63046,1.8520833 m 48.94792,0 -21.96042,12.6999997 v 0.26459 h 10.31875 c 1.25836,0 3.32184,0.38777 4.44156,-0.27194 1.98623,-1.1701 3.46525,-5.4235397 4.59396,-7.4009797 0.84243,-1.47582 2.62308,-3.56679 2.60615,-5.29167 m 3.96875,0 5.13821,9.2604197 2.32568,3.43223 4.44236,0.27194 h 10.31875 v -0.26459 c -7.07232,-4.32871 -14.5759,-9.4989397 -22.225,-12.6999997 m 48.94791,0 -21.96041,12.6999997 v 0.26459 h 10.31875 c 1.25941,0 3.32052,0.38774 4.44235,-0.27194 1.90236,-1.1216 3.35492,-5.2380097 4.44236,-7.1363997 0.84137,-1.46809 2.91835,-3.84251 2.75695,-5.55625 M 0.64087,2.3812533 V 28.310423 h 0.26458 l 5.1014,-8.99584 1.91046,-3.70416 -1.66998,-3.96875 -5.60646,-9.2604197 m 51.59375,0 -5.18028,8.9958297 -1.92723,3.96875 2.00608,3.96875 5.10143,8.99584 H 52.4992 V 10.318753 L 52.23462,2.3812533 m 1.32291,0 V 28.310423 h 0.26459 l 5.10143,-8.99584 1.97776,-3.70416 -1.59729,-3.70417 -5.74649,-9.5249997 m 51.59375,0 -5.02999,8.7312497 -2.00078,4.23333 1.92934,3.96875 5.10143,8.99584 h 0.26459 v -17.99167 l -0.26459,-7.9374997 m 1.32292,0 V 28.310423 h 0.26458 l 5.10143,-8.99584 1.91056,-3.70416 -1.67005,-3.96875 -5.60652,-9.2604197 m 51.59376,0 -5.18028,8.9958297 -1.92722,3.96875 2.00607,3.96875 5.10143,8.99584 h 0.26458 v -17.99167 l -0.26458,-7.9374997 m 1.32292,0 V 28.310423 h 0.26458 l 5.10143,-8.99584 1.97776,-3.70416 -1.59729,-3.70417 -5.74648,-9.5249997 m 51.59375,0 -5.03,8.7312497 -2.00078,4.23333 1.92935,3.96875 5.10143,8.99584 h 0.26458 v -17.99167 l -0.26458,-7.9374997 m 1.32291,0 V 28.310423 h 0.26459 l 5.10143,-8.99584 1.91055,-3.70416 -1.67005,-3.96875 -5.60652,-9.2604197 m 51.59375,0 -5.18027,8.9958297 -1.92723,3.96875 2.00607,3.96875 5.10143,8.99584 h 0.26459 v -17.99167 l -0.26459,-7.9374997 m 1.32292,0 V 28.310423 h 0.26458 l 5.10117,-8.99584 1.97908,-3.70416 -1.59808,-3.70417 -5.74675,-9.5249997 m 51.59375,0 -5.02973,8.7312497 -2.00025,4.23333 1.92881,3.96875 5.10117,8.99584 h 0.26458 V 10.318753 L 316.81796,2.3812533 M 1.96378,28.839583 l 22.225,-12.7 c -2.9051,-1.21904 -7.95231,-0.26458 -11.1125,-0.26458 -1.06108,0 -2.88679,-0.34695 -3.80746,0.27194 -1.07241,0.72086 -1.72892,2.60043 -2.35227,3.69681 -1.63169,2.86994 -3.95521,5.84348 -4.95277,8.99583 m 26.9875,-12.96458 v 0.26458 l 22.225,12.7 -5.25198,-9.525 -2.25663,-3.27993 -4.39764,-0.15965 H 28.95128 m 25.92917,12.96458 22.225,-12.7 c -2.90513,-1.21904 -7.95232,-0.26458 -11.1125,-0.26458 -1.06098,0 -2.88687,-0.34695 -3.80735,0.27194 -1.07342,0.72139 -1.72773,2.6003 -2.35241,3.69681 -1.63513,2.87009 -3.9542,5.84007 -4.95274,8.99583 m 26.9875,-12.96458 v 0.26458 l 22.225,12.7 -5.25198,-9.525 -2.25663,-3.27993 -4.39764,-0.15965 H 81.86795 m 25.92917,12.96458 22.225,-12.7 c -2.90513,-1.21904 -7.95232,-0.26458 -11.1125,-0.26458 -1.06098,0 -2.88687,-0.34695 -3.80736,0.27194 -1.07262,0.72086 -1.72905,2.60043 -2.35241,3.69681 -1.63168,2.86994 -3.95525,5.84348 -4.95273,8.99583 m 26.98751,-12.96458 v 0.26458 l 22.225,12.7 -5.25198,-9.525 -2.25663,-3.27993 -4.39764,-0.15965 h -10.31875 m 25.92916,12.96458 22.225,-12.7 c -2.90512,-1.21904 -7.95231,-0.26458 -11.1125,-0.26458 -1.06098,0 -2.88687,-0.34695 -3.80735,0.27194 -1.07315,0.72136 -1.72773,2.6003 -2.35241,3.69681 -1.63513,2.87009 -3.9542,5.84007 -4.95274,8.99583 m 26.9875,-12.96458 v 0.26458 l 22.225,12.7 -5.25198,-9.525 -2.25663,-3.27993 -4.39764,-0.15965 h -10.31875 m 25.92917,12.96458 22.225,-12.7 c -2.90513,-1.21904 -7.95232,-0.26458 -11.1125,-0.26458 -1.06098,0 -2.88687,-0.34695 -3.80735,0.27194 -1.07262,0.72086 -1.72906,2.60043 -2.35241,3.69681 -1.63169,2.86994 -3.95526,5.84346 -4.95274,8.99583 m 26.9875,-12.96458 v 0.26458 l 22.225,12.7 -5.25198,-9.525 -2.25663,-3.27993 -4.39764,-0.15965 h -10.31875 m 25.92917,12.96458 22.225,-12.7 c -2.90513,-1.21901 -7.95338,-0.26458 -11.1125,-0.26458 -1.06098,0 -2.88661,-0.34692 -3.80736,0.27194 -1.07421,0.72136 -1.72773,2.6003 -2.35214,3.69681 -1.63513,2.87004 -3.95552,5.8401 -4.953,8.99583 m 26.9875,-12.96458 v 0.26458 l 22.225,12.7 -5.25198,-9.525 -2.2569,-3.27993 -4.39737,-0.15965 h -10.31875 m -269.08126,1.32292 c -6.85544,4.53628 -14.53251,9.18694 -21.96042,12.7 v 0.26458 H 12.8117 c 1.27439,0 3.30766,0.37994 4.44892,-0.27199 2.01546,-1.15094 3.33144,-5.18348 4.49384,-7.13634 0.87344,-1.46741 2.8058,-3.82474 2.69891,-5.55625 m 3.96875,0 4.94612,8.99583 2.51116,3.69676 4.44897,0.27199 h 10.31875 v -0.26458 l -22.225,-12.7 m 48.94791,0 c -6.84159,4.52715 -14.53144,9.22747 -21.96041,12.7 v 0.26458 h 10.31875 c 1.27449,0 3.30755,0.37994 4.44897,-0.27199 2.0521,-1.17211 3.47715,-5.38874 4.62121,-7.40093 0.80142,-1.4098 2.72706,-3.65053 2.57148,-5.29166 m 3.96875,0 4.94612,8.99583 2.51116,3.69676 4.44897,0.27199 h 10.31875 v -0.26458 l -22.225,-12.7 m 48.94792,0 c -6.85535,4.53628 -14.5325,9.18691 -21.96042,12.7 v 0.26458 h 10.31875 c 1.2745,0 3.30756,0.37994 4.44897,-0.27199 2.01533,-1.15094 3.33137,-5.18348 4.49369,-7.13634 0.87365,-1.46741 2.8059,-3.82471 2.69901,-5.55625 m 3.96876,0 4.94612,8.99583 2.51116,3.69676 4.44897,0.27199 h 10.31875 v -0.26458 l -22.225,-12.7 m 48.94792,0 c -6.8416,4.52718 -14.53145,9.22745 -21.96042,12.7 v 0.26458 h 10.31875 c 1.2745,0 3.30756,0.37994 4.44897,-0.27199 2.05211,-1.17211 3.47715,-5.38872 4.62121,-7.40093 0.80142,-1.4098 2.72706,-3.65056 2.57149,-5.29166 m 3.96875,0 4.94612,8.99583 2.51116,3.69676 4.44897,0.27199 h 10.31875 v -0.26458 l -22.225,-12.7 m 48.94791,0 c -6.85535,4.5363 -14.5325,9.18689 -21.96041,12.7 v 0.26458 h 10.31875 c 1.27449,0 3.30755,0.37994 4.44897,-0.27199 2.01533,-1.15094 3.33136,-5.18348 4.49368,-7.13634 0.87365,-1.46744 2.80591,-3.82471 2.69901,-5.55625 m 3.96875,0 4.94612,8.99583 2.51116,3.69676 4.44897,0.27199 h 10.31875 v -0.26458 l -22.225,-12.7 m 48.94792,0 c -6.84212,4.52715 -14.53092,9.22745 -21.96042,12.7 v 0.26458 h 10.31875 c 1.27529,0 3.3073,0.37994 4.44765,-0.27199 2.05317,-1.17211 3.47927,-5.38872 4.62227,-7.40093 0.80169,-1.4097 2.72785,-3.65066 2.57175,-5.29166 m 3.96875,0 4.94506,8.99583 2.51354,3.69676 4.44765,0.27199 h 10.31875 v -0.26458 l -22.225,-12.7 m -267.22918,0.52916 -5.10794,8.99584 -1.92005,3.96875 1.88862,3.96875 5.13937,8.99583 h 0.26459 v -17.99167 l -0.26459,-7.9375 m 1.32292,0 v 25.92917 h 0.26458 l 4.86754,-8.46667 2.14445,-4.23333 -1.60814,-3.70417 -5.66843,-9.525 m 51.59375,0 -5.10805,8.99584 -1.91981,3.96875 2.00369,4.23333 5.02417,8.73125 h 0.26458 v -17.99167 l -0.26458,-7.9375 m 1.32292,0 v 25.92917 h 0.26458 l 4.86754,-8.46667 2.14445,-4.23333 -1.60814,-3.70417 -5.66843,-9.525 m 51.59375,0 -5.10805,8.99584 -1.91982,3.96875 1.8886,3.96875 5.13927,8.99583 h 0.26458 v -17.99167 l -0.26458,-7.9375 m 1.32291,0 v 25.92917 h 0.26459 l 4.86755,-8.46667 2.14444,-4.23333 -1.60813,-3.70417 -5.66845,-9.525 m 51.59376,0 -5.10804,8.99584 -1.91982,3.96875 2.00369,4.23333 5.02417,8.73125 h 0.26459 v -17.99167 l -0.26459,-7.9375 m 1.32292,0 v 25.92917 h 0.26458 l 4.86754,-8.46667 2.14445,-4.23333 -1.60814,-3.70417 -5.66843,-9.525 m 51.59375,0 -5.10805,8.99584 -1.91981,3.96875 1.88859,3.96875 5.13927,8.99583 h 0.26458 v -17.99167 l -0.26458,-7.9375 m 1.32292,0 v 25.92917 h 0.26458 l 4.86754,-8.46667 2.14445,-4.23333 -1.60814,-3.70417 -5.66843,-9.525 m 51.59375,0 -5.10911,8.99584 -1.91823,3.96875 2.0029,4.23333 5.02444,8.73125 h 0.26458 v -17.99167 l -0.26458,-7.9375 m 1.32291,0 v 25.92917 h 0.26459 l 4.86833,-8.46667 2.14313,-4.23333 -1.60867,-3.70417 -5.66738,-9.525 M 2.49295,31.220833 v 0.26459 c 7.06763,4.32567 14.58362,9.50171 22.225,12.7 l -5.17938,-9.26042 -2.28531,-3.43218 -4.44156,-0.27199 H 2.49295 m 25.92917,12.96459 c 7.64434,-3.19961 15.15533,-8.37327 22.225,-12.7 -2.90513,-1.21894 -7.95232,-0.26459 -11.1125,-0.26459 -1.13374,0 -2.92074,-0.33337 -3.86557,0.42413 -1.12209,0.89958 -1.85525,2.83713 -2.55878,4.07379 -1.55416,2.73209 -3.60812,5.51683 -4.68815,8.46667 m 26.9875,-12.96459 v 0.26459 c 7.07072,4.32752 14.57933,9.49986 22.225,12.7 l -5.13927,-9.26042 -2.32542,-3.43218 -4.44156,-0.27199 H 55.40962 m 25.92916,12.96459 c 7.64143,-3.19829 15.15745,-8.37433 22.225,-12.7 -2.90512,-1.21894 -7.95231,-0.26459 -11.1125,-0.26459 -1.13374,0 -2.92073,-0.33337 -3.86556,0.42413 -1.1221,0.89958 -1.85526,2.83713 -2.55878,4.07379 -1.55417,2.73209 -3.60813,5.51683 -4.68816,8.46667 m 26.9875,-12.96459 v 0.26459 c 7.06755,4.32567 14.58357,9.50171 22.225,12.7 l -5.17948,-9.26042 -2.28521,-3.43218 -4.44156,-0.27199 h -10.31875 m 25.92918,12.96459 c 7.64434,-3.19961 15.15533,-8.37327 22.225,-12.7 -2.90513,-1.21894 -7.95232,-0.26459 -11.1125,-0.26459 -1.13374,0 -2.92074,-0.33337 -3.86556,0.42413 -1.1221,0.89958 -1.85526,2.83713 -2.55879,4.07379 -1.55416,2.73209 -3.60812,5.51683 -4.68815,8.46667 m 26.9875,-12.96459 v 0.26459 c 7.07073,4.32752 14.57934,9.49986 22.225,12.7 l -5.13927,-9.26042 -2.32542,-3.43218 -4.44156,-0.27199 h -10.31875 m 25.92917,12.96459 c 7.64143,-3.19829 15.15745,-8.37433 22.225,-12.7 -2.90513,-1.21894 -7.95232,-0.26459 -11.1125,-0.26459 -1.13374,0 -2.92074,-0.33337 -3.86557,0.42413 -1.12209,0.89958 -1.85525,2.83713 -2.55878,4.07379 -1.55416,2.73209 -3.60812,5.51683 -4.68815,8.46667 m 26.9875,-12.96459 v 0.26459 c 7.06755,4.32567 14.58357,9.50171 22.225,12.7 l -5.17949,-9.26042 -2.2852,-3.43218 -4.44156,-0.27199 h -10.31875 m 25.92916,12.96459 c 7.64434,-3.19961 15.15534,-8.37327 22.225,-12.7 -2.90512,-1.21894 -7.95231,-0.26459 -11.1125,-0.26459 -1.13374,0 -2.92073,-0.33337 -3.86556,0.42413 -1.1221,0.89985 -1.85526,2.83713 -2.55878,4.07379 -1.55417,2.73209 -3.60813,5.51683 -4.68816,8.46667 m 26.9875,-12.96459 v 0.26459 c 7.06967,4.32752 14.57854,9.49986 22.225,12.7 l -5.13821,-9.26042 -2.32568,-3.43218 -4.44236,-0.27199 h -10.31875 m 25.92917,12.96459 c 7.64117,-3.19829 15.15798,-8.37433 22.225,-12.7 -2.90513,-1.21894 -7.95338,-0.26459 -11.1125,-0.26459 -1.13506,0 -2.921,-0.33337 -3.86556,0.42413 -1.12184,0.89958 -1.85473,2.83713 -2.55852,4.07379 -1.55575,2.73209 -3.60892,5.51683 -4.68842,8.46667 M 1.96378,32.543753 l 5.13856,9.26042 2.32531,3.43217 4.44238,0.27199 h 10.31875 v -0.26458 l -22.225,-12.7 m 48.94792,0 -21.96042,12.7 v 0.26458 h 10.31875 c 1.26259,0 3.31708,0.3855 4.44236,-0.27199 1.98226,-1.15808 3.50573,-5.42845 4.62782,-7.40092 0.80169,-1.40944 2.72706,-3.65099 2.57149,-5.29167 m 3.96875,0 4.96596,8.99583 2.49794,3.69676 4.44235,0.27199 h 10.31875 v -0.26458 l -22.225,-12.7 m 48.94792,0 -21.96042,12.7 v 0.26458 H 92.1867 c 1.26259,0 3.31708,0.3855 4.44235,-0.27199 1.98226,-1.15808 3.50573,-5.42845 4.62783,-7.40092 0.80169,-1.40944 2.72706,-3.65099 2.57149,-5.29167 m 3.96875,0 5.13847,9.26042 2.32542,3.43217 4.44236,0.27199 h 10.31875 v -0.26458 l -22.225,-12.7 m 48.94792,0 -21.96041,12.7 v 0.26458 h 10.31875 c 1.26259,0 3.31708,0.3855 4.44235,-0.27199 1.98226,-1.15808 3.50573,-5.42845 4.62783,-7.40092 0.80169,-1.40944 2.72706,-3.65099 2.57148,-5.29167 m 3.96875,0 4.96597,8.99583 2.49793,3.69676 4.44235,0.27199 h 10.31875 v -0.26458 l -22.225,-12.7 m 48.94792,0 -21.96042,12.7 v 0.26458 h 10.31875 c 1.26259,0 3.31708,0.3855 4.44236,-0.27199 1.98226,-1.15808 3.50573,-5.42845 4.62782,-7.40092 0.80169,-1.40944 2.72706,-3.65099 2.57149,-5.29167 m 3.96875,0 5.13847,9.26042 2.32543,3.43217 4.44235,0.27199 h 10.31875 v -0.26458 l -22.225,-12.7 m 48.94792,0 -21.96042,12.7 v 0.26458 h 10.31875 c 1.26259,0 3.31708,0.3855 4.44235,-0.27199 1.98226,-1.15808 3.50573,-5.42845 4.62783,-7.40092 0.80169,-1.40944 2.72706,-3.65099 2.57149,-5.29167 m 3.96875,0 4.96623,8.99583 2.49766,3.69676 4.44236,0.27199 h 10.31875 v -0.26458 l -22.225,-12.7 m 48.94791,0 -21.96041,12.7 v 0.26458 h 10.31875 c 1.26206,0 3.31787,0.3855 4.44235,-0.27199 1.98173,-1.15808 3.50573,-5.42845 4.62756,-7.40092 0.80169,-1.40917 2.72786,-3.65099 2.57175,-5.29167 M 0.64087,33.072923 v 25.92916 h 0.26458 l 4.98726,-8.73125 2.0246,-3.96875 -1.56708,-3.70416 -5.70936,-9.525 m 51.59375,0 -5.13848,8.99583 -1.8923,3.96875 2.05687,4.23333 4.97391,8.73125 h 0.26458 v -17.99166 l -0.26458,-7.9375 m 1.32291,0 v 25.92916 h 0.26459 l 4.81568,-8.46666 2.1963,-4.23334 -1.56712,-3.70416 -5.70945,-9.525 m 51.59375,0 -5.13847,8.99583 -1.8923,3.96875 2.05687,4.23333 4.9739,8.73125 h 0.26459 v -17.99166 l -0.26459,-7.9375 m 1.32292,0 v 25.92916 h 0.26458 l 4.9874,-8.73125 2.02459,-3.96875 -1.56713,-3.70416 -5.70944,-9.525 m 51.59376,0 -5.13847,8.99583 -1.8923,3.96875 2.05687,4.23333 4.9739,8.73125 h 0.26458 v -17.99166 l -0.26458,-7.9375 m 1.32292,0 v 25.92916 h 0.26458 l 4.81568,-8.46666 2.19631,-4.23334 -1.56713,-3.70416 -5.70944,-9.525 m 51.59375,0 -5.13848,8.99583 -1.8923,3.96875 2.05687,4.23333 4.97391,8.73125 h 0.26458 v -17.99166 l -0.26458,-7.9375 m 1.32291,0 v 25.92916 h 0.26459 l 4.98739,-8.73125 2.02459,-3.96875 -1.56712,-3.70416 -5.70945,-9.525 m 51.59375,0 -5.13847,8.99583 -1.8923,3.96875 2.05687,4.23333 4.9739,8.73125 h 0.26459 v -17.99166 l -0.26459,-7.9375 m 1.32292,0 v 25.92916 h 0.26458 l 4.81542,-8.46666 2.19604,-4.23334 -1.56633,-3.70416 -5.70971,-9.525 m 51.59375,0 -5.13821,8.99583 -1.89177,3.96875 2.05581,4.23333 4.97417,8.73125 h 0.26458 v -17.99166 l -0.26458,-7.9375 m -314.85418,26.45833 22.225,-12.7 c -2.9051,-1.21894 -7.95231,-0.26458 -11.1125,-0.26458 -1.14136,0 -2.91303,-0.32967 -3.8685,0.42412 -1.15093,0.90832 -1.8415,2.8202 -2.55582,4.07379 -1.56496,2.74664 -3.60495,5.4909 -4.68818,8.46667 m 26.9875,-12.96458 v 0.26458 l 22.225,12.7 -5.13847,-9.26042 -2.32542,-3.43217 -4.44236,-0.27199 H 28.95128 m 25.92917,12.96458 22.225,-12.7 c -2.90513,-1.21894 -7.95232,-0.26458 -11.1125,-0.26458 -1.14141,0 -2.91306,-0.32967 -3.86847,0.42412 -1.15094,0.90832 -1.8415,2.8202 -2.55588,4.07379 -1.56501,2.74664 -3.60495,5.4909 -4.68815,8.46667 m 26.9875,-12.96458 v 0.26458 l 22.225,12.7 -5.13847,-9.26042 -2.32543,-3.43217 -4.44235,-0.27199 H 81.86795 m 25.92917,12.96458 22.225,-12.7 c -2.90513,-1.21894 -7.95232,-0.26458 -11.1125,-0.26458 -1.14142,0 -2.91307,-0.32967 -3.86848,0.42412 -1.15093,0.90832 -1.8415,2.8202 -2.55587,4.07379 -1.56501,2.74664 -3.60495,5.4909 -4.68815,8.46667 m 26.98751,-12.96458 v 0.26458 l 22.225,12.7 -5.13848,-9.26042 -2.32542,-3.43217 -4.44235,-0.27199 h -10.31875 m 25.92916,12.96458 22.225,-12.7 c -2.90512,-1.21894 -7.95231,-0.26458 -11.1125,-0.26458 -1.14141,0 -2.91306,-0.32967 -3.86847,0.42412 -1.15094,0.90832 -1.8415,2.8202 -2.55587,4.07379 -1.56502,2.74664 -3.60495,5.4909 -4.68816,8.46667 m 26.9875,-12.96458 v 0.26458 l 22.225,12.7 -5.13847,-9.26042 -2.32542,-3.43217 -4.44236,-0.27199 h -10.31875 m 25.92917,12.96458 22.225,-12.7 c -2.90513,-1.21894 -7.95232,-0.26458 -11.1125,-0.26458 -1.14141,0 -2.91306,-0.32967 -3.86847,0.42412 -1.15094,0.90832 -1.8415,2.8202 -2.55588,4.07379 -1.56501,2.74664 -3.60495,5.4909 -4.68815,8.46667 m 26.9875,-12.96458 v 0.26458 l 22.225,12.7 -5.13847,-9.26042 -2.32543,-3.43217 -4.44235,-0.27199 h -10.31875 m 25.92917,12.96458 22.225,-12.7 c -2.90513,-1.21894 -7.95338,-0.26458 -11.1125,-0.26458 -1.14036,0 -2.91307,-0.32967 -3.86821,0.42412 -1.15094,0.90832 -1.8415,2.8202 -2.55588,4.07379 -1.56633,2.74664 -3.60627,5.4909 -4.68841,8.46667 m 26.9875,-12.96458 v 0.26458 l 22.225,12.7 -4.9874,-8.99583 -2.4765,-3.69676 -4.44235,-0.27199 h -10.31875 m -269.08126,1.32291 -21.96042,12.7 v 0.26459 H 12.8117 c 1.25831,0 3.32171,0.38788 4.44156,-0.27199 1.92971,-1.13666 3.34378,-5.21944 4.4428,-7.13635 0.84164,-1.46817 2.91976,-3.84254 2.75731,-5.55625 m 3.96875,0 5.13926,9.26042 2.32543,3.43218 4.44156,0.27199 h 10.31875 v -0.26459 l -12.7,-7.35541 -9.525,-5.34459 m 48.94791,0 -21.96041,12.7 v 0.26459 h 10.31875 c 1.25836,0 3.32184,0.38788 4.44156,-0.27199 1.9296,-1.13666 3.3438,-5.21944 4.44288,-7.13635 0.82788,-1.44436 2.91412,-3.88673 2.75722,-5.55625 m 3.96875,0 5.13927,9.26042 2.32542,3.43218 4.44156,0.27199 h 10.31875 v -0.26459 l -12.7,-7.35541 -9.525,-5.34459 m 48.94792,0 -21.96042,12.7 v 0.26459 h 10.31875 c 1.25836,0 3.32185,0.38788 4.44156,-0.27199 1.92961,-1.13666 3.34381,-5.21944 4.44289,-7.13635 0.84164,-1.46817 2.91967,-3.84254 2.75722,-5.55625 m 3.96876,0 5.13927,9.26042 2.32542,3.43218 4.44156,0.27199 h 10.31875 v -0.26459 l -12.7,-7.35541 -9.525,-5.34459 m 48.94792,0 -21.96042,12.7 v 0.26459 h 10.31875 c 1.25836,0 3.32184,0.38788 4.44156,-0.27199 1.92961,-1.13666 3.3438,-5.21944 4.44288,-7.13635 0.82789,-1.44436 2.91412,-3.88673 2.75723,-5.55625 m 3.96875,0 5.13926,9.26042 2.32543,3.43218 4.44156,0.27199 h 10.31875 v -0.26459 l -12.7,-7.35541 -9.525,-5.34459 m 48.94791,0 -21.96041,12.7 v 0.26459 h 10.31875 c 1.25836,0 3.32184,0.38788 4.44156,-0.27199 1.9296,-1.13666 3.3438,-5.21944 4.44288,-7.13635 0.84164,-1.46817 2.91968,-3.84254 2.75722,-5.55625 m 3.96875,0 5.13927,9.26042 2.32542,3.43218 4.44156,0.27199 h 10.31875 v -0.26459 l -12.7,-7.35541 -9.525,-5.34459 m 48.94792,0 -21.96042,12.7 v 0.26459 h 10.31875 c 1.25942,0 3.32052,0.38788 4.44236,-0.27199 1.92881,-1.13666 3.34169,-5.21944 4.44235,-7.13635 0.82815,-1.44436 2.91306,-3.88673 2.75696,-5.55625 m 3.96875,0 5.13821,9.26042 2.32569,3.43218 4.44235,0.27199 h 10.31875 v -0.26459 l -12.7,-7.35541 -9.525,-5.34459 m -267.22918,0.52917 -5.13937,8.99583 -1.96823,3.96875 2.0062,3.96875 5.1014,8.99584 h 0.26459 v -17.99167 l -0.26459,-7.9375 m 1.32292,0 v 25.92917 h 0.26458 l 5.10143,-8.99584 1.97776,-3.70416 -1.59728,-3.70417 -5.74649,-9.525 m 51.59375,0 -5.13927,8.99583 -1.96559,3.96875 2.00343,3.96875 5.10143,8.99584 h 0.26458 v -17.99167 l -0.26458,-7.9375 m 1.32292,0 v 25.92917 h 0.26458 l 5.10143,-8.99584 1.97776,-3.70416 -1.59729,-3.70417 -5.74648,-9.525 m 51.59375,0 -5.13927,8.99583 -1.96824,3.96875 2.00608,3.96875 5.10143,8.99584 h 0.26458 v -17.99167 l -0.26458,-7.9375 m 1.32291,0 v 25.92917 h 0.26459 l 5.10144,-8.99584 1.97776,-3.70416 -1.59729,-3.70417 -5.7465,-9.525 m 51.59376,0 -5.13926,8.99583 -1.96559,3.96875 2.00342,3.96875 5.10143,8.99584 h 0.26459 v -17.99167 l -0.26459,-7.9375 m 1.32292,0 v 25.92917 h 0.26458 l 5.10143,-8.99584 1.97776,-3.70416 -1.59728,-3.70417 -5.74649,-9.525 m 51.59375,0 -5.13927,8.99583 -1.96823,3.96875 2.00607,3.96875 5.10143,8.99584 h 0.26458 v -17.99167 l -0.26458,-7.9375 m 1.32292,0 v 25.92917 h 0.26458 l 5.10143,-8.99584 1.97776,-3.70416 -1.59729,-3.70417 -5.74648,-9.525 m 51.59375,0 -5.13821,8.99583 -1.96586,3.96875 2.0029,3.96875 5.10117,8.99584 h 0.26458 v -17.99167 l -0.26458,-7.9375 m 1.32291,0 v 25.92917 h 0.26459 l 5.10116,-8.99584 1.97909,-3.70416 -1.59809,-3.70417 -5.74675,-9.525 M 2.49295,61.912503 v 0.26458 l 22.225,12.7 -5.25206,-9.525 -2.25938,-3.28004 -4.39481,-0.15954 H 2.49295 m 25.92917,12.96458 22.225,-12.7 c -2.90513,-1.21893 -7.95232,-0.26458 -11.1125,-0.26458 -1.04855,0 -2.89693,-0.3519 -3.80101,0.27199 -0.99351,0.68554 -1.57744,2.41618 -2.17937,3.43218 -1.72376,2.90856 -4.11057,6.0317 -5.13212,9.26041 m 26.9875,-12.96458 v 0.26458 l 22.225,12.7 -5.28876,-9.525 -2.22276,-3.28004 -4.39473,-0.15954 H 55.40962 m 25.92916,12.96458 22.225,-12.7 c -2.90512,-1.21893 -7.95231,-0.26458 -11.1125,-0.26458 -1.04854,0 -2.89692,-0.3519 -3.801,0.27199 -1.04616,0.72179 -1.74202,2.61276 -2.35876,3.69676 -1.62666,2.85962 -3.95949,5.8584 -4.95274,8.99583 m 26.9875,-12.96458 v 0.26458 l 22.225,12.7 -5.25198,-9.525 -2.25954,-3.28004 -4.39473,-0.15954 h -10.31875 m 25.92918,12.96458 22.225,-12.7 c -2.90513,-1.21893 -7.95232,-0.26458 -11.1125,-0.26458 -1.04854,0 -2.89692,-0.3519 -3.801,0.27199 -0.99351,0.68554 -1.57745,2.41618 -2.17938,3.43218 -1.72376,2.90856 -4.1103,6.0317 -5.13212,9.26041 m 26.9875,-12.96458 v 0.26458 l 22.225,12.7 -5.28876,-9.525 -2.22276,-3.28004 -4.39473,-0.15954 h -10.31875 m 25.92917,12.96458 22.225,-12.7 c -2.90513,-1.21893 -7.95232,-0.26458 -11.1125,-0.26458 -1.04855,0 -2.89693,-0.3519 -3.80101,0.27199 -1.04616,0.72205 -1.74201,2.61276 -2.35876,3.69676 -1.62666,2.85962 -3.95949,5.85867 -4.95273,8.99583 m 26.9875,-12.96458 v 0.26458 l 22.225,12.7 -5.25198,-9.525 -2.25954,-3.28004 -4.39473,-0.15954 h -10.31875 m 25.92916,12.96458 22.225,-12.7 c -2.90512,-1.21893 -7.95231,-0.26458 -11.1125,-0.26458 -1.04854,0 -2.89692,-0.3519 -3.801,0.27199 -0.99351,0.68554 -1.57745,2.41618 -2.17937,3.43218 -1.72376,2.90856 -4.11057,6.0317 -5.13213,9.26041 m 26.9875,-12.96458 v 0.26458 l 22.225,12.7 -5.28902,-9.525 -2.2225,-3.28004 -4.39473,-0.15954 h -10.31875 m 25.92917,12.96458 22.225,-12.7 c -2.90513,-1.21893 -7.95338,-0.26458 -11.1125,-0.26458 -1.04775,0 -2.89719,-0.3519 -3.80206,0.27199 -1.04511,0.72179 -1.74096,2.61276 -2.35744,3.69676 -1.62719,2.85962 -3.96081,5.8584 -4.953,8.99583 M 1.96378,63.235423 l 5.25185,9.525 2.25674,3.28004 4.39766,0.15954 h 10.31875 v -0.26458 l -22.225,-12.7 m 48.94792,0 c -6.85694,4.52305 -14.52113,9.22258 -21.96042,12.7 v 0.26458 h 10.58334 c 1.17633,0 3.32131,0.41063 4.33652,-0.27199 1.83277,-1.2319 3.06149,-4.98793 4.18332,-6.87176 0.8554,-1.43642 3.10066,-4.15158 2.85724,-5.82083 m 3.96875,0 5.25198,9.525 2.25663,3.28004 4.39764,0.15954 h 10.31875 v -0.26458 l -22.225,-12.7 m 48.94792,0 c -6.85695,4.52305 -14.52113,9.22258 -21.96042,12.7 v 0.26458 h 10.58333 l 4.33652,-0.27199 4.32039,-7.13634 2.72018,-5.55625 m 3.96875,0 5.25198,9.525 2.25663,3.28004 4.39764,0.15954 h 10.31875 v -0.26458 l -22.225,-12.7 m 48.94792,0 c -6.85694,4.52305 -14.52112,9.22258 -21.96041,12.7 v 0.26458 h 10.58333 c 1.17634,0 3.32131,0.41063 4.33652,-0.27199 1.83277,-1.2319 3.06149,-4.98793 4.18333,-6.87176 0.8554,-1.43642 3.10065,-4.15158 2.85723,-5.82083 m 3.96875,0 5.25198,9.525 2.25663,3.28004 4.39764,0.15954 h 10.31875 v -0.26458 l -22.225,-12.7 m 48.94792,0 c -6.85694,4.52305 -14.52113,9.22258 -21.96042,12.7 v 0.26458 h 10.58334 l 4.33652,-0.27199 4.32038,-7.13634 2.72018,-5.55625 m 3.96875,0 5.25198,9.525 2.25663,3.28004 4.39764,0.15954 h 10.31875 v -0.26458 l -22.225,-12.7 m 48.94792,0 c -6.85695,4.52305 -14.52113,9.22258 -21.96042,12.7 v 0.26458 h 10.58333 c 1.17634,0 3.32132,0.41063 4.33652,-0.27199 1.83277,-1.2319 3.0615,-4.98793 4.18333,-6.87176 0.8554,-1.43642 3.10065,-4.15158 2.85724,-5.82083 m 3.96875,0 5.25198,9.525 2.25689,3.28004 4.39738,0.15954 h 10.31875 v -0.26458 l -22.225,-12.7 m 48.94791,0 c -6.858,4.52305 -14.52033,9.22258 -21.96041,12.7 v 0.26458 h 10.58333 l 4.33652,-0.27199 4.32065,-7.13634 2.71991,-5.55625 M 0.64087,63.764583 v 25.92917 h 0.26458 l 4.99033,-8.73125 2.05298,-3.96875 -1.79125,-3.96875 -5.51664,-9.26042 m 51.59375,0 -5.10143,8.99584 -1.92935,3.96875 1.89151,3.96875 5.13927,8.99583 h 0.26458 v -17.99167 l -0.26458,-7.9375 m 1.32291,0 v 25.92917 h 0.26459 l 4.9903,-8.73125 2.02248,-3.96875 -1.60893,-3.70417 -5.66844,-9.525 m 51.59375,0 -5.10143,8.99584 -1.92934,3.96875 1.89071,3.96875 5.14006,8.99583 h 0.26459 v -17.99167 l -0.26459,-7.9375 m 1.32292,0 v 25.92917 h 0.26458 l 4.99031,-8.73125 2.0529,-3.96875 -1.79123,-3.96875 -5.51656,-9.26042 m 51.59376,0 -5.10143,8.99584 -1.92934,3.96875 1.8915,3.96875 5.13927,8.99583 h 0.26458 v -17.99167 l -0.26458,-7.9375 m 1.32292,0 v 25.92917 h 0.26458 l 4.99031,-8.73125 2.02247,-3.96875 -1.60893,-3.70417 -5.66843,-9.525 m 51.59375,0 -5.10143,8.99584 -1.92935,3.96875 1.89072,3.96875 5.14006,8.99583 h 0.26458 v -17.99167 l -0.26458,-7.9375 m 1.32291,0 v 25.92917 h 0.26459 l 4.9903,-8.73125 2.05291,-3.96875 -1.79123,-3.96875 -5.51657,-9.26042 m 51.59375,0 -5.10143,8.99584 -1.92934,3.96875 1.89151,3.96875 5.13926,8.99583 h 0.26459 v -17.99167 l -0.26459,-7.9375 m 1.32292,0 v 25.92917 h 0.26458 l 4.99004,-8.73125 2.02142,-3.96875 -1.60866,-3.70417 -5.66738,-9.525 m 51.59375,0 -5.10117,8.99584 -1.92881,3.96875 1.88913,3.96875 5.14085,8.99583 h 0.26458 v -17.99167 l -0.26458,-7.9375 M 1.96378,90.222923 9.6367,85.949903 24.18878,77.522923 c -2.9051,-1.21894 -7.95231,-0.26459 -11.1125,-0.26459 -1.13374,0 -2.92068,-0.33337 -3.86564,0.42413 -1.18099,0.94694 -1.97289,3.02445 -2.6879,4.33837 -1.47227,2.70563 -3.50361,5.30305 -4.55896,8.20209 m 26.9875,-12.96459 v 0.26459 l 14.55209,8.42698 7.67291,4.27302 -5.18027,-9.26042 -2.28442,-3.43217 -4.44156,-0.272 H 28.95128 m 25.92917,12.96459 7.67292,-4.27302 14.55208,-8.42698 c -2.90513,-1.21894 -7.95232,-0.26459 -11.1125,-0.26459 -1.13374,0 -2.92074,-0.33337 -3.86556,0.42413 -1.06283,0.85222 -1.70471,2.64345 -2.37305,3.80921 -1.61925,2.82442 -3.7592,5.66922 -4.87389,8.73125 m 26.9875,-12.96459 v 0.26459 l 14.55208,8.42698 7.67292,4.27302 -5.14006,-9.26042 -2.32463,-3.43217 -4.44156,-0.272 H 81.86795 m 25.92917,12.96459 7.67291,-4.27302 14.55209,-8.42698 c -2.90513,-1.21894 -7.95232,-0.26459 -11.1125,-0.26459 -1.13374,0 -2.92074,-0.33337 -3.86557,0.42413 -1.1811,0.94694 -1.97299,3.02445 -2.6879,4.33837 -1.4724,2.70563 -3.50361,5.30305 -4.55903,8.20209 m 26.98751,-12.96459 v 0.26459 l 14.55208,8.42698 7.67292,4.27302 -5.18028,-9.26042 -2.28441,-3.43217 -4.44156,-0.272 h -10.31875 m 25.92916,12.96459 7.67292,-4.27302 14.55208,-8.42698 c -2.90512,-1.21894 -7.95231,-0.26459 -11.1125,-0.26459 -1.13374,0 -2.92073,-0.33337 -3.86556,0.42413 -1.06283,0.85222 -1.70471,2.64345 -2.37305,3.80921 -1.61925,2.82442 -3.7592,5.66922 -4.87389,8.73125 m 26.9875,-12.96459 v 0.26459 l 14.55209,8.42698 7.67291,4.27302 -5.14006,-9.26042 -2.32463,-3.43217 -4.44156,-0.272 h -10.31875 m 25.92917,12.96459 7.67292,-4.27302 14.55208,-8.42698 c -2.90513,-1.21894 -7.95232,-0.26459 -11.1125,-0.26459 -1.13374,0 -2.92074,-0.33337 -3.86556,0.42413 -1.1811,0.94694 -1.973,3.02445 -2.6879,4.33837 -1.47241,2.70563 -3.50362,5.30305 -4.55904,8.20209 m 26.9875,-12.96459 v 0.26459 l 14.55208,8.42698 7.67292,4.27302 -5.18028,-9.26042 -2.28441,-3.43217 -4.44156,-0.272 h -10.31875 m 25.92917,12.96459 7.67291,-4.27302 14.55209,-8.42698 c -2.90513,-1.21894 -7.95338,-0.26459 -11.1125,-0.26459 -1.13507,0 -2.921,-0.33337 -3.86557,0.42413 -1.06362,0.85222 -1.70391,2.64345 -2.37331,3.80921 -1.61925,2.82442 -3.75973,5.66922 -4.87362,8.73125 m 26.9875,-12.96459 v 0.26459 l 14.55208,8.42698 7.67292,4.27302 -5.14086,-9.26042 -2.32304,-3.43217 -4.44235,-0.272 h -10.31875 m -269.08126,1.32292 -21.96042,12.7 v 0.26458 H 12.8117 c 1.26249,0 3.31695,0.3855 4.44238,-0.27199 1.96887,-1.15014 3.30475,-5.2062 4.44852,-7.13634 0.85654,-1.44542 2.91216,-3.85366 2.75077,-5.55625 m 3.96875,0 5.13847,9.26042 2.32542,3.43217 4.44236,0.27199 h 10.31875 v -0.26458 l -22.225,-12.7 m 48.94791,0 -21.96041,12.7 v 0.26458 h 10.31875 c 1.26259,0 3.31708,0.3855 4.44235,-0.27199 1.96877,-1.15014 3.30491,-5.2062 4.44844,-7.13634 0.85672,-1.44542 2.91227,-3.85366 2.75087,-5.55625 m 3.96875,0 5.13848,9.26042 2.32542,3.43217 4.44235,0.27199 h 10.31875 v -0.26458 l -22.225,-12.7 m 48.94792,0 -21.96042,12.7 v 0.26458 h 10.31875 c 1.26259,0 3.31708,0.3855 4.44236,-0.27199 1.96903,-1.15014 3.30491,-5.2062 4.44844,-7.13634 0.85672,-1.44542 2.91227,-3.85366 2.75087,-5.55625 m 3.96876,0 5.13847,9.26042 2.32543,3.43217 4.44235,0.27199 h 10.31875 v -0.26458 l -22.225,-12.7 m 48.94792,0 -21.96042,12.7 v 0.26458 h 10.31875 c 1.26259,0 3.31708,0.3855 4.44235,-0.27199 1.96903,-1.15014 3.30491,-5.2062 4.44844,-7.13634 0.85672,-1.44542 2.91227,-3.85366 2.75088,-5.55625 m 3.96875,0 5.13847,9.26042 2.32542,3.43217 4.44236,0.27199 h 10.31875 v -0.26458 l -22.225,-12.7 m 48.94791,0 -21.96041,12.7 v 0.26458 h 10.31875 c 1.26259,0 3.31708,0.3855 4.44235,-0.27199 1.96903,-1.15014 3.30491,-5.2062 4.44844,-7.13634 0.85672,-1.44542 2.91227,-3.85366 2.75087,-5.55625 m 3.96875,0 5.13848,9.26042 2.32542,3.43217 4.44235,0.27199 h 10.31875 v -0.26458 l -22.225,-12.7 m 48.94792,0 -21.96042,12.7 v 0.26458 h 10.31875 c 1.26207,0 3.31788,0.3855 4.44236,-0.27199 1.9685,-1.15014 3.30464,-5.2062 4.44764,-7.13634 0.85725,-1.44542 2.91307,-3.85366 2.75167,-5.55625 m 3.96875,0 5.13821,9.26042 2.32569,3.43217 4.44235,0.27199 h 10.31875 v -0.26458 l -22.225,-12.7 m -267.22918,0.52917 -5.13855,8.99583 -1.89209,3.96875 1.89209,3.96875 5.13855,8.995827 h 0.26459 V 87.047923 l -0.26459,-7.9375 m 1.32292,0 v 25.929157 h 0.26458 l 4.9874,-8.731247 2.02459,-3.96875 -1.72032,-3.96875 -5.55625,-9.26041 m 51.59375,0 -5.13847,8.99583 -1.8923,3.96875 1.8923,3.96875 5.13847,8.995827 h 0.26458 V 87.047923 l -0.26458,-7.9375 m 1.32292,0 v 25.929157 h 0.26458 l 4.9874,-8.731247 2.02459,-3.96875 -1.72032,-3.96875 -5.55625,-9.26041 m 51.59375,0 -5.13848,8.99583 -1.8923,3.96875 1.8923,3.96875 5.13848,8.995827 h 0.26458 V 87.047923 l -0.26458,-7.9375 m 1.32291,0 v 25.929157 h 0.26459 l 4.9874,-8.731247 2.02459,-3.96875 -1.72032,-3.96875 -5.55626,-9.26041 m 51.59376,0 -5.13847,8.99583 -1.8923,3.96875 1.8923,3.96875 5.13847,8.995827 h 0.26459 V 87.047923 l -0.26459,-7.9375 m 1.32292,0 v 25.929157 h 0.26458 l 4.9874,-8.731247 2.02459,-3.96875 -1.72032,-3.96875 -5.55625,-9.26041 m 51.59375,0 -5.13847,8.99583 -1.8923,3.96875 1.8923,3.96875 5.13847,8.995827 h 0.26458 V 87.047923 l -0.26458,-7.9375 m 1.32292,0 v 25.929157 h 0.26458 l 4.9874,-8.731247 2.02459,-3.96875 -1.72032,-3.96875 -5.55625,-9.26041 m 51.59375,0 -5.13821,8.99583 -1.89177,3.96875 1.89177,3.96875 5.13821,8.995827 h 0.26458 V 87.047923 l -0.26458,-7.9375 m 1.32291,0 v 25.929157 h 0.26459 l 4.98739,-8.731247 2.02407,-3.96875 -1.7198,-3.96875 -5.55625,-9.26041 M 2.49295,92.604173 v 0.26458 l 22.225,12.699997 -5.13855,-9.260417 -2.32532,-3.43217 -4.44238,-0.27199 H 2.49295 m 25.92917,12.964577 22.225,-12.699997 c -2.90513,-1.21894 -7.95232,-0.26458 -11.1125,-0.26458 -1.14142,0 -2.91307,-0.32967 -3.86848,0.42412 -1.15014,0.90779 -1.84308,2.8202 -2.55587,4.07379 -1.56131,2.74611 -3.60627,5.494337 -4.68815,8.466667 m 26.9875,-12.964577 v 0.26458 l 22.225,12.699997 -5.13848,-9.260417 -2.32542,-3.43217 -4.44235,-0.27199 H 55.40962 m 25.92916,12.964577 22.225,-12.699997 c -2.90512,-1.21894 -7.95231,-0.26458 -11.1125,-0.26458 -1.14141,0 -2.91306,-0.32967 -3.86847,0.42412 -1.15014,0.90779 -1.84309,2.8202 -2.55587,4.07379 -1.56131,2.74611 -3.60628,5.494337 -4.68816,8.466667 m 26.9875,-12.964577 v 0.26458 l 22.225,12.699997 -5.13847,-9.260417 -2.32542,-3.43217 -4.44236,-0.27199 h -10.31875 m 25.92918,12.964577 22.225,-12.699997 c -2.90513,-1.21894 -7.95232,-0.26458 -11.1125,-0.26458 -1.14141,0 -2.91306,-0.32967 -3.86847,0.42412 -1.15015,0.90779 -1.84309,2.8202 -2.55588,4.07379 -1.5613,2.74638 -3.60627,5.494337 -4.68815,8.466667 m 26.9875,-12.964577 v 0.26458 l 22.225,12.699997 -5.13847,-9.260417 -2.32543,-3.43217 -4.44235,-0.27199 h -10.31875 m 25.92917,12.964577 22.225,-12.699997 c -2.90513,-1.21894 -7.95232,-0.26458 -11.1125,-0.26458 -1.14142,0 -2.91307,-0.32967 -3.86848,0.42412 -1.15014,0.90779 -1.84308,2.8202 -2.55587,4.07379 -1.56131,2.74638 -3.60627,5.494337 -4.68815,8.466667 m 26.9875,-12.964577 v 0.26458 l 22.225,12.699997 -5.13848,-9.260417 -2.32542,-3.43217 -4.44235,-0.27199 h -10.31875 m 25.92916,12.964577 22.225,-12.699997 c -2.90512,-1.21894 -7.95231,-0.26458 -11.1125,-0.26458 -1.14141,0 -2.91306,-0.32967 -3.86847,0.42412 -1.15014,0.90779 -1.84309,2.8202 -2.55587,4.07379 -1.56131,2.74638 -3.60628,5.494337 -4.68816,8.466667 m 26.9875,-12.964577 v 0.26458 l 22.225,12.699997 -5.13821,-9.260417 -2.32568,-3.43217 -4.44236,-0.27199 h -10.31875 m 25.92917,12.964577 22.225,-12.699997 c -2.90513,-1.21894 -7.95338,-0.26458 -11.1125,-0.26458 -1.14035,0 -2.91306,-0.32967 -3.86821,0.42412 -1.15094,0.90779 -1.84414,2.8202 -2.55587,4.07379 -1.56105,2.74611 -3.60627,5.494337 -4.68842,8.466667 M 1.96378,93.927083 l 5.1402,9.260417 2.32449,3.43218 4.44156,0.27199 h 10.31875 v -0.26459 L 9.6367,98.200103 1.96378,93.927083 m 26.9875,12.699997 v 0.26459 h 10.31875 l 4.44156,-0.27199 2.28521,-3.43218 5.17948,-9.260417 -7.67291,4.27302 -14.55209,8.426977 m 25.92917,-12.699997 5.13927,9.260417 2.32542,3.43218 4.44156,0.27199 h 10.31875 v -0.26459 l -14.55208,-8.426977 -7.67292,-4.27302 m 48.94792,0 -21.96042,12.699997 v 0.26459 H 92.1867 c 1.25836,0 3.32184,0.38788 4.44156,-0.27199 1.92749,-1.13533 3.33269,-5.22526 4.44209,-7.136347 0.8464,-1.45864 2.91994,-3.84915 2.75802,-5.55625 m 3.96875,0 5.14006,9.260417 2.32463,3.43218 4.44156,0.27199 h 10.31875 v -0.26459 l -14.55209,-8.426977 -7.67291,-4.27302 m 26.98751,12.699997 v 0.26459 h 10.31875 l 4.44156,-0.27199 2.2852,-3.43218 5.17949,-9.260417 -7.67292,4.27302 -14.55208,8.426977 m 25.92916,-12.699997 5.13927,9.260417 2.32542,3.43218 4.44156,0.27199 h 10.31875 v -0.26459 l -14.55208,-8.426977 -7.67292,-4.27302 m 48.94792,0 -21.96042,12.699997 v 0.26459 h 10.31875 c 1.25836,0 3.32185,0.38788 4.44156,-0.27199 1.92749,-1.13533 3.3327,-5.22526 4.44209,-7.136347 0.84641,-1.45864 2.91995,-3.84915 2.75802,-5.55625 m 3.96875,0 5.14006,9.260417 2.32463,3.43218 4.44156,0.27199 h 10.31875 v -0.26459 l -14.55208,-8.426977 -7.67292,-4.27302 m 26.9875,12.699997 v 0.26459 h 10.31875 l 4.44156,-0.27199 2.28521,-3.43218 5.17948,-9.260417 -7.67292,4.27302 -14.55208,8.426977 m 25.92917,-12.699997 5.13821,9.260417 2.32568,3.43218 4.44236,0.27199 h 10.31875 v -0.26459 l -14.55209,-8.426977 -7.67291,-4.27302 m 48.94791,0 -21.96041,12.699997 v 0.26459 h 10.31875 c 1.25941,0 3.32052,0.38761 4.44235,-0.27199 1.92617,-1.13533 3.3311,-5.225 4.44236,-7.136347 0.84402,-1.45838 2.91835,-3.84915 2.75695,-5.55625 M 0.64087,94.456253 v 25.929167 h 0.26458 l 5.1014,-8.99584 2.0246,-3.96875 -1.83126,-3.70416 -5.55932,-9.260417 m 51.59375,0 -5.14006,8.995827 -1.98888,3.96875 2.02751,3.96875 5.10143,8.99584 h 0.26458 v -17.99167 l -0.26458,-7.937497 m 1.32291,0 v 25.929167 h 0.26459 l 5.10143,-8.99584 2.02724,-3.96875 -1.83701,-3.70416 -5.55625,-9.260417 m 51.59375,0 -5.14006,8.995827 -1.98596,3.96875 2.02459,3.96875 5.10143,8.99584 h 0.26459 v -17.99167 l -0.26459,-7.937497 m 1.32292,0 v 25.929167 h 0.26458 l 5.10143,-8.99584 2.0246,-3.96875 -1.83119,-3.70416 -5.55942,-9.260417 m 51.59376,0 -5.14006,8.995827 -1.98887,3.96875 2.0275,3.96875 5.10143,8.99584 h 0.26458 v -17.99167 l -0.26458,-7.937497 m 1.32292,0 v 25.929167 h 0.26458 l 5.10143,-8.99584 2.02724,-3.96875 -1.837,-3.70416 -5.55625,-9.260417 m 51.59375,0 -5.14006,8.995827 -1.98597,3.96875 2.0246,3.96875 5.10143,8.99584 h 0.26458 v -17.99167 l -0.26458,-7.937497 m 1.32291,0 v 25.929167 h 0.26459 l 5.10143,-8.99584 2.02459,-3.96875 -1.83118,-3.70416 -5.55943,-9.260417 m 51.59375,0 -5.14006,8.995827 -1.98887,3.96875 2.0275,3.96875 5.10143,8.99584 h 0.26459 v -17.99167 l -0.26459,-7.937497 m 1.32292,0 v 25.929167 h 0.26458 l 5.10117,-8.99584 2.02671,-3.96875 -1.83621,-3.70416 -5.55625,-9.260417 m 51.59375,0 -5.14085,8.995827 -1.98438,3.96875 2.02406,3.96875 5.10117,8.99584 h 0.26458 v -17.99167 l -0.26458,-7.937497 M 1.96378,120.91458 l 22.225,-12.7 c -2.9051,-1.21893 -7.95231,-0.26458 -11.1125,-0.26458 -1.06108,0 -2.88679,-0.34687 -3.80746,0.27199 -1.07241,0.72073 -1.72892,2.60033 -2.35227,3.69676 -1.62621,2.86041 -3.95952,5.85814 -4.95277,8.99583 M 28.95128,107.95 v 0.26458 l 22.225,12.7 -5.25198,-9.525 -2.25663,-3.28004 L 39.27003,107.95 H 28.95128 m 25.92917,12.96458 22.225,-12.7 C 74.20032,106.99565 69.15313,107.95 65.99295,107.95 c -1.06098,0 -2.88687,-0.34687 -3.80735,0.27199 -1.07263,0.72073 -1.72906,2.60033 -2.35241,3.69676 -1.62613,2.86041 -3.95949,5.85814 -4.95274,8.99583 M 81.86795,107.95 v 0.26458 l 22.225,12.7 -5.25198,-9.525 -2.25663,-3.28004 L 92.1867,107.95 H 81.86795 m 25.92917,12.96458 22.225,-12.7 c -2.90513,-1.21893 -7.95232,-0.26458 -11.1125,-0.26458 -1.06098,0 -2.88687,-0.34687 -3.80736,0.27199 -1.07262,0.72073 -1.72905,2.60033 -2.35241,3.69676 -1.62613,2.86041 -3.95949,5.85814 -4.95273,8.99583 M 134.78463,107.95 v 0.26458 l 22.225,12.7 -5.25198,-9.525 -2.25663,-3.28004 -4.39764,-0.15954 h -10.31875 m 25.92916,12.96458 22.225,-12.7 c -2.90512,-1.21893 -7.95231,-0.26458 -11.1125,-0.26458 -1.06098,0 -2.88687,-0.34687 -3.80735,0.27199 -1.07262,0.72073 -1.72905,2.60033 -2.35241,3.69676 -1.62613,2.86041 -3.95949,5.85814 -4.95274,8.99583 M 187.70129,107.95 v 0.26458 l 22.225,12.7 -5.25198,-9.525 -2.25663,-3.28004 -4.39764,-0.15954 h -10.31875 m 25.92917,12.96458 22.225,-12.7 c -2.90513,-1.21893 -7.95232,-0.26458 -11.1125,-0.26458 -1.06098,0 -2.88687,-0.34687 -3.80735,0.27199 -1.07262,0.72073 -1.72906,2.60033 -2.35241,3.69676 -1.62613,2.86041 -3.95949,5.85814 -4.95274,8.99583 M 240.61796,107.95 v 0.26458 l 22.225,12.7 -5.25198,-9.525 -2.25663,-3.28004 -4.39764,-0.15954 h -10.31875 m 25.92917,12.96458 22.225,-12.7 c -2.90513,-1.21893 -7.95338,-0.26458 -11.1125,-0.26458 -1.06098,0 -2.88661,-0.34687 -3.80736,0.27199 -1.07156,0.72073 -1.72773,2.60033 -2.35214,3.69676 -1.62719,2.86015 -3.96082,5.85814 -4.953,8.99583 M 293.53463,107.95 v 0.26458 l 22.225,12.7 -5.25198,-9.525 -2.2569,-3.28004 -4.39737,-0.15954 h -10.31875 m -269.08126,1.32292 c -6.84671,4.53046 -14.52687,9.22522 -21.96042,12.7 v 0.26458 h 10.58333 c 1.16208,0 3.33402,0.4154 4.33009,-0.27199 1.83092,-1.26339 3.05954,-4.97417 4.18966,-6.87176 0.86711,-1.456 3.10665,-4.11189 2.85734,-5.82083 m 3.96875,0 5.25198,9.525 2.25663,3.28004 4.39764,0.15954 h 10.31875 v -0.26458 l -22.225,-12.7 m 48.94791,0 c -6.84292,4.52728 -14.53091,9.22734 -21.96041,12.7 v 0.26458 h 10.58333 l 4.33017,-0.27199 4.32673,-7.13634 2.72018,-5.55625 m 3.96875,0 5.25198,9.525 2.25954,3.28004 4.39473,0.15954 h 10.31875 v -0.26458 l -22.225,-12.7 m 48.94792,0 c -6.84662,4.53046 -14.52695,9.22522 -21.96042,12.7 v 0.26458 h 10.58334 c 1.16205,0 3.33401,0.4154 4.33017,-0.27199 1.83091,-1.26339 3.05937,-4.97417 4.18967,-6.87176 0.86704,-1.456 3.10648,-4.11189 2.85724,-5.82083 m 3.96876,0 5.25198,9.525 2.25663,3.28004 4.39764,0.15954 h 10.31875 v -0.26458 l -22.225,-12.7 m 48.94792,0 c -6.84292,4.52728 -14.53092,9.22708 -21.96042,12.7 v 0.26458 h 10.58333 l 4.33017,-0.27199 4.32674,-7.13634 2.72018,-5.55625 m 3.96875,0 5.25198,9.525 2.25954,3.28004 4.39473,0.15954 h 10.31875 v -0.26458 l -22.225,-12.7 m 48.94791,0 c -6.84662,4.53046 -14.52694,9.22522 -21.96041,12.7 v 0.26458 h 10.58333 c 1.16205,0 3.33401,0.4154 4.33017,-0.27199 1.83092,-1.26339 3.05938,-4.97417 4.18968,-6.87176 0.86704,-1.456 3.10647,-4.11162 2.85723,-5.82083 m 3.96875,0 5.25198,9.525 2.25663,3.28004 4.39764,0.15954 h 10.31875 v -0.26458 l -22.225,-12.7 m 48.94792,0 c -6.84212,4.52728 -14.53092,9.22708 -21.96042,12.7 v 0.26458 h 10.58334 l 4.33123,-0.27199 4.32593,-7.13634 2.71992,-5.55625 m 3.96875,0 5.25198,9.525 2.25954,3.28004 4.39473,0.15954 h 10.31875 v -0.26458 l -22.225,-12.7 m -267.22918,0.52916 -5.1014,8.99584 -2.0062,3.96875 1.96823,3.96875 5.13937,8.99583 h 0.26459 v -17.99167 l -0.26459,-7.9375 m 1.32292,0 v 25.92917 h 0.26458 l 4.86754,-8.46667 2.22118,-4.23333 -1.68566,-3.70417 -5.66764,-9.525 m 51.59375,0 -5.10143,8.99584 -2.00607,3.96875 1.96823,3.96875 5.13927,8.99583 h 0.26458 v -17.99167 l -0.26458,-7.9375 m 1.32292,0 v 25.92917 h 0.26458 L 85.26785,127 l 2.10211,-3.96875 -1.68566,-3.70417 -5.66843,-9.525 m 51.59375,0 -5.10143,8.99584 -2.00608,3.96875 1.96824,3.96875 5.13927,8.99583 h 0.26458 v -17.99167 l -0.26458,-7.9375 m 1.32291,0 v 25.92917 h 0.26459 l 4.86755,-8.46667 2.22117,-4.23333 -1.68566,-3.70417 -5.66765,-9.525 m 51.59376,0 -5.10143,8.99584 -2.00607,3.96875 1.96824,3.96875 5.13926,8.99583 h 0.26459 v -17.99167 l -0.26459,-7.9375 m 1.32292,0 v 25.92917 h 0.26458 l 4.9874,-8.73125 2.10211,-3.96875 -1.68566,-3.70417 -5.66843,-9.525 m 51.59375,0 -5.10143,8.99584 -2.00607,3.96875 1.96823,3.96875 5.13927,8.99583 h 0.26458 v -17.99167 l -0.26458,-7.9375 m 1.32292,0 v 25.92917 h 0.26458 l 4.86754,-8.46667 2.22118,-4.23333 -1.68566,-3.70417 -5.66764,-9.525 m 51.59375,0 -5.10117,8.99584 -2.00554,3.96875 1.9685,3.96875 5.13821,8.99583 h 0.26458 v -17.99167 l -0.26458,-7.9375 m 1.32291,0 v 25.92917 h 0.26459 L 296.93452,127 l 2.10079,-3.96875 -1.68539,-3.70417 -5.66738,-9.525 M 2.49295,123.29583 v 0.26459 l 13.22917,7.67582 8.99583,5.02418 L 19.5794,127 17.25408,123.56782 12.8117,123.29583 H 2.49295 m 25.92917,12.96459 8.99583,-5.02418 13.22917,-7.67582 c -2.90513,-1.21894 -7.95232,-0.26459 -11.1125,-0.26459 -1.14142,0 -2.91307,-0.32967 -3.86848,0.42413 -1.08426,0.85566 -1.73593,2.62837 -2.40718,3.80921 -1.60099,2.81622 -3.72401,5.69145 -4.83684,8.73125 m 26.9875,-12.96459 v 0.26459 l 13.22916,7.67582 8.99584,5.02418 L 72.49614,127 70.17072,123.56782 65.72837,123.29583 H 55.40962 m 25.92916,12.96459 8.99584,-5.02418 13.22916,-7.67582 c -2.90512,-1.21894 -7.95231,-0.26459 -11.1125,-0.26459 -1.14141,0 -2.91306,-0.32967 -3.86847,0.42413 -1.08426,0.85566 -1.73593,2.62837 -2.40718,3.80921 -1.60099,2.81622 -3.72401,5.69145 -4.83685,8.73125 m 26.9875,-12.96459 v 0.26459 l 13.22917,7.67582 8.99583,5.02418 -5.13847,-9.26042 -2.32542,-3.43218 -4.44236,-0.27199 h -10.31875 m 25.92918,12.96459 8.99583,-5.02418 13.22917,-7.67582 c -2.90513,-1.21894 -7.95232,-0.26459 -11.1125,-0.26459 -1.14141,0 -2.91306,-0.32967 -3.86847,0.42413 -1.08427,0.85566 -1.73593,2.62837 -2.40718,3.80921 -1.601,2.81622 -3.72401,5.69145 -4.83685,8.73125 m 26.9875,-12.96459 v 0.26459 l 13.22917,7.67582 8.99583,5.02418 -5.13847,-9.26042 -2.32543,-3.43218 -4.44235,-0.27199 h -10.31875 m 25.92917,12.96459 8.99583,-5.02418 13.22917,-7.67582 c -2.90513,-1.21894 -7.95232,-0.26459 -11.1125,-0.26459 -1.14142,0 -2.91307,-0.32967 -3.86848,0.42413 -1.08426,0.85566 -1.73593,2.62837 -2.40718,3.80921 -1.60099,2.81622 -3.72401,5.69145 -4.83684,8.73125 m 26.9875,-12.96459 v 0.26459 l 13.22916,7.67582 8.99584,5.02418 -5.13848,-9.26042 -2.32542,-3.43218 -4.44235,-0.27199 h -10.31875 m 25.92916,12.96459 8.99584,-5.02418 13.22916,-7.67582 c -2.90512,-1.21894 -7.95231,-0.26459 -11.1125,-0.26459 -1.14141,0 -2.91306,-0.32967 -3.86847,0.42413 -1.08426,0.85566 -1.73593,2.62837 -2.40718,3.80921 -1.60099,2.81622 -3.72401,5.69145 -4.83685,8.73125 m 26.9875,-12.96459 v 0.26459 l 13.22917,7.67582 8.99583,5.02418 -5.13821,-9.26042 -2.32568,-3.43218 -4.44236,-0.27199 h -10.31875 m 25.92917,12.96459 8.99583,-5.02418 13.22917,-7.67582 c -2.90513,-1.21894 -7.95338,-0.26459 -11.1125,-0.26459 -1.14035,0 -2.91306,-0.32967 -3.86821,0.42413 -1.08479,0.85566 -1.73566,2.62837 -2.40771,3.80921 -1.60073,2.81596 -3.72268,5.69145 -4.83658,8.73125 M 1.96378,124.61875 l 5.13938,9.26042 2.32531,3.43217 4.44156,0.27199 h 10.31875 v -0.26458 l -22.225,-12.7 m 48.94792,0 -21.96042,12.7 v 0.26458 h 10.31875 c 1.26259,0 3.31708,0.3855 4.44236,-0.27199 1.98226,-1.15808 3.50573,-5.42845 4.62782,-7.40092 0.80169,-1.40944 2.72706,-3.65099 2.57149,-5.29167 m 3.96875,0 5.13847,9.26042 2.32543,3.43217 4.44235,0.27199 h 10.31875 v -0.26458 l -22.225,-12.7 m 48.94792,0 -21.96042,12.7 v 0.26458 H 92.1867 c 1.25836,0 3.32184,0.38788 4.44156,-0.27199 1.95395,-1.15094 3.35412,-5.21335 4.50109,-7.13634 0.84614,-1.41843 2.85644,-3.89599 2.69902,-5.55625 m 3.96875,0 5.13926,9.26042 2.32543,3.43217 4.44156,0.27199 h 10.31875 v -0.26458 l -22.225,-12.7 m 48.94792,0 -21.96041,12.7 v 0.26458 h 10.31875 c 1.26259,0 3.31708,0.3855 4.44235,-0.27199 1.98226,-1.15808 3.50573,-5.42845 4.62783,-7.40092 0.80169,-1.40944 2.72706,-3.65099 2.57148,-5.29167 m 3.96875,0 5.13848,9.26042 2.32542,3.43217 4.44235,0.27199 h 10.31875 v -0.26458 l -22.225,-12.7 m 48.94792,0 -21.96042,12.7 v 0.26458 h 10.31875 c 1.25836,0 3.32185,0.38788 4.44156,-0.27199 1.95395,-1.15094 3.35413,-5.21335 4.5011,-7.13634 0.84613,-1.41843 2.85644,-3.89599 2.69901,-5.55625 m 3.96875,0 5.13927,9.26042 2.32542,3.43217 4.44156,0.27199 h 10.31875 v -0.26458 l -22.225,-12.7 m 48.94792,0 -21.96042,12.7 v 0.26458 h 10.31875 c 1.26259,0 3.31708,0.3855 4.44235,-0.27199 1.98226,-1.15808 3.50573,-5.42845 4.62783,-7.40092 0.80169,-1.40944 2.72706,-3.65099 2.57149,-5.29167 m 3.96875,0 5.13821,9.26042 2.32568,3.43217 4.44236,0.27199 h 10.31875 v -0.26458 l -22.225,-12.7 m 48.94791,0 -21.96041,12.7 v 0.26458 h 10.31875 c 1.25941,0 3.32052,0.38788 4.44235,-0.27199 1.95263,-1.15094 3.35227,-5.21335 4.50056,-7.13634 0.84667,-1.41843 2.85486,-3.89599 2.69875,-5.55625 M 0.64087,125.14792 V 138.1125 H 8.0492 C 6.90125,134.2099 3.42164,128.1176 0.64087,125.14792 m 51.59375,0 -7.14375,12.96458 h 7.40833 c 0,-3.64807 1.14009,-9.61707 -0.26458,-12.96458 m 1.32291,0 v 12.96458 h 7.40834 c -1.14803,-3.9026 -4.62757,-9.9949 -7.40834,-12.96458 m 51.59375,0 -7.14375,12.96458 h 7.40834 c 0,-3.64807 1.14009,-9.61707 -0.26459,-12.96458 m 1.32292,0 v 12.96458 h 7.40833 c -1.14802,-3.9026 -4.62756,-9.9949 -7.40833,-12.96458 m 51.59376,0 -7.14375,12.96458 h 7.40833 c 0,-3.64807 1.14009,-9.61707 -0.26458,-12.96458 m 1.32292,0 v 12.96458 h 7.40833 c -1.14803,-3.9026 -4.62756,-9.9949 -7.40833,-12.96458 m 51.59375,0 -7.14375,12.96458 h 7.40833 c 0,-3.64807 1.14009,-9.61707 -0.26458,-12.96458 m 1.32291,0 v 12.96458 h 7.40834 c -1.14803,-3.9026 -4.62757,-9.9949 -7.40834,-12.96458 m 51.59375,0 -7.14375,12.96458 h 7.40834 c 0,-3.64807 1.14035,-9.61707 -0.26459,-12.96458 m 1.32292,0 v 12.96458 h 7.40833 c -1.14829,-3.9026 -4.62756,-9.9949 -7.40833,-12.96458 m 51.59375,0 -7.14375,12.96458 h 7.40833 c 0,-3.64807 1.14036,-9.61707 -0.26458,-12.96458 z"
     id="path2652" />
</svg>
