<?xml version="1.0" encoding="UTF-8" standalone="no"?>
<!-- Created with Inkscape (http://www.inkscape.org/) -->

<svg
   width="103.55142mm"
   height="52.028416mm"
   viewBox="0 0 103.55142 52.028417"
   version="1.1"
   id="svg5"
   xml:space="preserve"
   xmlns="http://www.w3.org/2000/svg"
   xmlns:svg="http://www.w3.org/2000/svg"><path
     style="fill:none;stroke:#000000;stroke-width:1.26499;stroke-linecap:round;stroke-linejoin:round;stroke-dasharray:none;stroke-opacity:1"
     d="m 21.999423,34.023782 c -1.365154,-1.706437 -3.412887,1.877094 -0.42661,2.47435 2.986277,0.597255 5.253006,-6.333879 -0.170644,-7.593684 -5.675943,-1.318416 -6.143201,4.522079 -6.143201,4.522079 0,0 -2.90702,-0.913556 -3.729186,2.153757"
     id="path22029" /><path
     style="fill:none;stroke:#000000;stroke-width:1.26499;stroke-linecap:round;stroke-linejoin:round;stroke-dasharray:none;stroke-opacity:1"
     d="m 24.729734,33.170564 c 3.839501,-0.984227 4.180791,2.900958 4.180791,2.900958 0,0 3.748112,-1.456549 4.351431,2.474338 0.504809,3.28905 -3.212547,4.148974 -4.180788,2.47435 -0.978173,-1.691801 0.938544,-2.218375 1.450477,-1.19451"
     id="path22031" /><path
     style="fill:none;stroke:#000000;stroke-width:1.26499;stroke-linecap:round;stroke-linejoin:round;stroke-dasharray:none;stroke-opacity:1"
     d="m 10.83513,39.016528 c -2.1719504,-1.085987 -1.6846778,2.617392 0.784315,1.689294 2.873649,-1.080203 1.16015,-5.014658 -1.327305,-5.4902 C 6.1895705,34.431301 5.887912,38.59421 5.887912,38.59421"
     id="path22033" /><path
     style="fill:none;stroke:#000000;stroke-width:1.26499;stroke-linecap:round;stroke-linejoin:round;stroke-dasharray:none;stroke-opacity:1"
     d="M 5.8879109,38.171881 C 4.3796138,37.508224 3.663942,38.8611 3.7461291,39.710354 c 0.1809958,1.870272 2.3227787,1.417797 2.3227787,1.417797 0,0 0,1.508292 1.7496248,2.111612 1.7496276,0.603319 2.5942724,-0.18099 2.5942724,-0.18099 0,0 0.06033,1.568618 1.689294,2.111611 1.628961,0.542994 2.473607,0 2.473607,0"
     id="path22035" /><path
     style="fill:none;stroke:#000000;stroke-width:1.26499;stroke-linecap:round;stroke-linejoin:round;stroke-dasharray:none;stroke-opacity:1"
     d="m 16.626992,42.274452 c 1.206639,1.900453 2.594274,-0.42233 1.146309,-1.38764 -1.447969,-0.9653 -5.24888,1.990959 -2.11162,5.309209 3.13726,3.318262 8.265475,-0.301653 8.44647,-2.594267 0.180996,-2.292613 -0.844648,-4.102571 -0.844648,-4.102571"
     id="path22037" /><path
     style="fill:none;stroke:#000000;stroke-width:1.26499;stroke-linecap:round;stroke-linejoin:round;stroke-dasharray:none;stroke-opacity:1"
     d="m 24.108151,43.722418 c 2.835601,1.085975 4.917049,-1.055806 5.06788,-2.473603"
     id="path22039" /><path
     style="fill:none;stroke:#000000;stroke-width:1.26499;stroke-linecap:round;stroke-linejoin:round;stroke-dasharray:none;stroke-opacity:1"
     d="m 47.721932,34.023782 c 1.365154,-1.706437 3.412887,1.877094 0.42661,2.47435 -2.986277,0.597255 -5.253006,-6.333879 0.170644,-7.593684 5.675943,-1.318416 6.143201,4.522079 6.143201,4.522079 0,0 2.907019,-0.913556 3.729186,2.153757"
     id="path22041" /><path
     style="fill:none;stroke:#000000;stroke-width:1.26499;stroke-linecap:round;stroke-linejoin:round;stroke-dasharray:none;stroke-opacity:1"
     d="m 44.991621,33.170564 c -3.839501,-0.984227 -4.180791,2.900958 -4.180791,2.900958 0,0 -3.748112,-1.456549 -4.351431,2.474338 -0.504809,3.28905 3.212547,4.148974 4.180787,2.47435 0.978174,-1.691801 -0.938543,-2.218375 -1.450477,-1.19451"
     id="path22043" /><path
     style="fill:none;stroke:#000000;stroke-width:1.26499;stroke-linecap:round;stroke-linejoin:round;stroke-dasharray:none;stroke-opacity:1"
     d="m 58.886225,39.016528 c 2.17195,-1.085987 1.684678,2.617392 -0.784315,1.689294 -2.87365,-1.080203 -1.160151,-5.014658 1.327304,-5.4902 4.10257,-0.784321 4.404229,3.378588 4.404229,3.378588"
     id="path22045" /><path
     style="fill:none;stroke:#000000;stroke-width:1.26499;stroke-linecap:round;stroke-linejoin:round;stroke-dasharray:none;stroke-opacity:1"
     d="m 63.833444,38.171881 c 1.508297,-0.663657 2.223969,0.689219 2.141782,1.538473 -0.180996,1.870272 -2.322779,1.417797 -2.322779,1.417797 0,0 0,1.508292 -1.749625,2.111612 -1.749627,0.603319 -2.594273,-0.18099 -2.594273,-0.18099 0,0 -0.06033,1.568618 -1.689294,2.111611 -1.628961,0.542994 -2.473606,0 -2.473606,0"
     id="path22047" /><path
     style="fill:none;stroke:#000000;stroke-width:1.26499;stroke-linecap:round;stroke-linejoin:round;stroke-dasharray:none;stroke-opacity:1"
     d="m 53.094363,42.274452 c -1.20664,1.900453 -2.594274,-0.42233 -1.146309,-1.38764 1.447969,-0.9653 5.24888,1.990959 2.11162,5.309209 -3.13726,3.318262 -8.265476,-0.301653 -8.44647,-2.594267 -0.180996,-2.292613 0.844648,-4.102571 0.844648,-4.102571"
     id="path22049" /><path
     style="fill:none;stroke:#000000;stroke-width:1.26499;stroke-linecap:round;stroke-linejoin:round;stroke-dasharray:none;stroke-opacity:1"
     d="m 45.613204,43.722418 c -2.835601,1.085975 -4.91705,-1.055806 -5.06788,-2.473603"
     id="path22051" /><path
     style="fill:none;stroke:#000000;stroke-width:0.865;stroke-linecap:round;stroke-linejoin:round;stroke-dasharray:none;stroke-opacity:1"
     d="m 39.661124,50.661622 c 0.639917,-1.109182 4.516012,-2.139122 5.119331,1.791766 0.504809,3.289049 -3.212547,4.148973 -4.180787,2.474349 -0.978174,-1.691801 0.938543,-2.218375 1.450477,-1.19451"
     id="path22779" /><path
     style="fill:none;stroke:#000000;stroke-width:0.865;stroke-linecap:round;stroke-linejoin:round;stroke-dasharray:none;stroke-opacity:1"
     d="m 40.99953,55.885701 c -1.587975,2.943256 -5.995216,5.638385 -9.461715,3.689222 -5.599542,-3.148561 -1.937729,-8.280209 0.720884,-6.606146 1.653697,1.041299 0.197976,2.40059 -0.730598,1.731172"
     id="path22781" /><path
     style="fill:none;stroke:#000000;stroke-width:0.865;stroke-linecap:round;stroke-linejoin:round;stroke-dasharray:none;stroke-opacity:1"
     d="m 28.736471,49.759319 c -0.873927,-0.935958 1.228216,-5.019159 5.171206,-4.500795 3.634371,0.477792 3.627079,4.710835 1.742684,5.147765 -1.903724,0.441419 -1.847543,-1.545517 -0.718804,-1.736105"
     id="path22783" /><path
     style="fill:none;stroke:#000000;stroke-width:0.865;stroke-linecap:round;stroke-linejoin:round;stroke-dasharray:none;stroke-opacity:1"
     d="m 28.437842,56.286468 c -6.633177,0.642503 -5.768204,-7.834789 -0.332077,-7.359084"
     id="path22785" /><path
     style="fill:none;stroke:#000000;stroke-width:0.865;stroke-linecap:round;stroke-linejoin:round;stroke-dasharray:none;stroke-opacity:1"
     d="m 37.107203,48.036999 c 1.438547,-0.588777 3.185289,0.416545 3.364036,1.627814"
     id="path22787" /><path
     style="fill:none;stroke:#000000;stroke-width:0.865;stroke-linecap:round;stroke-linejoin:round;stroke-dasharray:none;stroke-opacity:1"
     d="m 29.993066,27.620329 c -0.639917,1.109182 -4.516012,2.139122 -5.119331,-1.791765 -0.504809,-3.28905 3.212547,-4.148973 4.180787,-2.47435 0.978174,1.691801 -0.938543,2.218375 -1.450477,1.194511"
     id="path22789" /><path
     style="fill:none;stroke:#000000;stroke-width:0.865;stroke-linecap:round;stroke-linejoin:round;stroke-dasharray:none;stroke-opacity:1"
     d="m 28.654661,22.39625 c 1.587974,-2.943256 5.995215,-5.638385 9.461714,-3.689221 5.599542,3.14856 1.937729,8.280209 -0.720884,6.606145 -1.653696,-1.041299 -0.197976,-2.400589 0.730598,-1.731171"
     id="path22791" /><path
     style="fill:none;stroke:#000000;stroke-width:0.865;stroke-linecap:round;stroke-linejoin:round;stroke-dasharray:none;stroke-opacity:1"
     d="m 40.917719,28.522632 c 0.873927,0.935958 -1.228216,5.019159 -5.171206,4.500796 -3.63437,-0.477793 -3.627078,-4.710835 -1.742684,-5.147765 1.903724,-0.44142 1.847543,1.545516 0.718804,1.736104"
     id="path22793" /><path
     style="fill:none;stroke:#000000;stroke-width:0.865;stroke-linecap:round;stroke-linejoin:round;stroke-dasharray:none;stroke-opacity:1"
     d="m 41.216348,21.995483 c 6.633177,-0.642502 5.768205,7.83479 0.332077,7.359085"
     id="path22795" /><path
     style="fill:none;stroke:#000000;stroke-width:0.865;stroke-linecap:round;stroke-linejoin:round;stroke-dasharray:none;stroke-opacity:1"
     d="M 32.546987,30.244952 C 31.10844,30.833729 29.361698,29.828407 29.182951,28.617139"
     id="path22797" /><path
     id="path22799"
     style="fill:#000000;fill-opacity:0.25;stroke:none;stroke-width:0.865;stroke-linecap:round;stroke-linejoin:round;stroke-dasharray:none;stroke-opacity:1"
     d="m 38.291944,18.890386 c -0.812459,-0.456836 -1.676925,-0.658503 -2.54433,-0.661698 -2.83352,-0.0105 -6.184525,1.765783 -7.200241,4.498009 -0.11763,-0.07067 -0.249054,-0.01539 -0.912449,-0.02286 -1.35838,-0.01528 -2.901179,1.094511 -2.585912,3.307871 0.304692,2.139122 2.277364,2.599165 4.093752,2.394957 0.111696,1.28455 2.692782,2.087413 3.558057,1.643195 0.528882,1.221251 1.155218,2.648809 3.220955,3.15677 3.861872,0.949626 6.045148,-3.564522 5.486702,-4.08467 6.826105,0.628194 5.170024,-7.857915 -0.311277,-7.107786 z" /><path
     id="path23536"
     style="fill:#000000;fill-opacity:0.40000001;stroke:none;stroke-width:0.865;stroke-linecap:round;stroke-linejoin:round;stroke-dasharray:none;stroke-opacity:1"
     d="m 31.369871,59.381559 c 0.81246,0.456837 1.676926,0.658503 2.544331,0.661698 2.83352,0.0105 6.184525,-1.765783 7.200241,-4.498008 0.11763,0.07067 0.249054,0.01539 0.912448,0.02286 1.358381,0.01528 2.925081,-1.098045 2.585913,-3.307872 C 44.009485,48.32935 42.33544,49.661072 40.519051,49.865281 40.407355,48.58073 37.82627,47.777867 36.960995,48.222086 36.432113,47.000835 35.805777,45.573277 33.74004,45.065315 c -3.861872,-0.949626 -6.045149,3.564523 -5.486702,4.084671 -5.918182,-0.809779 -5.713522,8.043406 0.396598,7.193103 z" /><path
     id="path23538"
     style="fill:#000000;fill-opacity:0.15000001;stroke:none;stroke-width:0.865;stroke-linecap:round;stroke-linejoin:round;stroke-dasharray:none;stroke-opacity:1"
     d="m 5.9571733,41.312138 c 0.810561,2.303704 2.7225251,2.38382 4.4716307,1.786564 0.27708,1.58905 2.802228,2.734441 4.264939,2.14114 2.747512,2.743257 7.878738,2.764085 9.505121,-1.384072 2.467347,0.556731 4.303577,-0.849289 5.108907,-2.318141 1.633828,0.914781 4.642962,-0.757242 4.194806,-3.495182 -0.370072,-2.260893 -1.973783,-2.490396 -4.500762,-2.237756 -0.155394,-1.589225 -3.106311,-3.307755 -4.31009,-2.758173 0.117434,-1.254942 -0.583286,-3.618353 -3.457162,-4.246792 -2.68634,-0.587424 -5.407444,0.696368 -6.080017,4.527163 -1.909745,-0.520638 -3.562724,0.993789 -3.515555,2.232765 -2.5168488,-1.129834 -5.4150172,0.410388 -5.9804453,2.979501 -2.1330552,-2.047741 -3.4982104,2.90097 0.2986276,2.772983 z" /><path
     id="path23540"
     style="fill:#000000;fill-opacity:0.1;stroke:none;stroke-width:0.865;stroke-linecap:round;stroke-linejoin:round;stroke-dasharray:none;stroke-opacity:1"
     d="m 63.856834,41.312138 c -0.810561,2.303704 -2.722525,2.38382 -4.471631,1.786564 -0.27708,1.58905 -2.802228,2.734441 -4.264938,2.14114 -2.747513,2.743257 -7.878739,2.764085 -9.505122,-1.384072 -2.467347,0.556731 -4.303577,-0.849289 -5.108907,-2.318141 -1.633828,0.914781 -4.642962,-0.757242 -4.194806,-3.495182 0.370072,-2.260893 1.973783,-2.490396 4.500762,-2.237756 0.155394,-1.589225 3.106311,-3.307755 4.310091,-2.758173 -0.117435,-1.254942 0.583285,-3.618353 3.457161,-4.246792 2.68634,-0.587424 5.407444,0.696368 6.080017,4.527163 1.909745,-0.520638 3.562724,0.993789 3.515555,2.232765 2.516849,-1.129834 5.415018,0.410388 5.980446,2.979501 2.133055,-2.047741 3.49821,2.90097 -0.298628,2.772983 z" /><path
     style="fill:none;stroke:#000000;stroke-width:1.26499;stroke-linecap:round;stroke-linejoin:round;stroke-dasharray:none;stroke-opacity:1"
     d="M 12.970746,7.9603876 C 14.3359,6.2539509 16.383634,9.837482 13.397357,10.434737 10.411079,11.031992 8.1443507,4.1008584 13.568,2.841054 c 5.675943,-1.3184161 6.143202,4.5220785 6.143202,4.5220785 0,0 2.907019,-0.9135562 3.729186,2.1537571"
     id="path23554" /><path
     style="fill:none;stroke:#000000;stroke-width:1.26499;stroke-linecap:round;stroke-linejoin:round;stroke-dasharray:none;stroke-opacity:1"
     d="M 10.240436,7.1071693 C 6.4009346,6.1229431 6.0596449,10.008128 6.0596449,10.008128 c 0,0 -3.7481119,-1.4565493 -4.3514312,2.474338 -0.5048092,3.28905 3.2125472,4.148974 4.1807875,2.47435 0.9781738,-1.691802 -0.9385437,-2.218375 -1.450477,-1.19451"
     id="path23556" /><path
     style="fill:none;stroke:#000000;stroke-width:1.26499;stroke-linecap:round;stroke-linejoin:round;stroke-dasharray:none;stroke-opacity:1"
     d="m 24.135039,12.953133 c 2.171951,-1.085986 1.684679,2.617393 -0.784315,1.689295 -2.873649,-1.080202 -1.16015,-5.0146588 1.327305,-5.4902005 4.10257,-0.784321 4.404229,3.3785885 4.404229,3.3785885"
     id="path23558" /><path
     style="fill:none;stroke:#000000;stroke-width:1.26499;stroke-linecap:round;stroke-linejoin:round;stroke-dasharray:none;stroke-opacity:1"
     d="m 29.082259,12.108486 c 1.508297,-0.663657 2.223969,0.68922 2.141781,1.538474 -0.180995,1.870272 -2.322778,1.417797 -2.322778,1.417797 0,0 0,1.508293 -1.749625,2.111612 -1.749627,0.603319 -2.594273,-0.18099 -2.594273,-0.18099 0,0 -0.06033,1.568619 -1.689294,2.111612 -1.628961,0.542993 -2.473607,0 -2.473607,0"
     id="path23560" /><path
     style="fill:none;stroke:#000000;stroke-width:1.26499;stroke-linecap:round;stroke-linejoin:round;stroke-dasharray:none;stroke-opacity:1"
     d="m 18.343178,16.211058 c -1.20664,1.900453 -2.594274,-0.422329 -1.146309,-1.38764 1.447968,-0.965299 5.24888,1.990959 2.11162,5.30921 -3.137261,3.318262 -8.265476,-0.301654 -8.446471,-2.594268 -0.180995,-2.292613 0.844649,-4.102571 0.844649,-4.102571"
     id="path23562" /><path
     style="fill:none;stroke:#000000;stroke-width:1.26499;stroke-linecap:round;stroke-linejoin:round;stroke-dasharray:none;stroke-opacity:1"
     d="M 10.862018,17.659024 C 8.026418,18.744999 5.9449694,16.603218 5.7941389,15.185421"
     id="path23564" /><path
     style="fill:none;stroke:#000000;stroke-width:0.865;stroke-linecap:round;stroke-linejoin:round;stroke-dasharray:none;stroke-opacity:1"
     d="m 4.9099389,24.598229 c 0.6399172,-1.109182 4.5160123,-2.139122 5.1193311,1.791765 0.504809,3.289049 -3.2125471,4.148973 -4.1807874,2.47435 -0.9781738,-1.691801 0.9385437,-2.218375 1.450477,-1.194511"
     id="path23566" /><path
     style="fill:none;stroke:#000000;stroke-width:0.865;stroke-linecap:round;stroke-linejoin:round;stroke-dasharray:none;stroke-opacity:1"
     d="m 6.2483444,29.822308 c -1.5879746,2.943256 -5.99521532,5.638385 -9.4617141,3.689221 -5.5995429,-3.14856 -1.9377301,-8.280209 0.7208835,-6.606145 1.65369657,1.041299 0.1979764,2.400589 -0.7305977,1.731171"
     id="path23568" /><path
     style="fill:none;stroke:#000000;stroke-width:0.865;stroke-linecap:round;stroke-linejoin:round;stroke-dasharray:none;stroke-opacity:1"
     d="m -6.0147146,23.695926 c -0.8739273,-0.935958 1.2282163,-5.019159 5.17120664,-4.500796 3.63437046,0.477793 3.62707836,4.710835 1.74268374,5.147765 -1.90372398,0.44142 -1.84754247,-1.545516 -0.7188042,-1.736104"
     id="path23570" /><path
     style="fill:none;stroke:#000000;stroke-width:0.865;stroke-linecap:round;stroke-linejoin:round;stroke-dasharray:none;stroke-opacity:1"
     d="M -6.3133434,30.223075 C -12.94652,30.865577 -12.081548,22.388285 -6.6454203,22.86399"
     id="path23572" /><path
     style="fill:none;stroke:#000000;stroke-width:0.865;stroke-linecap:round;stroke-linejoin:round;stroke-dasharray:none;stroke-opacity:1"
     d="m 2.3560178,21.973606 c 1.4385471,-0.588777 3.1852891,0.416545 3.3640365,1.627813"
     id="path23574" /><path
     style="fill:none;stroke:#000000;stroke-width:0.865;stroke-linecap:round;stroke-linejoin:round;stroke-dasharray:none;stroke-opacity:1"
     d="m -5.9287487,1.5569351 c -0.6399173,1.1091815 -4.5160123,2.1391215 -5.1193313,-1.79176573 -0.504809,-3.28904927 3.2125473,-4.14897317 4.1807876,-2.47434957 0.9781737,1.6918012 -0.9385438,2.21837473 -1.4504771,1.1945103"
     id="path23576" /><path
     style="fill:none;stroke:#000000;stroke-width:0.865;stroke-linecap:round;stroke-linejoin:round;stroke-dasharray:none;stroke-opacity:1"
     d="m -7.2671543,-3.6671442 c 1.5879746,-2.943256 5.9952159,-5.6383854 9.4617147,-3.6892215 5.5995424,3.1485606 1.9377295,8.2802091 -0.7208835,6.60614518 C -0.18001974,-1.7915192 1.2757005,-3.1508097 2.2042746,-2.4813918"
     id="path23578" /><path
     style="fill:none;stroke:#000000;stroke-width:0.865;stroke-linecap:round;stroke-linejoin:round;stroke-dasharray:none;stroke-opacity:1"
     d="M 4.9959047,2.4592376 C 5.869832,3.3951958 3.7676885,7.4783969 -0.17530134,6.9600333 -3.8096718,6.4822408 -3.8023797,2.2491983 -1.9179851,1.8122685 -0.01426112,1.3708489 -0.07044262,3.357785 -1.1991809,3.5483726"
     id="path23580" /><path
     style="fill:none;stroke:#000000;stroke-width:0.865;stroke-linecap:round;stroke-linejoin:round;stroke-dasharray:none;stroke-opacity:1"
     d="M 5.2945335,-4.067911 C 11.92771,-4.7104137 11.062738,3.7668783 5.6266104,3.2911733"
     id="path23582" /><path
     style="fill:none;stroke:#000000;stroke-width:0.865;stroke-linecap:round;stroke-linejoin:round;stroke-dasharray:none;stroke-opacity:1"
     d="M -3.3748271,4.1815575 C -4.8133742,4.7703347 -6.5601168,3.7650124 -6.7388642,2.5537443"
     id="path23584" /><path
     id="path23586"
     style="fill:#000000;fill-opacity:0.40000001;stroke:none;stroke-width:0.865;stroke-linecap:round;stroke-linejoin:round;stroke-dasharray:none;stroke-opacity:1"
     d="M 2.37013,-7.1730084 C 1.5576705,-7.6298448 0.69320438,-7.831511 -0.17420054,-7.8347063 -3.0077207,-7.8452023 -6.3587258,-6.068923 -7.3744422,-3.3366976 c -0.1176294,-0.07067 -0.2490536,-0.015394 -0.9124482,-0.022857 -1.358381,-0.015277 -2.9011786,1.0945111 -2.5859126,3.30787134 0.304692,2.13912186 2.2773643,2.59916516 4.0937525,2.39495676 0.111696,1.2845504 2.6927824,2.0874135 3.5580567,1.6431951 0.5288825,1.2212507 1.1552185,2.648809 3.220955280462,3.1567704 C 3.8618336,8.0928648 6.0451101,3.5787164 5.4866639,3.0585685 12.312769,3.6867623 10.656687,-4.799346 5.1753868,-4.0492173 Z" /><path
     id="path23588"
     style="fill:#000000;fill-opacity:0.40000001;stroke:none;stroke-width:0.865;stroke-linecap:round;stroke-linejoin:round;stroke-dasharray:none;stroke-opacity:1"
     d="m -3.3813137,33.318166 c 0.8124595,0.456836 1.6769256,0.658503 2.54433047,0.661698 2.83352023,0.0105 6.18452483,-1.765783 7.20024113,-4.498009 0.1176295,0.07067 0.2490536,0.01539 0.9124483,0.02286 1.3583809,0.01528 2.9250808,-1.098044 2.585913,-3.307871 -0.60332,-3.93089 -2.2773648,-2.599168 -4.093753,-2.39496 -0.1116959,-1.28455 -2.6927818,-2.087413 -3.5580561,-1.643195 -0.5288825,-1.22125 -1.1552185,-2.648809 -3.2209553,-3.15677 -3.8618726,-0.949626 -6.0451491,3.564522 -5.486703,4.08467 -5.9181818,-0.809778 -5.7135218,8.043406 0.3965989,7.193103 z" /><path
     id="path23592"
     style="fill:#000000;fill-opacity:0.1;stroke:none;stroke-width:0.865;stroke-linecap:round;stroke-linejoin:round;stroke-dasharray:none;stroke-opacity:1"
     d="m 29.105649,15.248744 c -0.810561,2.303704 -2.722525,2.38382 -4.471631,1.786565 -0.277081,1.58905 -2.802229,2.734441 -4.264939,2.141139 -2.747512,2.743258 -7.878739,2.764085 -9.505121,-1.384072 C 8.3966113,18.349107 6.5603807,16.943088 5.7550512,15.474235 4.1212227,16.389016 1.1120885,14.716993 1.5602451,11.979053 1.9303171,9.7181593 3.534028,9.4886565 6.061007,9.7412961 6.2164006,8.1520714 9.1673182,6.4335414 10.371097,6.9831235 10.253662,5.7281821 10.954383,3.3647704 13.828258,2.7363319 16.514598,2.1489075 19.235703,3.4326999 19.908275,7.2634947 21.81802,6.742857 23.471,8.2572834 23.42383,9.49626 c 2.51685,-1.1298345 5.415018,0.4103877 5.980446,2.979501 2.133056,-2.047741 3.498211,2.900971 -0.298627,2.772983 z" /><path
     style="fill:none;stroke:#000000;stroke-width:1.26499;stroke-linecap:round;stroke-linejoin:round;stroke-dasharray:none;stroke-opacity:1"
     d="M 56.509281,7.9603876 C 55.144127,6.2539509 53.096393,9.837482 56.08267,10.434737 c 2.986278,0.597255 5.253007,-6.3338786 -0.170643,-7.593683 -5.675943,-1.3184161 -6.143202,4.5220785 -6.143202,4.5220785 0,0 -2.907019,-0.9135562 -3.729186,2.1537571"
     id="path23594" /><path
     style="fill:none;stroke:#000000;stroke-width:1.26499;stroke-linecap:round;stroke-linejoin:round;stroke-dasharray:none;stroke-opacity:1"
     d="m 59.239591,7.1071693 c 3.839502,-0.9842262 4.180791,2.9009587 4.180791,2.9009587 0,0 3.748112,-1.4565493 4.351431,2.474338 0.50481,3.28905 -3.212547,4.148974 -4.180787,2.47435 -0.978174,-1.691802 0.938544,-2.218375 1.450477,-1.19451"
     id="path23596" /><path
     style="fill:none;stroke:#000000;stroke-width:1.26499;stroke-linecap:round;stroke-linejoin:round;stroke-dasharray:none;stroke-opacity:1"
     d="m 45.344988,12.953133 c -2.171951,-1.085986 -1.684679,2.617393 0.784315,1.689295 2.873649,-1.080202 1.16015,-5.0146588 -1.327305,-5.4902005 -4.10257,-0.784321 -4.404229,3.3785885 -4.404229,3.3785885"
     id="path23598" /><path
     style="fill:none;stroke:#000000;stroke-width:1.26499;stroke-linecap:round;stroke-linejoin:round;stroke-dasharray:none;stroke-opacity:1"
     d="m 40.397768,12.108486 c -1.508297,-0.663657 -2.223969,0.68922 -2.141781,1.538474 0.180995,1.870272 2.322778,1.417797 2.322778,1.417797 0,0 0,1.508293 1.749625,2.111612 1.749627,0.603319 2.594273,-0.18099 2.594273,-0.18099 0,0 0.06033,1.568619 1.689294,2.111612 1.628961,0.542993 2.473607,0 2.473607,0"
     id="path23600" /><path
     style="fill:none;stroke:#000000;stroke-width:1.26499;stroke-linecap:round;stroke-linejoin:round;stroke-dasharray:none;stroke-opacity:1"
     d="m 51.136849,16.211058 c 1.20664,1.900453 2.594274,-0.422329 1.146309,-1.38764 -1.447968,-0.965299 -5.24888,1.990959 -2.11162,5.30921 3.137261,3.318262 8.265476,-0.301654 8.446471,-2.594268 0.180995,-2.292613 -0.844649,-4.102571 -0.844649,-4.102571"
     id="path23602" /><path
     style="fill:none;stroke:#000000;stroke-width:1.26499;stroke-linecap:round;stroke-linejoin:round;stroke-dasharray:none;stroke-opacity:1"
     d="m 58.618009,17.659024 c 2.8356,1.085975 4.917049,-1.055806 5.067879,-2.473603"
     id="path23604" /><path
     style="fill:none;stroke:#000000;stroke-width:1.26499;stroke-linecap:round;stroke-linejoin:round;stroke-dasharray:none;stroke-opacity:1"
     d="m 82.231789,7.9603876 c 1.365154,-1.7064367 3.412888,1.8770944 0.426611,2.4743494 -2.986278,0.597255 -5.253007,-6.3338786 0.170643,-7.593683 5.675943,-1.3184161 6.143202,4.5220785 6.143202,4.5220785 0,0 2.907019,-0.9135562 3.729186,2.1537571"
     id="path23606" /><path
     style="fill:none;stroke:#000000;stroke-width:1.26499;stroke-linecap:round;stroke-linejoin:round;stroke-dasharray:none;stroke-opacity:1"
     d="m 79.501479,7.1071693 c -3.839502,-0.9842262 -4.180791,2.9009587 -4.180791,2.9009587 0,0 -3.748112,-1.4565493 -4.351432,2.474338 -0.504809,3.28905 3.212548,4.148974 4.180788,2.47435 0.978174,-1.691802 -0.938544,-2.218375 -1.450477,-1.19451"
     id="path23608" /><path
     style="fill:none;stroke:#000000;stroke-width:1.26499;stroke-linecap:round;stroke-linejoin:round;stroke-dasharray:none;stroke-opacity:1"
     d="m 93.396082,12.953133 c 2.17195,-1.085986 1.684676,2.617393 -0.784315,1.689295 -2.873649,-1.080202 -1.16015,-5.0146588 1.327309,-5.4902005 4.102571,-0.784321 4.404225,3.3785885 4.404225,3.3785885"
     id="path23610" /><path
     style="fill:none;stroke:#000000;stroke-width:1.26499;stroke-linecap:round;stroke-linejoin:round;stroke-dasharray:none;stroke-opacity:1"
     d="m 98.343301,12.108486 c 1.508289,-0.663657 2.223969,0.68922 2.141779,1.538474 -0.18099,1.870272 -2.322781,1.417797 -2.322781,1.417797 0,0 0,1.508293 -1.74962,2.111612 -1.749632,0.603319 -2.594272,-0.18099 -2.594272,-0.18099 0,0 -0.06033,1.568619 -1.689294,2.111612 -1.628961,0.542993 -2.473607,0 -2.473607,0"
     id="path23612" /><path
     style="fill:none;stroke:#000000;stroke-width:1.26499;stroke-linecap:round;stroke-linejoin:round;stroke-dasharray:none;stroke-opacity:1"
     d="m 87.604221,16.211058 c -1.20664,1.900453 -2.594274,-0.422329 -1.146309,-1.38764 1.447968,-0.965299 5.24888,1.990959 2.111619,5.30921 -3.13726,3.318262 -8.265475,-0.301654 -8.44647,-2.594268 -0.180995,-2.292613 0.844649,-4.102571 0.844649,-4.102571"
     id="path23614" /><path
     style="fill:none;stroke:#000000;stroke-width:1.26499;stroke-linecap:round;stroke-linejoin:round;stroke-dasharray:none;stroke-opacity:1"
     d="m 80.123061,17.659024 c -2.8356,1.085975 -4.917049,-1.055806 -5.067879,-2.473603"
     id="path23616" /><path
     style="fill:none;stroke:#000000;stroke-width:0.865;stroke-linecap:round;stroke-linejoin:round;stroke-dasharray:none;stroke-opacity:1"
     d="m 74.170982,24.598229 c 0.639917,-1.109182 4.516012,-2.139122 5.119331,1.791765 0.504809,3.289049 -3.212547,4.148973 -4.180788,2.47435 -0.978173,-1.691801 0.938544,-2.218375 1.450477,-1.194511"
     id="path23618" /><path
     style="fill:none;stroke:#000000;stroke-width:0.865;stroke-linecap:round;stroke-linejoin:round;stroke-dasharray:none;stroke-opacity:1"
     d="m 75.509387,29.822308 c -1.587974,2.943256 -5.995215,5.638385 -9.461714,3.689221 -5.599542,-3.14856 -1.937729,-8.280209 0.720884,-6.606145 1.653696,1.041299 0.197976,2.400589 -0.730598,1.731171"
     id="path23620" /><path
     style="fill:none;stroke:#000000;stroke-width:0.865;stroke-linecap:round;stroke-linejoin:round;stroke-dasharray:none;stroke-opacity:1"
     d="m 63.246329,23.695926 c -0.873928,-0.935958 1.228216,-5.019159 5.171206,-4.500796 3.63437,0.477793 3.627078,4.710835 1.742684,5.147765 -1.903724,0.44142 -1.847543,-1.545516 -0.718805,-1.736104"
     id="path23622" /><path
     style="fill:none;stroke:#000000;stroke-width:0.865;stroke-linecap:round;stroke-linejoin:round;stroke-dasharray:none;stroke-opacity:1"
     d="m 62.9477,30.223075 c -6.633177,0.642502 -5.768205,-7.83479 -0.332077,-7.359085"
     id="path23624" /><path
     style="fill:none;stroke:#000000;stroke-width:0.865;stroke-linecap:round;stroke-linejoin:round;stroke-dasharray:none;stroke-opacity:1"
     d="m 71.617061,21.973606 c 1.438547,-0.588777 3.185289,0.416545 3.364036,1.627813"
     id="path23626" /><path
     style="fill:none;stroke:#000000;stroke-width:0.865;stroke-linecap:round;stroke-linejoin:round;stroke-dasharray:none;stroke-opacity:1"
     d="m 64.502924,1.5569351 c -0.639917,1.1091815 -4.516012,2.1391215 -5.119331,-1.79176573 -0.50481,-3.28904927 3.212547,-4.14897317 4.180787,-2.47434957 0.978174,1.6918012 -0.938544,2.21837473 -1.450477,1.1945103"
     id="path23628" /><path
     style="fill:none;stroke:#000000;stroke-width:0.865;stroke-linecap:round;stroke-linejoin:round;stroke-dasharray:none;stroke-opacity:1"
     d="m 63.164518,-3.6671442 c 1.587975,-2.943256 5.995216,-5.6383854 9.461714,-3.6892215 5.599543,3.1485606 1.93773,8.2802091 -0.720883,6.60614518 -1.653697,-1.04129868 -0.197977,-2.40058918 0.730598,-1.73117128"
     id="path23630" /><path
     style="fill:none;stroke:#000000;stroke-width:0.865;stroke-linecap:round;stroke-linejoin:round;stroke-dasharray:none;stroke-opacity:1"
     d="M 75.427577,2.4592376 C 76.301504,3.3951958 74.19936,7.4783969 70.256371,6.9600333 66.622,6.4822408 66.629292,2.2491983 68.513687,1.8122685 70.417411,1.3708489 70.361229,3.357785 69.232491,3.5483726"
     id="path23632" /><path
     style="fill:none;stroke:#000000;stroke-width:0.865;stroke-linecap:round;stroke-linejoin:round;stroke-dasharray:none;stroke-opacity:1"
     d="m 75.726205,-4.067911 c 6.633177,-0.6425027 5.768205,7.8347893 0.332077,7.3590843"
     id="path23634" /><path
     style="fill:none;stroke:#000000;stroke-width:0.865;stroke-linecap:round;stroke-linejoin:round;stroke-dasharray:none;stroke-opacity:1"
     d="M 67.056845,4.1815575 C 65.618298,4.7703347 63.871556,3.7650124 63.692808,2.5537443"
     id="path23636" /><path
     id="path23638"
     style="fill:#000000;fill-opacity:0.25;stroke:none;stroke-width:0.865;stroke-linecap:round;stroke-linejoin:round;stroke-dasharray:none;stroke-opacity:1"
     d="m 72.801802,-7.1730084 c -0.81246,-0.4568364 -1.676926,-0.6585026 -2.544331,-0.6616979 -2.83352,-0.010496 -6.184524,1.7657833 -7.200241,4.4980087 -0.117629,-0.07067 -0.249053,-0.015394 -0.912448,-0.022857 -1.358381,-0.015277 -2.901179,1.0945111 -2.585913,3.30787134 0.304692,2.13912186 2.277365,2.59916516 4.093753,2.39495676 0.111696,1.2845504 2.692782,2.0874135 3.558056,1.6431951 0.528883,1.2212507 1.155219,2.648809 3.220956,3.1567704 3.861872,0.9496258 6.045148,-3.5645226 5.486702,-4.0846705 6.826105,0.6281938 5.170023,-7.8579145 -0.311277,-7.1077858 z" /><path
     id="path23640"
     style="fill:#000000;fill-opacity:0.40000001;stroke:none;stroke-width:0.865;stroke-linecap:round;stroke-linejoin:round;stroke-dasharray:none;stroke-opacity:1"
     d="m 65.879729,33.318166 c 0.81246,0.456836 1.676926,0.658503 2.544331,0.661698 2.83352,0.0105 6.184524,-1.765783 7.200241,-4.498009 0.117629,0.07067 0.249053,0.01539 0.912448,0.02286 1.358381,0.01528 2.925081,-1.098044 2.585913,-3.307871 -0.60332,-3.930887 -2.277365,-2.599165 -4.093753,-2.394957 -0.111696,-1.28455 -2.692782,-2.087413 -3.558056,-1.643195 -0.528883,-1.22125 -1.155219,-2.648809 -3.220955,-3.15677 -3.861872,-0.949626 -6.045149,3.564522 -5.486703,4.08467 -5.918181,-0.809778 -5.713522,8.043406 0.396599,7.193103 z" /><path
     id="path23642"
     style="fill:#000000;fill-opacity:0.2;stroke:none;stroke-width:0.865;stroke-linecap:round;stroke-linejoin:round;stroke-dasharray:none;stroke-opacity:1"
     d="m 40.467031,15.248744 c 0.810561,2.303704 2.722525,2.38382 4.471631,1.786565 0.27708,1.58905 2.802228,2.734441 4.264938,2.141139 2.747513,2.743258 7.878739,2.764085 9.505122,-1.384072 2.467346,0.556731 4.303577,-0.849288 5.108906,-2.318141 1.633829,0.914781 4.642963,-0.757242 4.194807,-3.495182 C 67.642363,9.7181593 66.038652,9.4886565 63.511673,9.7412961 63.356279,8.1520714 60.405361,6.4335414 59.201582,6.9831235 59.319017,5.7281821 58.618297,3.3647704 55.744421,2.7363319 53.058081,2.1489075 50.336976,3.4326999 49.664404,7.2634947 47.754659,6.742857 46.10168,8.2572834 46.148849,9.49626 c -2.51685,-1.1298345 -5.415018,0.4103877 -5.980446,2.979501 -2.133055,-2.047741 -3.49821,2.900971 0.298628,2.772983 z" /><path
     id="path23644"
     style="fill:#000000;fill-opacity:0.15000001;stroke:none;stroke-width:0.865;stroke-linecap:round;stroke-linejoin:round;stroke-dasharray:none;stroke-opacity:1"
     d="m 98.366694,15.248744 c -0.81056,2.303704 -2.722523,2.38382 -4.471633,1.786565 -0.277081,1.58905 -2.802229,2.734441 -4.264939,2.141139 -2.747513,2.743258 -7.878739,2.764085 -9.505121,-1.384072 -2.467347,0.556731 -4.303578,-0.849288 -5.108907,-2.318141 -1.633829,0.914781 -4.642963,-0.757242 -4.194806,-3.495182 0.370072,-2.2608937 1.973783,-2.4903965 4.500762,-2.2377569 0.155393,-1.5892247 3.106311,-3.3077547 4.31009,-2.7581726 -0.117435,-1.2549414 0.583286,-3.6183531 3.457161,-4.2467916 2.68634,-0.5874244 5.407445,0.696368 6.080017,4.5271628 1.909745,-0.5206377 3.562725,0.9937887 3.515555,2.2327653 2.516852,-1.1298345 5.415012,0.4103877 5.980443,2.979501 2.133054,-2.047741 3.498214,2.900971 -0.298622,2.772983 z" /><path
     style="fill:none;stroke:#000000;stroke-width:0.865;stroke-linecap:round;stroke-linejoin:round;stroke-dasharray:none;stroke-opacity:1"
     d="m -5.9735839,53.63201 c -0.6244877,1.082437 -4.4071221,2.087544 -4.9958951,-1.748562 -0.492637,-3.209745 3.1350872,-4.048935 4.0799814,-2.414689 0.9545881,1.651008 -0.9159138,2.164886 -1.4155034,1.165708"
     id="path23684" /><path
     style="fill:none;stroke:#000000;stroke-width:0.865;stroke-linecap:round;stroke-linejoin:round;stroke-dasharray:none;stroke-opacity:1"
     d="m -7.2797181,48.533893 c 1.5496856,-2.872288 5.85066,-5.502433 9.2335751,-3.600267 5.4645269,3.072643 1.8910072,8.080557 -0.7035017,6.446859 -1.61382285,-1.016192 -0.1932028,-2.342708 0.7129817,-1.68943"
     id="path23686" /><path
     style="fill:none;stroke:#000000;stroke-width:0.865;stroke-linecap:round;stroke-linejoin:round;stroke-dasharray:none;stroke-opacity:1"
     d="m 6.1665339,54.586014 c 0.8739273,0.935958 -1.2282162,5.019159 -5.17120602,4.500795 -3.63437048,-0.477792 -3.62707838,-4.710835 -1.74268376,-5.147764 1.90372398,-0.44142 1.84754248,1.545516 0.71880416,1.736104"
     id="path23688" /><path
     style="fill:none;stroke:#000000;stroke-width:0.865;stroke-linecap:round;stroke-linejoin:round;stroke-dasharray:none;stroke-opacity:1"
     d="m 4.9790839,48.142789 c 6.4732381,-0.627011 5.6291221,7.645878 0.3240699,7.181643"
     id="path23690" /><path
     style="fill:none;stroke:#000000;stroke-width:0.865;stroke-linecap:round;stroke-linejoin:round;stroke-dasharray:none;stroke-opacity:1"
     d="m -3.4812422,56.193348 c -1.403861,0.574581 -3.1084864,-0.406501 -3.2829238,-1.588564"
     id="path23692" /><path
     id="path23694"
     style="fill:#000000;fill-opacity:0.513158;stroke:none;stroke-width:0.865;stroke-linecap:round;stroke-linejoin:round;stroke-dasharray:none;stroke-opacity:1"
     d="M 2.1251933,45.112562 C 1.3323237,44.66674 0.48870151,44.469937 -0.35778866,44.466819 c -2.76519874,-0.01025 -6.03540484,1.723207 -7.02663044,4.389554 -0.1147931,-0.06897 -0.2430484,-0.01502 -0.8904473,-0.02231 -1.3256279,-0.01491 -2.8312266,1.06812 -2.5235616,3.228112 0.297345,2.087544 2.2224529,2.536494 3.9950446,2.337209 0.1090028,1.253578 2.6278544,2.037082 3.4722653,1.603575 0.5161302,1.191804 1.127364,2.584942 3.14329209,3.080655 C 3.5809291,60.010344 5.7115627,55.60504 5.1665817,55.097434 11.828096,55.71048 10.211945,47.428988 4.8628101,48.16103 Z" /><path
     style="fill:none;stroke:#000000;stroke-width:0.865;stroke-linecap:round;stroke-linejoin:round;stroke-dasharray:none;stroke-opacity:1"
     d="m 64.502924,53.683711 c -0.639917,1.109182 -4.516012,2.139122 -5.119331,-1.791765 -0.50481,-3.28905 3.212547,-4.148974 4.180787,-2.47435 0.978174,1.691801 -0.938544,2.218375 -1.450477,1.19451"
     id="path23736" /><path
     style="fill:none;stroke:#000000;stroke-width:0.865;stroke-linecap:round;stroke-linejoin:round;stroke-dasharray:none;stroke-opacity:1"
     d="m 63.164518,48.459632 c 1.587975,-2.943256 5.995216,-5.638385 9.461714,-3.689221 5.599543,3.14856 1.93773,8.280208 -0.720883,6.606145 -1.653697,-1.041299 -0.197977,-2.40059 0.730598,-1.731172"
     id="path23738" /><path
     style="fill:none;stroke:#000000;stroke-width:0.865;stroke-linecap:round;stroke-linejoin:round;stroke-dasharray:none;stroke-opacity:1"
     d="m 75.427577,54.586014 c 0.873927,0.935958 -1.228217,5.019159 -5.171206,4.500795 -3.634371,-0.477792 -3.627079,-4.710835 -1.742684,-5.147764 1.903724,-0.44142 1.847542,1.545516 0.718804,1.736104"
     id="path23740" /><path
     style="fill:none;stroke:#000000;stroke-width:0.865;stroke-linecap:round;stroke-linejoin:round;stroke-dasharray:none;stroke-opacity:1"
     d="m 75.726205,48.058865 c 6.633177,-0.642503 5.768205,7.834789 0.332077,7.359084"
     id="path23742" /><path
     style="fill:none;stroke:#000000;stroke-width:0.865;stroke-linecap:round;stroke-linejoin:round;stroke-dasharray:none;stroke-opacity:1"
     d="M 67.056845,56.308334 C 65.618298,56.897111 63.871556,55.891789 63.692808,54.68052"
     id="path23744" /><path
     id="path23746"
     style="fill:#000000;fill-opacity:0.25;stroke:none;stroke-width:0.865;stroke-linecap:round;stroke-linejoin:round;stroke-dasharray:none;stroke-opacity:1"
     d="m 72.801802,44.953768 c -0.81246,-0.456837 -1.676926,-0.658503 -2.544331,-0.661698 -2.83352,-0.0105 -6.184524,1.765783 -7.200241,4.498009 -0.117629,-0.07067 -0.249053,-0.01539 -0.912448,-0.02286 -1.358381,-0.01528 -2.901179,1.094511 -2.585913,3.307871 0.304692,2.139122 2.277365,2.599165 4.093753,2.394956 0.111696,1.284551 2.692782,2.087414 3.558056,1.643196 0.528883,1.22125 1.155219,2.648809 3.220956,3.15677 3.861872,0.949626 6.045148,-3.564522 5.486702,-4.08467 6.826105,0.628193 5.170023,-7.857915 -0.311277,-7.107786 z" /><path
     style="fill:none;stroke:#000000;stroke-width:1.26499;stroke-linecap:round;stroke-linejoin:round;stroke-dasharray:none;stroke-opacity:1"
     d="m 91.260465,34.023782 c -1.365156,-1.706437 -3.412885,1.877094 -0.426609,2.47435 2.986276,0.597255 5.253006,-6.333879 -0.170646,-7.593684 -5.675936,-1.318416 -6.143198,4.522079 -6.143198,4.522079 0,0 -2.907023,-0.913556 -3.729186,2.153757"
     id="path23754" /><path
     style="fill:none;stroke:#000000;stroke-width:1.26499;stroke-linecap:round;stroke-linejoin:round;stroke-dasharray:none;stroke-opacity:1"
     d="m 93.990784,33.170564 c 3.839494,-0.984227 4.180786,2.900958 4.180786,2.900958 0,0 3.74811,-1.456549 4.35143,2.474338 0.5048,3.28905 -3.21255,4.148974 -4.180784,2.47435 -0.978174,-1.691801 0.938534,-2.218375 1.450474,-1.19451"
     id="path23756" /><path
     style="fill:none;stroke:#000000;stroke-width:1.26499;stroke-linecap:round;stroke-linejoin:round;stroke-dasharray:none;stroke-opacity:1"
     d="m 80.096172,39.016528 c -2.17195,-1.085987 -1.684676,2.617392 0.784321,1.689294 2.873647,-1.080203 1.160143,-5.014658 -1.327314,-5.4902 -4.102572,-0.784321 -4.404225,3.378588 -4.404225,3.378588"
     id="path23758" /><path
     style="fill:none;stroke:#000000;stroke-width:1.26499;stroke-linecap:round;stroke-linejoin:round;stroke-dasharray:none;stroke-opacity:1"
     d="m 75.148954,38.171881 c -1.508293,-0.663657 -2.223973,0.689219 -2.141781,1.538473 0.18099,1.870272 2.322782,1.417797 2.322782,1.417797 0,0 0,1.508292 1.74962,2.111612 1.749632,0.603319 2.594267,-0.18099 2.594267,-0.18099 0,0 0.06029,1.568618 1.689294,2.111611 1.628968,0.542994 2.473615,0 2.473615,0"
     id="path23760" /><path
     style="fill:none;stroke:#000000;stroke-width:1.26499;stroke-linecap:round;stroke-linejoin:round;stroke-dasharray:none;stroke-opacity:1"
     d="m 85.888037,42.274452 c 1.206639,1.900453 2.594267,-0.42233 1.146301,-1.38764 -1.447966,-0.9653 -5.248872,1.990959 -2.111612,5.309209 3.13726,3.318262 8.265469,-0.301653 8.44647,-2.594267 0.18099,-2.292613 -0.844647,-4.102571 -0.844647,-4.102571"
     id="path23762" /><path
     style="fill:none;stroke:#000000;stroke-width:1.26499;stroke-linecap:round;stroke-linejoin:round;stroke-dasharray:none;stroke-opacity:1"
     d="m 93.369196,43.722418 c 2.835601,1.085975 4.917055,-1.055806 5.067888,-2.473603"
     id="path23764" /><path
     id="path23782"
     style="fill:#000000;fill-opacity:0.2;stroke:none;stroke-width:0.865;stroke-linecap:round;stroke-linejoin:round;stroke-dasharray:none;stroke-opacity:1"
     d="m 75.218213,41.312138 c 0.810559,2.303704 2.722522,2.38382 4.471629,1.786564 0.277083,1.58905 2.802231,2.734441 4.264938,2.14114 2.747514,2.743257 7.878742,2.764085 9.505121,-1.384072 2.467359,0.556731 4.30359,-0.849289 5.108914,-2.318141 1.633835,0.914781 4.642965,-0.757242 4.194805,-3.495182 -0.37008,-2.260893 -1.97378,-2.490396 -4.500762,-2.237756 -0.155393,-1.589225 -3.10631,-3.307755 -4.31008,-2.758173 0.117434,-1.254942 -0.583302,-3.618353 -3.457171,-4.246792 -2.686336,-0.587424 -5.407448,0.696368 -6.080014,4.527163 -1.909747,-0.520638 -3.562727,0.993789 -3.515555,2.232765 -2.516857,-1.129834 -5.415017,0.410388 -5.980447,2.979501 -2.133058,-2.047741 -3.498214,2.90097 0.298622,2.772983 z" /><path
     style="fill:none;stroke:#000000;stroke-width:0.865;stroke-linecap:round;stroke-linejoin:round;stroke-dasharray:none;stroke-opacity:1"
     d="m 39.661124,-1.4651425 c 0.639917,-1.1091816 4.516012,-2.1391217 5.119331,1.79176557 C 45.285264,3.6156724 41.567908,4.4755963 40.599668,2.8009728 39.621494,1.1091715 41.538211,0.58259791 42.050145,1.6064624"
     id="path23852" /><path
     style="fill:none;stroke:#000000;stroke-width:0.865;stroke-linecap:round;stroke-linejoin:round;stroke-dasharray:none;stroke-opacity:1"
     d="M 40.99953,3.7589367 C 39.411555,6.7021926 35.004314,9.3973219 31.537815,7.4481581 25.938273,4.2995975 29.600086,-0.83205084 32.258699,0.84201308 33.912396,1.8833117 32.456675,3.2426022 31.528101,2.5731843"
     id="path23854" /><path
     style="fill:none;stroke:#000000;stroke-width:0.865;stroke-linecap:round;stroke-linejoin:round;stroke-dasharray:none;stroke-opacity:1"
     d="m 28.736471,-2.3674451 c -0.873927,-0.9359583 1.228216,-5.0191595 5.171206,-4.5007958 3.634371,0.4777925 3.627079,4.7108351 1.742684,5.1477649 -1.903724,0.4414196 -1.847543,-1.5455166 -0.718804,-1.7361041"
     id="path23856" /><path
     style="fill:none;stroke:#000000;stroke-width:0.865;stroke-linecap:round;stroke-linejoin:round;stroke-dasharray:none;stroke-opacity:1"
     d="M 28.437842,4.1597035 C 21.804665,4.8022062 22.669638,-3.6750859 28.105765,-3.1993808"
     id="path23858" /><path
     style="fill:none;stroke:#000000;stroke-width:0.865;stroke-linecap:round;stroke-linejoin:round;stroke-dasharray:none;stroke-opacity:1"
     d="m 37.107203,-4.0897651 c 1.438547,-0.5887771 3.185289,0.4165451 3.364036,1.6278134"
     id="path23860" /><path
     id="path23874"
     style="fill:#000000;fill-opacity:0.40000001;stroke:none;stroke-width:0.865;stroke-linecap:round;stroke-linejoin:round;stroke-dasharray:none;stroke-opacity:1"
     d="m 31.369871,7.254795 c 0.81246,0.4568364 1.676926,0.6585026 2.544331,0.6616979 2.83352,0.010496 6.184525,-1.7657832 7.200241,-4.4980086 0.11763,0.07067 0.249054,0.015394 0.912448,0.022857 1.358381,0.015277 2.925081,-1.0980445 2.585913,-3.30787136 C 44.009485,-3.7974173 42.33544,-2.4656951 40.519051,-2.2614867 40.407355,-3.5460372 37.82627,-4.3489003 36.960995,-3.9046819 36.432113,-5.1259327 35.805777,-6.553491 33.74004,-7.0614524 c -3.861872,-0.9496258 -6.045149,3.5645227 -5.486702,4.0846706 -5.918182,-0.8097785 -5.713522,8.0434059 0.396598,7.1931029 z" /><path
     style="fill:none;stroke:#000000;stroke-width:0.865;stroke-linecap:round;stroke-linejoin:round;stroke-dasharray:none;stroke-opacity:1"
     d="m 110.02691,24.598229 c 0.63992,-1.109182 4.51602,-2.139122 5.11934,1.791765 0.5048,3.289049 -3.21255,4.148973 -4.1808,2.47435 -0.97818,-1.691801 0.93855,-2.218375 1.45048,-1.194511"
     id="path23952" /><path
     style="fill:none;stroke:#000000;stroke-width:0.865;stroke-linecap:round;stroke-linejoin:round;stroke-dasharray:none;stroke-opacity:1"
     d="m 111.36532,29.822308 c -1.58798,2.943256 -5.99523,5.638385 -9.46172,3.689221 -5.599539,-3.14856 -1.93772,-8.280209 0.72088,-6.606145 1.6537,1.041299 0.19798,2.400589 -0.73059,1.731171"
     id="path23954" /><path
     style="fill:none;stroke:#000000;stroke-width:0.865;stroke-linecap:round;stroke-linejoin:round;stroke-dasharray:none;stroke-opacity:1"
     d="m 99.10226,23.695926 c -0.873932,-0.935958 1.22821,-5.019159 5.1712,-4.500796 3.63438,0.477793 3.62708,4.710835 1.74268,5.147765 -1.90372,0.44142 -1.84754,-1.545516 -0.7188,-1.736104"
     id="path23956" /><path
     style="fill:none;stroke:#000000;stroke-width:0.865;stroke-linecap:round;stroke-linejoin:round;stroke-dasharray:none;stroke-opacity:1"
     d="M 98.803624,30.223075 C 92.170447,30.865577 93.03542,22.388285 98.471556,22.86399"
     id="path23958" /><path
     style="fill:none;stroke:#000000;stroke-width:0.865;stroke-linecap:round;stroke-linejoin:round;stroke-dasharray:none;stroke-opacity:1"
     d="m 107.47298,21.973606 c 1.43856,-0.588777 3.1853,0.416545 3.36405,1.627813"
     id="path23960" /><path
     style="fill:none;stroke:#000000;stroke-width:0.865;stroke-linecap:round;stroke-linejoin:round;stroke-dasharray:none;stroke-opacity:1"
     d="M 97.65177,1.5569351 C 97.01186,2.6661166 93.13576,3.6960566 92.532441,-0.23483063 92.027628,-3.5238799 95.744989,-4.3838038 96.71323,-2.7091802 97.6914,-1.017379 95.77468,-0.49080547 95.262754,-1.5146699"
     id="path23962" /><path
     style="fill:none;stroke:#000000;stroke-width:0.865;stroke-linecap:round;stroke-linejoin:round;stroke-dasharray:none;stroke-opacity:1"
     d="m 96.31337,-3.6671442 c 1.58798,-2.943256 5.99521,-5.6383854 9.46172,-3.6892215 5.59954,3.1485606 1.93772,8.2802091 -0.7209,6.60614518 -1.65369,-1.04129868 -0.19797,-2.40058918 0.73061,-1.73117128"
     id="path23964" /><path
     style="fill:none;stroke:#000000;stroke-width:0.865;stroke-linecap:round;stroke-linejoin:round;stroke-dasharray:none;stroke-opacity:1"
     d="m 108.57643,2.4592376 c 0.87392,0.9359582 -1.22822,5.0191593 -5.17122,4.5007957 -3.63436,-0.4777925 -3.62707,-4.710835 -1.74268,-5.1477648 1.90373,-0.4414196 1.84755,1.5455165 0.71881,1.7361041"
     id="path23966" /><path
     style="fill:none;stroke:#000000;stroke-width:0.865;stroke-linecap:round;stroke-linejoin:round;stroke-dasharray:none;stroke-opacity:1"
     d="m 108.87505,-4.067911 c 6.63318,-0.6425027 5.76821,7.8347893 0.33208,7.3590843"
     id="path23968" /><path
     style="fill:none;stroke:#000000;stroke-width:0.865;stroke-linecap:round;stroke-linejoin:round;stroke-dasharray:none;stroke-opacity:1"
     d="M 100.20569,4.1815575 C 98.76715,4.7703347 97.02041,3.7650124 96.84166,2.5537443"
     id="path23970" /><path
     id="path23972"
     style="fill:#000000;fill-opacity:0.40000001;stroke:none;stroke-width:0.865;stroke-linecap:round;stroke-linejoin:round;stroke-dasharray:none;stroke-opacity:1"
     d="m 105.95065,-7.1730084 c -0.81246,-0.4568364 -1.67693,-0.6585026 -2.54433,-0.6616979 -2.83352,-0.010496 -6.18452,1.7657833 -7.200238,4.4980087 -0.117631,-0.07067 -0.249059,-0.015394 -0.912448,-0.022857 -1.358381,-0.015277 -2.90118,1.0945111 -2.585917,3.30787134 0.304697,2.13912186 2.277371,2.59916516 4.093753,2.39495676 0.11172,1.2845504 2.69279,2.0874135 3.55805,1.6431951 0.52888,1.2212507 1.15522,2.648809 3.22096,3.1567704 3.86187,0.9496258 6.04516,-3.5645226 5.4867,-4.0846705 6.82611,0.6281938 5.17003,-7.8579145 -0.31128,-7.1077858 z" /><path
     id="path23974"
     style="fill:#000000;fill-opacity:0.40000001;stroke:none;stroke-width:0.865;stroke-linecap:round;stroke-linejoin:round;stroke-dasharray:none;stroke-opacity:1"
     d="m 101.73566,33.318166 c 0.81246,0.456836 1.67692,0.658503 2.54433,0.661698 2.83352,0.0105 6.18452,-1.765783 7.20024,-4.498009 0.11763,0.07067 0.24905,0.01539 0.91245,0.02286 1.35838,0.01528 2.92507,-1.098044 2.58591,-3.307871 -0.60332,-3.930887 -2.27736,-2.599165 -4.09375,-2.394957 -0.11172,-1.28455 -2.69278,-2.087413 -3.55806,-1.643195 -0.52888,-1.22125 -1.15522,-2.648809 -3.22096,-3.15677 -3.86187,-0.949626 -6.045141,3.564522 -5.486696,4.08467 -5.918185,-0.809778 -5.713522,8.043406 0.396606,7.193103 z" /><path
     style="fill:none;stroke:#000000;stroke-width:0.865;stroke-linecap:round;stroke-linejoin:round;stroke-dasharray:none;stroke-opacity:1"
     d="m 97.32253,53.683711 c -0.63991,1.109182 -4.51601,2.139122 -5.119329,-1.791765 -0.504813,-3.28905 3.212548,-4.148974 4.180789,-2.47435 0.97817,1.691801 -0.93855,2.218375 -1.450476,1.19451"
     id="path24066" /><path
     style="fill:none;stroke:#000000;stroke-width:0.865;stroke-linecap:round;stroke-linejoin:round;stroke-dasharray:none;stroke-opacity:1"
     d="m 95.98413,48.459632 c 1.58798,-2.943256 5.99521,-5.638385 9.46172,-3.689221 5.59954,3.14856 1.93772,8.280208 -0.7209,6.606145 -1.65369,-1.041299 -0.19797,-2.40059 0.73061,-1.731172"
     id="path24068" /><path
     style="fill:none;stroke:#000000;stroke-width:0.865;stroke-linecap:round;stroke-linejoin:round;stroke-dasharray:none;stroke-opacity:1"
     d="m 111.28351,54.586014 c 0.87392,0.935958 -1.22822,5.019159 -5.17122,4.500795 -3.63436,-0.477792 -3.62707,-4.710835 -1.74268,-5.147764 1.90373,-0.44142 1.84755,1.545516 0.71881,1.736104"
     id="path24070" /><path
     style="fill:none;stroke:#000000;stroke-width:0.865;stroke-linecap:round;stroke-linejoin:round;stroke-dasharray:none;stroke-opacity:1"
     d="m 108.54581,48.058865 c 6.63318,-0.642503 5.76821,7.834789 0.33208,7.359084"
     id="path24072" /><path
     style="fill:none;stroke:#000000;stroke-width:0.865;stroke-linecap:round;stroke-linejoin:round;stroke-dasharray:none;stroke-opacity:1"
     d="M 99.87645,56.308334 C 98.43791,56.897111 96.69117,55.891789 96.51242,54.68052"
     id="path24074" /><path
     id="path24076"
     style="fill:#000000;fill-opacity:0.40000001;stroke:none;stroke-width:0.865;stroke-linecap:round;stroke-linejoin:round;stroke-dasharray:none;stroke-opacity:1"
     d="m 105.62141,44.953768 c -0.81246,-0.456837 -1.67693,-0.658503 -2.54433,-0.661698 -2.83352,-0.0105 -6.18452,1.765783 -7.200238,4.498009 -0.117631,-0.07067 -0.249059,-0.01539 -0.912448,-0.02286 -1.358381,-0.01528 -2.90118,1.094511 -2.585917,3.307871 0.304697,2.139122 2.277371,2.599165 4.093753,2.394956 0.11172,1.284551 2.69279,2.087414 3.55805,1.643196 0.52888,1.22125 1.15522,2.648809 3.22096,3.15677 3.86187,0.949626 6.04516,-3.564522 5.4867,-4.08467 6.82611,0.628193 5.17003,-7.857915 -0.31128,-7.107786 z" /><defs
     id="defs2" /></svg>
