<?xml version="1.0" encoding="UTF-8" standalone="no"?>
<!-- Created with Inkscape (http://www.inkscape.org/) -->

<svg
   width="63.599953mm"
   height="41.177666mm"
   viewBox="0 0 63.599952 41.177667"
   version="1.1"
   id="svg5"
   sodipodi:docname="traditional_waves.svg"
   inkscape:version="1.2-beta (1b65182ce9, 2022-04-05)"
   xmlns:inkscape="http://www.inkscape.org/namespaces/inkscape"
   xmlns:sodipodi="http://sodipodi.sourceforge.net/DTD/sodipodi-0.dtd"
   xmlns="http://www.w3.org/2000/svg"
   xmlns:svg="http://www.w3.org/2000/svg">
  <sodipodi:namedview
     id="namedview524"
     pagecolor="#505050"
     bordercolor="#eeeeee"
     borderopacity="1"
     inkscape:pageshadow="0"
     inkscape:pageopacity="0"
     inkscape:pagecheckerboard="0"
     inkscape:deskcolor="#505050"
     inkscape:document-units="mm"
     showgrid="false"
     inkscape:zoom="3.6162888"
     inkscape:cx="-28.897028"
     inkscape:cy="9.1253773"
     inkscape:window-width="1366"
     inkscape:window-height="697"
     inkscape:window-x="-8"
     inkscape:window-y="-8"
     inkscape:window-maximized="1"
     inkscape:current-layer="svg5" />
  <defs
     id="defs2" />
  <path
     style="fill:#0000b5;fill-opacity:1;stroke-width:1"
     d="m -7.7305657,-5.6364518 c 0,0 13.7862113,2.8687657 13.8644913,2.6339157 0.067,-0.20112 0.85109,-0.30843 2.25358,-0.30843 h 2.1507704 l -0.8958204,0.74786 c -1.05288,0.87899 -0.97982,1.31288 0.34084,2.02409999 l 0.9414704,0.50702 1.63985,-0.84574 c 2.28822,-1.18012999 4.54708,-1.19758999 6.7249,-0.052 1.80225,0.94804 2.03916,0.96471 3.05342,0.21483 0.9986,-0.73829999 0.98505,-1.07559999 -0.0769,-1.91250999 l -0.85989,-0.6777 2.12989,-0.003 c 1.17145,-0.002 2.25339,0.12056 2.40432,0.27149 0.18949,0.18949 0.49776,0.18949 0.99618,0 0.93837,-0.35677 8.90293,-0.35677 9.8413,0 0.49842,0.18949 0.80669,0.18949 0.99618,0 0.15093,-0.15093 1.23287,-0.2731 2.40432,-0.27149 l 2.12989,0.003 -0.85989,0.6777 c -1.06191,0.83691 -1.07546,1.17421 -0.0769,1.91250999 1.01426,0.74988 1.25117,0.73321 3.05342,-0.21483 2.17782,-1.14559999 4.43668,-1.12813999 6.7249,0.052 l 1.63985,0.84574 0.94147,-0.50702 c 1.32066,-0.71121999 1.39372,-1.14510999 0.34084,-2.02409999 l -0.89582,-0.74786 h 2.15077 c 1.40249,0 2.18653,0.10731 2.25358,0.30843 0.0783,0.23485 15.059488,1.2416398 15.059488,1.2416398 L 71.02835,56.54848 -8.8076486,47.775069 Z m 4.0013813,49.9526058 c 2.31656,-0.87225 5.46389,-0.83714 7.88053,0.0879 5.1375859,6.83434 12.3420854,3.34887 2.98079,-2.06973 -2.30347,-1.2784 -4.39316,-1.81972 -7.02486002,-1.81972 -6.97834558,0.929248 -16.58366158,9.036903 -3.83645998,3.80155 z m 35.5864604,-0.58569 c 3.028164,2.147835 18.197781,7.748323 9.43237,0.28501 -5.92796,-4.95711 -14.0277,-4.69689 -19.52428,0.62724 -7.015525,8.367577 8.064023,-0.888225 10.09191,-0.91225 z m 27.91354,0.58569 c 7.644755,11.640692 27.756668,-3.610057 3.83646,-3.80155 -2.6317,0 -4.72139,0.54132 -7.02486,1.81972 -9.717233,10.213127 -2.528835,4.225897 3.1884,1.98183 z m -42.33865,1.15437 c 0.67442,-0.96477 1.16292,-1.91905 1.08557,-2.12064 -0.0774,-0.20159 -0.44911,-0.48379 -0.82611,-0.62713 -1.43409,-0.54524 -3.93681,-0.17549 -4.24481,0.62713 1.581676,3.538353 1.929473,5.045226 3.98535,2.12064 z m 31.75,0 c 0.67442,-0.96477 1.16292,-1.91905 1.08557,-2.12064 -0.0774,-0.20159 -0.44911,-0.48379 -0.82611,-0.62713 -1.43409,-0.54524 -3.93681,-0.17549 -4.24481,0.62713 1.581676,3.538353 1.929473,5.045226 3.98535,2.12064 z m -26.78374,-4.9594 c 0.40018,-0.29136 0.7276,-0.67595 0.7276,-0.85463 0,-0.47923 -1.86187,-1.86948 -3.52078,-2.62896 -1.50439,-0.68872 -4.14714,-0.91707 -5.87193,-0.50735 -1.15381,0.27408 -3.69619,1.65751 -4.3760804,2.38122 -0.72424,0.77091 -0.5835,1.18336 0.62611,1.83478 l 0.9414704,0.50702 1.63985,-0.84574 c 1.37022,-0.70668 1.9346,-0.84574 3.4324,-0.84574 1.52964,0 2.03837,0.13118 3.46857,0.89442 0.92181,0.49193 1.79508,0.82699 1.9406,0.74457 0.14552,-0.0824 0.592,-0.38823 0.99219,-0.67959 z m 22.02656,-0.16565 c 2.17782,-1.1456 4.43668,-1.12814 6.7249,0.052 l 1.63985,0.84574 0.94147,-0.50702 c 1.20961,-0.65142 1.35035,-1.06387 0.62611,-1.83478 -0.67989,-0.72371 -3.22227,-2.10714 -4.37608,-2.38122 -1.72479,-0.40972 -4.36754,-0.18137 -5.87193,0.50735 -1.62085,0.74206 -3.52078,2.14652 -3.52078,2.60263 0,0.41146 1.35771,1.4879 1.89136,1.49955 0.23989,0.005 1.11518,-0.34768 1.9451,-0.78424 z m -48.1031204,-3.82185 c 2.4520896,-24.349083 1.2260448,-12.174541 0,0 z m 10.35772,1.15233 c 1.11018,-1.28956 3.8189804,-3.11262 5.5080904,-3.70702 2.12622,-0.74822 5.48729,-0.75669 7.57375,-0.0191 1.6814,0.59441 4.41857,2.44269 5.53147,3.73515 0.59367,0.68944 0.83495,0.79662 1.45521,0.64641 1.20532,-0.29193 1.93417,-0.6041 1.93417,-0.82844 0,-0.46655 -2.60606,-3.31157 -3.96306,-4.32645 -2.85635,-2.1362 -5.32278,-2.97871 -8.73694,-2.98446 -4.64745,-0.008 -9.3364104,2.44787 -12.0895904,6.33156 -0.67923,0.95814 -0.53219,1.29983 0.71292,1.65672 1.33363,0.38227 1.30457,0.38934 2.07398,-0.50439 z m 31.7500004,0 c 1.11018,-1.28956 3.81898,-3.11262 5.50809,-3.70702 1.0939,-0.38495 2.20295,-0.54391 3.7946,-0.54391 1.59165,0 2.7007,0.15896 3.7946,0.54391 1.70616,0.60041 4.71761,2.62127 5.35439,3.59313 0.54735,0.83535 0.94464,0.9506 2.14221,0.62141 1.33342,-0.36653 1.48776,-0.68741 0.79839,-1.65985 -4.54212,-6.40719 -13.33903,-8.2466 -19.71881,-4.12315 -2.4586,1.58907 -5.24552,4.58833 -4.85325,5.22303 0.15368,0.24865 1.54132,0.76955 2.25374,0.84602 0.12227,0.0131 0.53899,-0.34398 0.92604,-0.79357 z m 28.9631,-1.15235 c -44.928457,-24.349069 -22.464229,-12.174535 0,0 z M 1.5623456,35.172484 c 1.31695,-1.84555 1.36301,-2.34694 0.25428,-2.76848 -1.45313002,-0.55248 -3.93737,-0.17404 -4.25276,0.64784 -0.15035,0.39181 2.13448998,3.85405 2.54340998,3.85405 0.11997,0 0.77475,-0.78003 1.45507002,-1.73341 z m 31.7500004,0 c 1.31695,-1.84555 1.36301,-2.34694 0.25428,-2.76848 -1.45313,-0.55248 -3.93737,-0.17404 -4.25276,0.64784 -0.15035,0.39181 2.13449,3.85405 2.54341,3.85405 0.11997,0 0.77475,-0.78003 1.45507,-1.73341 z m 31.75,0 c 1.31695,-1.84555 1.36301,-2.34694 0.25428,-2.76848 -1.45313,-0.55248 -3.93737,-0.17404 -4.25276,0.64784 -0.15035,0.39181 2.13449,3.85405 2.54341,3.85405 0.11997,0 0.77475,-0.78003 1.45507,-1.73341 z m -68.2623604,-5.14576 c 2.17782,-1.1456 4.43668,-1.12814 6.7249,0.052 l 1.63985,0.84574 0.94147,-0.50702 c 0.51781,-0.27886 1.00229,-0.6655 1.07662,-0.8592 0.34999,-0.91205 -2.99228,-2.9991 -5.5542,-3.46827 -6.9754918,-2.152647 -10.6218414,6.974316 -4.82867,3.93676 z m 31.7500004,0 c 2.17782,-1.1456 4.43668,-1.12814 6.7249,0.052 l 1.63985,0.84574 0.94147,-0.50702 c 1.32338,-0.71269 1.39311,-1.14356 0.33084,-2.04435 -2.99469,-2.53942 -7.14565,-3.12173 -10.42242,-1.46206 -1.44122,0.72997 -3.0511,2.02294 -3.0511,2.45049 0,0.36661 1.50296,1.44687 2.02365,1.4545 0.16713,0.002 0.98289,-0.35273 1.81281,-0.78929 z m 31.75,0 c 2.17782,-1.1456 4.43668,-1.12814 6.7249,0.052 5.694775,1.879868 2.03285,-3.187484 -1.89626,-3.98875 -2.58433,-0.47327 -5.66682,0.40258 -7.83363,2.22583 -1.05099,0.88435 -1.04554,1.25729 0.0284,1.94507 1.11086,0.71142 1.191,0.70512 2.97656,-0.23414 z M 0.10727558,23.080694 c 3.43390002,0 5.89923002,1.0596 8.70320002,3.74062 1.4741904,1.40957 1.4863204,1.41264 3.1369004,0.79516 0.99469,-0.37211 0.68407,-1.14937 -1.23322,-3.08576 -3.1281804,-3.15936 -6.4087304,-4.61664 -10.47459042,-4.65298 -17.78127758,12.795145 -11.97050158,3.346439 -0.13229,3.20296 z m 22.96904042,3.76898 c 2.83724,-2.70615 5.2932,-3.75694 8.78096,-3.75694 3.48449,0 5.94417,1.05122 8.77309,3.74944 1.13939,1.08675 1.49961,1.28899 2.05866,1.15584 2.05924,-0.49045 2.07219,-1.0875 0.0691,-3.18611 -6.36091,-6.66408 -15.44511,-6.65947 -21.81219,0.0111 -1.78969,1.87499 -1.88965,2.52017 -0.4657,3.00576 0.50932,0.17369 0.9893,0.32252 1.06663,0.33073 0.0773,0.008 0.76559,-0.5812 1.52949,-1.3098 z m 31.83378,-0.0341 c 2.79755,-2.67492 5.26581,-3.73488 8.69718,-3.73488 15.503067,10.781455 13.423214,-2.903564 0.13229,-3.20296 -4.19756,-0.0375 -7.84771,1.59698 -11.04367,4.94526 -1.78969,1.87499 -1.88965,2.52017 -0.4657,3.00576 0.50932,0.17369 1.0009,0.32252 1.0924,0.33073 0.0915,0.008 0.80588,-0.59654 1.5875,-1.34391 z m -37.47275,-1.96206 c 0.69868,-0.97912 1.17227,-1.90191 1.08834,-2.12064 -0.45839,-1.19453 -4.62843,-1.19453 -5.08682,0 -0.15035,0.39181 2.13449,3.85405 2.54341,3.85405 0.11997,0 0.77475,-0.78003 1.45507,-1.73341 z m 31.75,0 c 0.69868,-0.97912 1.17227,-1.90191 1.08834,-2.12064 -0.45296,-1.18038 -4.62733,-1.19741 -5.07887,-0.0207 -0.14527,0.37858 2.13997,3.87476 2.53269,3.87476 0.1215,0 0.77752,-0.78003 1.45784,-1.73341 z m -36.51236,-5.14576 c 2.17782,-1.1456 4.43668,-1.12814 6.7249,0.052 l 1.63985,0.84574 0.94147,-0.50702 c 1.32338,-0.71269 1.39311,-1.14356 0.33084,-2.04434 -3.70475,-3.14154 -8.59808,-3.19683 -12.4813304,-0.14101 -0.54571,0.42942 -0.99219,0.93767 -0.99219,1.12943 0,0.36661 1.5029604,1.44686 2.0236504,1.4545 0.16713,0.002 0.98289,-0.35273 1.81281,-0.78929 z m 31.75,0 c 2.17782,-1.1456 4.43668,-1.12814 6.7249,0.052 l 1.63985,0.84574 0.94147,-0.50702 c 1.32338,-0.71269 1.39311,-1.14356 0.33084,-2.04434 -3.72573,-3.15934 -8.57609,-3.21413 -12.48133,-0.14101 -0.54571,0.42942 -0.99219,0.93767 -0.99219,1.12943 0,0.36661 1.50296,1.44686 2.02365,1.4545 0.16713,0.002 0.98289,-0.35273 1.81281,-0.78929 z m -47.7572904,-3.00863 c 2.2215363,-11.1327493 1.1107681,-5.566375 0,0 z m 10.53362,-0.16819 c 2.8372404,-2.70615 5.2932004,-3.75694 8.7809604,-3.75694 1.60652,0 2.69048,0.15728 3.7946,0.55057 1.69825,0.60493 4.40344,2.43064 5.51602,3.72271 0.58994,0.68511 0.83885,0.79692 1.45521,0.65367 1.28631,-0.29896 1.97705,-0.85971 1.69454,-1.37566 -0.53874,-0.98393 -3.22646,-3.52537 -4.81217,-4.55026 -4.60988,-2.9795104 -10.67577,-2.9864604 -15.2693304,-0.0175 -2.63989,1.70624 -5.04184,4.32977 -4.72353,5.15927 0.11893,0.30992 1.11866,0.75962 2.03421,0.91501 0.0773,0.0131 0.76559,-0.57226 1.52949,-1.30087 z m 31.2282704,0.5073 c 1.10519,-1.28377 3.81439,-3.11036 5.50809,-3.71367 2.10519,-0.74989 5.46841,-0.75561 7.5518,-0.0129 1.80769,0.64446 4.25905,2.27092 5.42225,3.59763 0.71806,0.819 0.95666,0.93717 1.5875,0.78622 1.08884,-0.26055 1.66847,-0.60669 1.66847,-0.99639 0,-1.04722 -3.65199,-4.48121 -6.08656,-5.72323 -3.70141,-1.8883204 -8.99583,-1.8885604 -12.69658,-5.8e-4 -1.58992,0.81111 -3.7771,2.58432 -5.10292,4.13706 -1.39407,1.63268 -1.36755,2.00923 0.17298,2.45588 1.21907,0.35345 1.21295,0.35509 1.97497,-0.53005 z m 28.70803,-0.12144 c -44.758411,-11.2778627 -22.379205,-5.638931 0,0 z M 1.5623456,14.534764 c 0.69868,-0.97912 1.17227,-1.90191 1.08834,-2.12064 -0.45839,-1.19453 -4.62843,-1.19453 -5.08682,0 -0.15035,0.39181 2.13448998,3.85405 2.54340998,3.85405 0.11997,0 0.77475,-0.78004 1.45507002,-1.73341 z m 31.7500004,0 c 0.69868,-0.97912 1.17227,-1.90191 1.08834,-2.12064 -0.45839,-1.19453 -4.62843,-1.19453 -5.08682,0 -0.15035,0.39181 2.13449,3.85405 2.54341,3.85405 0.11997,0 0.77475,-0.78004 1.45507,-1.73341 z m 31.75,0 c 0.69868,-0.97912 1.17227,-1.90191 1.08834,-2.12064 -0.45839,-1.19453 -4.62843,-1.19453 -5.08682,0 -0.15035,0.39181 2.13449,3.85405 2.54341,3.85405 0.11997,0 0.77475,-0.78004 1.45507,-1.73341 z M 38.948296,8.8787036 c 0.0872,-0.22642 -0.25349,-0.72303 -0.8496,-1.23833 -3.51399,-3.0375997 -8.9182,-3.0213697 -12.5537,0.0377 -1.05816,0.89038 -1.04656,1.27026 0.0597,1.95393 1.14519,0.7077704 1.52115,0.6933004 2.69562,-0.10371 1.91012,-1.29625 5.09095,-1.27965 7.17454,0.0374 l 1.27726,0.8073804 1.0253,-0.5582004 c 0.56391,-0.30701 1.09083,-0.72831 1.17093,-0.93621 z m -42.1483104,0.5103 c 2.17782,-1.1456 4.43668,-1.12814 6.7249,0.052 l 1.63985,0.8457404 0.94147,-0.5070204 c 0.51781,-0.27886 1.00229,-0.6655 1.07662,-0.8592 0.35543,-0.92623 -3.09021,-3.0597697 -5.56934,-3.4485397 -7.0004475,-2.1258297 -10.5791873,6.9401601 -4.81353,3.9170297 z m 63.5000004,0 c 2.17782,-1.1456 4.43668,-1.12814 6.7249,0.052 5.652007,1.9204864 2.116559,-3.2442813 -1.9114,-3.9690197 -2.71538,-0.42581 -5.68718,0.41272 -7.81849,2.2060997 -1.05099,0.88435 -1.04554,1.25729 0.0284,1.94507 1.11086,0.7114204 1.191,0.7051204 2.97656,-0.23414 z M -3.9782144,3.1444139 c 1.293435,-0.49491 2.5991063,-0.7893958 3.99548002,-0.7892658 1.39637378,1.3e-4 2.88344998,0.2948758 4.17754998,0.7900258 1.92029,0.73476 4.42861,2.43712 4.90643,3.32993 0.4544,0.8490497 1.1113604,1.0597197 2.3356604,0.7489597 1.39124,-0.35314 1.41575,-0.7899497 0.13649,-2.4319397 -1.9730104,-2.53244 -5.3986204,-4.62332001 -8.7317104,-5.32953001 -2.26762002,-0.48045999 -3.20120002,-0.48045999 -5.46882,0 -9.8465286,7.62552921 -12.1225836,7.87318431 -1.35108,3.68182001 z m 27.1843704,2.92778 c 3.25899,-2.94921 7.13591,-4.2051 10.69214,-3.4636 2.5944,0.54095 4.56778,1.57298 6.4715,3.38446 1.36635,1.3001497 1.72009,1.5101697 2.30543,1.3687897 1.15222,-0.27828 1.88205,-0.59409 1.88205,-0.8143897 0,-0.64686 -2.87649,-3.62444 -4.64238,-4.80554 -5.08141,-3.39865 -11.03383,-3.39865 -16.11524,0 -2.07871,1.39033 -4.70645,4.26185 -4.46819,4.88273 0.0718,0.1870097 0.56794,0.4564697 1.10262,0.5987997 0.53468,0.14233 1.01295,0.27109 1.06283,0.28613 0.0499,0.015 0.81903,-0.63178 1.70924,-1.4373797 z m 31.50012,0.30999 c 1.58004,-1.66502 2.714733,-2.4982261 4.81551,-3.23777 1.358959,-0.4783992 2.677391,-0.7862567 4.073723,-0.7892658 4.036234,-0.0087 2.746177,-2.89255421 2.746177,-2.89255421 0,0 -3.2012,-0.48045999 -5.46882,0 -3.33309,0.70621 -6.7587,2.79709001 -8.73171,5.32953001 -1.20524,1.54698 -1.2283,2.0559897 -0.1094,2.4149197 1.36895,0.43915 1.51892,0.3929 2.67452,-0.8248597 z m -37.26893,-2.16617 c 0.69868,-0.97912 1.17227,-1.90191 1.08834,-2.12064 -0.45839,-1.19453001 -4.62843,-1.19453001 -5.08682,0 -0.15035,0.39181 2.13449,3.85405 2.54341,3.85405 0.11997,0 0.77475,-0.78004 1.45507,-1.73341 z m 31.75,0 c 0.69868,-0.97912 1.17227,-1.90191 1.08834,-2.12064 -0.45839,-1.19453001 -4.62843,-1.19453001 -5.08682,0 -0.15035,0.39181 2.13449,3.85405 2.54341,3.85405 0.11997,0 0.77475,-0.78004 1.45507,-1.73341 z"
     id="path1507"
     sodipodi:nodetypes="ccsccccscscccsccsccscsscsscsscccccccccccccccccccccccccccsscssscssscssscssscscsscccscccsccssccssssssssscscccssscsssssssssssscssccscscscsscccsccssssccsccccssscssccccccssccccsscscsssscscsscscccsscsssscsscccscssccsscccscssssssscccccccscccsscscsssccsccccsccccccscccsccsssscscsccscccsscssscsccssscsssscccscccssc" />
</svg>
