<?xml version="1.0" encoding="UTF-8" standalone="no"?>
<!-- Created with Inkscape (http://www.inkscape.org/) -->

<svg
   width="194.32515"
   height="193.57774"
   viewBox="0 0 194.32515 193.57775"
   version="1.1"
   id="svg5"
   sodipodi:docname="elefanticon.svg"
   inkscape:version="1.1 (c68e22c387, 2021-05-23)"
   xmlns:inkscape="http://www.inkscape.org/namespaces/inkscape"
   xmlns:sodipodi="http://sodipodi.sourceforge.net/DTD/sodipodi-0.dtd"
   xmlns="http://www.w3.org/2000/svg"
   xmlns:svg="http://www.w3.org/2000/svg">
  <sodipodi:namedview
     inkscape:zoom="2.010633"
     inkscape:cx="90.270081"
     inkscape:cy="107.18018"
     inkscape:window-width="1366"
     inkscape:window-height="697"
     inkscape:window-x="-8"
     inkscape:window-y="-8"
     inkscape:window-maximized="1"
     inkscape:current-layer="layer2"
     inkscape:pagecheckerboard="true"
     fit-margin-top="0"
     fit-margin-left="0"
     fit-margin-right="0"
     fit-margin-bottom="0"
     id="namedview3319"
     pagecolor="#ffffff"
     bordercolor="#999999"
     borderopacity="1"
     inkscape:pageshadow="0"
     inkscape:pageopacity="0"
     showgrid="false" />
  <defs
     id="defs3321" />
  <g
     inkscape:groupmode="layer"
     id="layer4"
     inkscape:label="sfondo"
     sodipodi:insensitive="true"
     style="display:inline"
     transform="translate(-0.62654001,-0.62654001)">
    <rect
       style="opacity:0.935897;fill:#ffffff;fill-opacity:0;stroke:none;stroke-width:1.25308;stroke-linejoin:round;stroke-miterlimit:4;stroke-dasharray:none;stroke-opacity:0.5"
       id="rect1150"
       width="194.32515"
       height="193.57774"
       x="0.62654001"
       y="0.62654001"
       rx="0.50201899"
       ry="0.50201899" />
  </g>
  <g
     inkscape:groupmode="layer"
     id="layer2"
     inkscape:label="foldstep"
     transform="translate(29.148773,31.390987)"
     style="display:inline">
    <path
       style="fill:#ffffff;fill-opacity:1;stroke-width:2.95533"
       d="m 25.182578,102.37597 c 0.0844,-7.52933 -1.77683,-11.656671 -6.92915,-15.365631 l -7.04454,-5.071106 4.06265,16.836282 c 2.23446,9.259945 4.20417,18.821645 4.37713,21.248215 0.59579,8.3584 5.41466,-7.00909 5.53391,-17.64776 z m 33.1243,-23.216833 c -11.54132,-22.8204 -22.23516,-41.491635 -23.76409,-41.491635 -6.70655,0 -24.5249,13.244065 -28.7775396,21.38984 -3.86643,7.406017 -3.97382,9.323949 -0.63382,11.320179 2.21172,1.321891 19.3881096,13.457764 38.1697396,26.968607 18.78164,13.510842 34.562772,24.281552 35.069181,23.934902 0.506409,-0.34664 -8.522151,-19.30149 -20.063471,-42.121893 z M 86.262084,110.46453 C 85.598158,105.20696 84.26405,94.618307 83.2974,86.934177 81.64907,73.831209 80.997593,72.96303 72.813518,72.96303 c -4.79949,0 -8.72634,0.658 -8.72634,1.46222 0,2.039885 21.550854,45.59848 22.560097,45.59848 0.452072,0 0.278741,-4.30164 -0.385191,-9.5592 z M 101.94739,90.375199 C 95.977331,86.930906 95.099538,73.653264 99.935036,59.936033 102.63811,52.268015 101.98878,48.681425 95.637257,36.196855 l -7.481925,-14.70647 -0.15637,29.59365 c -0.136564,25.843636 0.610847,30.409351 5.898168,36.030852 3.329992,3.540459 7.67278,6.396953 9.65064,6.347759 1.97787,-0.04919 1.2577,-1.438542 -1.60038,-3.087447 z m 34.2551,-19.328669 c -1.98077,-2.469491 -5.97366,-3.966088 -7.71902,-3.966088 -1.74536,0 -2.942,4.430067 2.71499,6.556501 2.17803,0.818712 7.13649,6.48391 -5.51611,14.820006 -0.98998,1.020096 -1.425,2.022485 -0.27217,1.625738 C 138.8261,84.890485 140.3473,76.213974 136.20249,71.04653 Z M 81.099527,65.303409 c -0.986717,-0.977365 -3.54785,-1.08186 -5.691406,-0.232215 -2.368813,0.938938 -1.665183,1.635898 1.794031,1.777033 3.130271,0.127711 4.88409,-0.567458 3.897375,-1.544826 z M 70.423878,60.732283 81.903747,57.32542 V 40.383787 c 0,-9.317899 0.739019,-18.849238 1.642263,-21.180755 1.242462,-3.207123 -2.80668,-5.106105 -16.632582,-7.800413 -10.05117,-1.9587098 -20.04141,-4.2327601 -22.20053,-5.0534452 -2.15913,-0.8206851 -5.52683,1.4712519 -7.48377,5.0931932 -3.06562,5.673881 -1.98737,9.776451 7.79038,29.641066 6.24166,12.680642 11.92808,23.055715 12.63649,23.055715 0.7084,0 6.45395,-1.533088 12.76788,-3.406865 z"
       id="path922"
       sodipodi:nodetypes="sscssssssssssssssssssscsssssssccssssssscssssssss" />
  </g>
</svg>
