<svg style="object-fit:cover" id="my-svg" version="1" baseProfile="full" width="100%" height="100%" viewBox="0 0 1366 625" xmlns="http://www.w3.org/2000/svg"><rect width="1366" height="625" fill="#ffffff"/><defs><linearGradient id="linear-gradient" x1="0" x2="1" y1="0" y2="1"><stop offset="0%" stop-color="#04fa0090"/><stop offset="100%" stop-color="#13570090"/></linearGradient></defs><path transform="scale(1, 1)" style="transform-origin:center" d="M 0,625 V 0,325 C 81.04761904761907,295.7142857142857 162.09523809523813,266.42857142857144 291,300 C 419.90476190476187,333.57142857142856 596.6666666666665,429.99999999999994 712,437 C 827.3333333333335,444.00000000000006 881.2380952380954,361.57142857142856 980,328 C 1078.7619047619046,294.42857142857144 1222.3809523809523,309.7142857142857 1366,325 C 1366,325 1366,625 1366,625 Z" stroke="none" stroke-width="0" fill="url(#linear-gradient)" class="transition-all duration-300 ease-in-out delay-150"/><defs><linearGradient id="linear-gradient" x1="0" x2="1" y1="0" y2="1"><stop offset="0%" stop-color="#04fa00ff"/><stop offset="100%" stop-color="#135700ff"/></linearGradient></defs><path transform="scale(1, 1)" style="transform-origin:center" d="M 0,625 V 0,487 C 147.69047619047618,441.07142857142856 295.38095238095235,395.14285714285717 403,414 C 510.61904761904765,432.85714285714283 578.1666666666667,516.5 665,546 C 751.8333333333333,575.5 857.952380952381,550.8571428571429 978,532 C 1098.047619047619,513.1428571428571 1232.0238095238096,500.07142857142856 1366,487 C 1366,487 1366,625 1366,625 Z" stroke="none" stroke-width="0" fill="url(#linear-gradient)" class="transition-all duration-300 ease-in-out delay-150"/></svg>