<?xml version="1.0" encoding="UTF-8" standalone="no"?>
<svg xmlns="http://www.w3.org/2000/svg" height="48" width="48">
  <path fill="${this._color}" d="M 10.461043,37.759253 C 10.49059,35.078585 9.8390867,33.609127 8.0355856,32.288625 l -2.4658504,-1.805467 1.4220792,5.994224 c 0.7821419,3.29682 1.4716131,6.701073 1.5321554,7.565005 0.2085486,2.975842 1.8953312,-2.495446 1.9370732,-6.283134 z m 11.594729,-8.265891 c -4.039887,-8.12475 -7.783128,-14.772273 -8.31831,-14.772273 -2.34754,0 -8.584621,4.715287 -10.0732024,7.615428 -1.3533933,2.636765 -1.3909838,3.319607 -0.2218597,4.030324 0.7741825,0.470634 6.7865541,4.79137 13.3608201,9.601636 6.574268,4.810267 12.098248,8.644964 12.275509,8.521547 0.177262,-0.123415 -2.983067,-6.871912 -7.022957,-14.996662 z m 9.785356,11.145662 c -0.232398,-1.871853 -0.699385,-5.641733 -1.037748,-8.377515 -0.576977,-4.665051 -0.805018,-4.974148 -3.669747,-4.974148 -1.68,0 -3.054542,0.234268 -3.054542,0.520594 0,0.726261 7.543597,16.234432 7.896869,16.234432 0.158241,0 0.09757,-1.531514 -0.134832,-3.403363 z m 5.490439,-7.152408 c -2.089742,-1.226271 -2.397003,-5.953511 -0.704399,-10.837259 0.946175,-2.730045 0.718886,-4.006979 -1.504382,-8.451861 L 32.503835,8.9615484 32.449092,19.497779 c -0.04781,9.201113 0.21382,10.826645 2.064577,12.828069 1.165621,1.260509 2.685757,2.277508 3.378082,2.259993 0.692327,-0.01751 0.440241,-0.512164 -0.560192,-1.099225 z m 8.089724,-5.790493 c -0.693343,-0.879213 -2.091001,-1.412047 -2.701943,-1.412047 -0.61094,0 -1.029807,1.577237 0.950349,2.334312 0.762391,0.291485 2.351754,2.556443 -2.418446,5.177179 -0.346531,0.363184 -0.498803,0.720065 -0.09527,0.578811 4.891109,-1.600605 5.716148,-4.83849 4.26531,-6.678255 z M 30.034042,24.560305 c -0.345386,-0.347971 -1.241878,-0.385175 -1.992202,-0.08268 -0.829172,0.33429 -0.582876,0.582429 0.627977,0.632677 1.095711,0.04547 1.709612,-0.202032 1.364225,-0.550004 z m -3.736871,-1.627459 4.018379,-1.212947 v -6.03173 c 0,-3.317454 0.258684,-6.7108974 0.574852,-7.5409879 C 31.325311,7.0053503 29.90796,6.3292533 25.068384,5.3699999 21.550102,4.6726398 18.05315,3.8630098 17.297377,3.5708204 16.541602,3.2786319 15.362782,4.0946315 14.677781,5.3841508 13.604699,7.404224 13.982128,8.864862 17.404702,15.937263 c 2.184812,4.514692 4.175269,8.20853 4.423238,8.20853 0.247966,0 2.259122,-0.545826 4.469231,-1.212947 z"/>
</svg>
