<?xml version="1.0" encoding="UTF-8" standalone="no"?>
<svg
   height="48"
   width="48"
   version="1.1"
   id="svg4"
   xml:space="preserve"
   xmlns="http://www.w3.org/2000/svg"
   xmlns:svg="http://www.w3.org/2000/svg"><defs
     id="defs8" /><path
     id="path2"
     d="M 19.220339,4.779661 15.569948,9.12927 H 8.220339 c -0.7999992,0 -1.49961,0.309116 -2.0996094,0.925782 C 5.5207302,10.671718 5.220339,11.362604 5.220339,12.12927 v 11.423829 a 13.627118,13.627118 0 0 1 3,-2.271485 V 12.12927 h 8.75 L 20.62073,7.779661 h 9.199218 l 3.650391,4.349609 h 8.75 V 37.779661 H 27.624636 a 13.627118,13.627118 0 0 1 -1.511719,3 h 16.107422 c 0.766666,0 1.457553,-0.300391 2.074219,-0.900391 0.616666,-0.599999 0.925781,-1.29961 0.925781,-2.099609 V 12.12927 c 0,-0.766666 -0.309115,-1.457552 -0.925781,-2.074218 C 43.677892,9.438386 42.987005,9.12927 42.220339,9.12927 H 34.87073 L 31.220339,4.779661 Z m 6,11.699219 c -2.433331,0 -4.457554,0.809116 -6.074219,2.425781 -0.33371,0.33371 -0.625799,0.687601 -0.890625,1.054688 a 13.627118,13.627118 0 0 1 2.951172,1.142578 c 0.02262,-0.0234 0.04132,-0.04913 0.06445,-0.07227 1.033333,-1.033332 2.349221,-1.550781 3.949219,-1.550781 1.566665,0 2.875782,0.517449 3.925781,1.550781 1.049999,1.033332 1.574219,2.333726 1.574219,3.900391 0,1.599998 -0.52422,2.92461 -1.574219,3.974609 -0.340301,0.340301 -0.710897,0.619599 -1.105469,0.849609 a 13.627118,13.627118 0 0 1 0.425782,3.136719 c 1.034234,-0.408144 1.970454,-1.027095 2.804687,-1.861328 1.633332,-1.633332 2.449219,-3.666278 2.449219,-6.099609 0,-2.399998 -0.815887,-4.408726 -2.449219,-6.025391 -1.633331,-1.616665 -3.650783,-2.425781 -6.050781,-2.425781 z" /><path
     d="m 4.0338985,37.608628 5.7873647,-7.716487 4.7022348,6.269646 h 7.837057 l -5.787365,-7.692373 -3.014253,4.002927 -0.916333,-1.205701 3.930586,-5.232742 8.681047,11.57473 z M 16.33205,36.161787 Z m -9.4044684,0 H 12.714946 L 9.8212632,32.303543 Z m 0,0 h 5.7873644 z"
     id="path510"
     style="stroke-width:1" /><circle
     style="font-variation-settings:normal;opacity:1;fill:none;fill-opacity:1;fill-rule:evenodd;stroke:#000000;stroke-width:1.945;stroke-linecap:butt;stroke-linejoin:round;stroke-miterlimit:4;stroke-dasharray:none;stroke-dashoffset:0;stroke-opacity:1;stop-color:#000000;stop-opacity:1"
     id="path519"
     cx="14.949152"
     cy="33.050846"
     r="13.118644" /></svg>
