<?xml version="1.0" encoding="UTF-8" standalone="no"?>
<svg
   height="48"
   width="48"
   version="1.1"
   id="svg4"
   xml:space="preserve"
   xmlns="http://www.w3.org/2000/svg"
   xmlns:svg="http://www.w3.org/2000/svg"><defs
     id="defs8" /><path
     id="path2"
     d="M 19.220339,4.779661 15.569948,9.12927 H 8.220339 c -0.7999992,0 -1.49961,0.309116 -2.0996094,0.925782 C 5.5207302,10.671718 5.220339,11.362604 5.220339,12.12927 v 11.423829 a 13.627118,13.627118 0 0 1 3,-2.271485 V 12.12927 h 8.75 L 20.62073,7.779661 h 9.199218 l 3.650391,4.349609 h 8.75 V 37.779661 H 27.624636 a 13.627118,13.627118 0 0 1 -1.511719,3 h 16.107422 c 0.766666,0 1.457553,-0.300391 2.074219,-0.900391 0.616666,-0.599999 0.925781,-1.29961 0.925781,-2.099609 V 12.12927 c 0,-0.766666 -0.309115,-1.457552 -0.925781,-2.074218 C 43.677892,9.438386 42.987005,9.12927 42.220339,9.12927 H 34.87073 L 31.220339,4.779661 Z m 6,11.699219 c -2.433331,0 -4.457554,0.809116 -6.074219,2.425781 -0.33371,0.33371 -0.625799,0.687601 -0.890625,1.054688 a 13.627118,13.627118 0 0 1 2.951172,1.142578 c 0.02262,-0.0234 0.04132,-0.04913 0.06445,-0.07227 1.033333,-1.033332 2.349221,-1.550781 3.949219,-1.550781 1.566665,0 2.875782,0.517449 3.925781,1.550781 1.049999,1.033332 1.574219,2.333726 1.574219,3.900391 0,1.599998 -0.52422,2.92461 -1.574219,3.974609 -0.340301,0.340301 -0.710897,0.619599 -1.105469,0.849609 a 13.627118,13.627118 0 0 1 0.425782,3.136719 c 1.034234,-0.408144 1.970454,-1.027095 2.804687,-1.861328 1.633332,-1.633332 2.449219,-3.666278 2.449219,-6.099609 0,-2.399998 -0.815887,-4.408726 -2.449219,-6.025391 -1.633331,-1.616665 -3.650783,-2.425781 -6.050781,-2.425781 z" /><path
     d="m 10.945931,36.242459 q -0.805,0 -1.3474986,-0.5425 -0.542501,-0.542499 -0.542501,-1.3475 0,-0.804999 0.542501,-1.3475 0.5424986,-0.5425 1.3474986,-0.5425 0.804998,0 1.347499,0.5425 0.5425,0.542501 0.5425,1.3475 0,0.805001 -0.5425,1.3475 -0.542501,0.5425 -1.347499,0.5425 z m 8.855,0 q -0.805001,0 -1.3475,-0.5425 -0.542501,-0.542499 -0.542501,-1.3475 0,-0.804999 0.542501,-1.3475 0.542499,-0.5425 1.3475,-0.5425 0.804999,0 1.347499,0.5425 0.542501,0.542501 0.542501,1.3475 0,0.805001 -0.542501,1.3475 -0.5425,0.5425 -1.347499,0.5425 z m -4.445,8.505001 q 4.97,0 8.435,-3.465001 3.465,-3.464999 3.465,-8.435 0,-0.91 -0.139999,-1.785 -0.14,-0.875 -0.35,-1.609999 -0.7,0.175 -1.522501,0.244999 -0.8225,0.07001 -1.6975,0.07001 -3.395001,0 -6.422501,-1.399998 -3.0275,-1.400001 -5.1625,-3.99 -1.189999,2.834999 -3.4124976,4.952499 -2.2225,2.117501 -5.092501,3.2725 v 0.245 q 0,4.970001 3.465,8.435 3.4649996,3.465001 8.4349996,3.465001 z m 0,2.1 q -2.905001,0 -5.4599996,-1.102499 -2.555,-1.102501 -4.444999,-2.992501 -1.890001,-1.89 -2.992502,-4.445001 -1.102498,-2.554999 -1.102498,-5.46 0,-2.905 1.102498,-5.46 1.102501,-2.555 2.992502,-4.445 1.889999,-1.89 4.444999,-2.9925 2.5549986,-1.1025 5.4599996,-1.1025 2.904999,0 5.46,1.1025 2.555,1.1025 4.445,2.9925 1.89,1.89 2.9925,4.445 1.102501,2.555 1.102501,5.46 0,2.905001 -1.102501,5.46 -1.1025,2.555001 -2.9925,4.445001 -1.89,1.89 -4.445,2.992501 -2.555001,1.102499 -5.46,1.102499 z M 12.13593,21.402459 q 3.08,3.605 5.687502,4.935 2.607498,1.33 5.722499,1.33 0.84,0 1.33,-0.035 0.49,-0.035 1.085001,-0.21 -1.575001,-2.835 -4.287501,-4.655 -2.712501,-1.82 -6.3175,-1.82 -0.945001,0 -1.785,0.14 -0.840001,0.14 -1.435001,0.315 z M 3.7709314,30.11746 q 1.680001,-0.630001 3.832499,-2.852501 2.152501,-2.2225 3.0625016,-5.3725 -3.0450016,1.365 -4.6025006,3.4825 -1.557501,2.117501 -2.2925,4.742501 z M 12.13593,21.402459 Z m -1.469998,0.49 z"
     id="path133"
     style="stroke-width:0.999997" /></svg>
